<?xml version="1.0" encoding="UTF-8"?>
<svg width="66px" height="67px" viewBox="0 0 66 67" version="1.1" xmlns="http://www.w3.org/2000/svg" xmlns:xlink="http://www.w3.org/1999/xlink">
    <title>noun_sacred geometry_1239242_3d3b4c</title>
    <defs>
        <filter id="filter-1">
            <feColorMatrix in="SourceGraphic" type="matrix" values="0 0 0 0 0.854902 0 0 0 0 0.662745 0 0 0 0 0.662745 0 0 0 1.000000 0"></feColorMatrix>
        </filter>
    </defs>
    <g id="Page-1" stroke="none" stroke-width="1" fill="none" fill-rule="evenodd">
        <g id="noun_sacred-geometry_1239242_3d3b4c" transform="translate(-36.000000, -305.000000)" filter="url(#filter-1)">
            <g transform="translate(36.000000, 305.500000)">
                <path d="M65.9345815,32.9273128 C65.9345815,32.9273128 65.9345815,32.9200441 65.9345815,32.9200441 C65.9273128,28.5006608 65.0550661,24.2193833 63.3469163,20.1852423 C61.6896476,16.2601322 59.3127753,12.7420705 56.2889868,9.71828194 C53.2651982,6.69449339 49.7398678,4.31762115 45.8220264,2.66035242 C41.7588106,0.937665198 37.4484581,0.0654185022 33,0.0654185022 C28.5515419,0.0654185022 24.2411894,0.937665198 20.1779736,2.6530837 C16.2528634,4.31035242 12.7348018,6.68722467 9.71101322,9.71101322 C6.68722467,12.7348018 4.31035242,16.2601322 2.6530837,20.1779736 C0.944933921,24.2193833 0.0799559471,28.5006608 0.0654185022,32.9200441 C0.0654185022,32.9200441 0.0654185022,32.9200441 0.0654185022,32.9273128 C0.0654185022,32.9273128 0.0654185022,32.9273128 0.0654185022,32.9345815 C0.0654185022,32.9563877 0.0654185022,32.9781938 0.0654185022,33 C0.0654185022,37.4484581 0.937665198,41.7588106 2.6530837,45.8220264 C4.31035242,49.7471366 6.68722467,53.2651982 9.71101322,56.2889868 C12.7348018,59.3127753 16.2601322,61.6896476 20.1779736,63.3469163 C24.2411894,65.0623348 28.5515419,65.9345815 33,65.9345815 C37.4484581,65.9345815 41.7588106,65.0623348 45.8220264,63.3469163 C49.7471366,61.6896476 53.2651982,59.3127753 56.2889868,56.2889868 C59.3127753,53.2651982 61.6896476,49.7398678 63.3469163,45.8220264 C65.0623348,41.7588106 65.9345815,37.4484581 65.9345815,33 C65.9345815,32.9781938 65.9345815,32.9563877 65.9345815,32.9345815 C65.9345815,32.9345815 65.9345815,32.9273128 65.9345815,32.9273128 Z M62.7436123,20.4178414 C64.3718062,24.277533 65.2222467,28.3480176 65.2731278,32.5638767 L45.8365639,32.5638767 C45.7784141,32.2004405 45.6039648,31.9314978 45.3422907,31.7207048 L56.0200441,10.3651982 C58.8911894,13.2799559 61.1517621,16.6599119 62.7436123,20.4178414 Z M34.388326,55.314978 C34.3156388,55.0242291 34.1484581,54.7625551 33.915859,54.5662996 L38.1462555,46.0982379 L54.6026432,55.314978 L34.388326,55.314978 Z M11.3973568,55.314978 L27.8537445,46.1127753 L32.084141,54.5590308 C31.8515419,54.7552863 31.6843612,55.0242291 31.611674,55.314978 L11.3973568,55.314978 Z M21.5735683,34.257489 C21.6898678,34.257489 21.7988987,34.2429515 21.9006608,34.2211454 L27.5629956,45.545815 L10.9176211,54.8788546 L21.2464758,34.2211454 C21.3482379,34.2429515 21.4572687,34.257489 21.5735683,34.257489 Z M22.4894273,31.7352423 L32.65837,11.3682819 C32.65837,11.3682819 32.6438326,11.3682819 32.6438326,11.3682819 L32.6438326,42.6819383 L28.1226872,45.2259912 L22.4821586,33.9303965 C22.7947137,33.6687225 22.9982379,33.2762115 22.9982379,32.8328194 C22.9982379,32.3894273 22.8019824,31.9969163 22.4894273,31.7352423 Z M43.5105727,33.9303965 L37.8409692,45.2259912 L33.2834802,42.6819383 L33.2834802,11.3682819 C33.2834802,11.3682819 33.3052863,11.3682819 33.3052863,11.3682819 L43.4960352,31.7352423 C43.1834802,31.9969163 42.9872247,32.3894273 42.9872247,32.8328194 C42.9944934,33.2762115 43.1980176,33.6687225 43.5105727,33.9303965 Z M33,54.2537445 C32.8837004,54.2537445 32.7746696,54.2682819 32.6729075,54.2900881 L28.4279736,45.807489 L33,43.2488987 L37.5720264,45.8147577 L33.3270925,54.2973568 C33.2253304,54.2682819 33.1162996,54.2537445 33,54.2537445 Z M38.4370044,45.545815 L44.0993392,34.2211454 C44.20837,34.2429515 44.3174009,34.257489 44.4264317,34.257489 C44.5427313,34.257489 44.6517621,34.2429515 44.7535242,34.2211454 L55.0823789,54.8788546 L38.4370044,45.545815 Z M44.7535242,31.4154185 C44.6444934,31.3936123 44.5354626,31.3936123 44.4264317,31.3936123 C44.3101322,31.3936123 44.2011013,31.4154185 44.0993392,31.4372247 L33.915859,11.0411894 C34.1484581,10.8449339 34.3156388,10.6123348 34.388326,10.2488987 L55.3222467,10.2488987 L44.7535242,31.4154185 Z M20.4323789,3.22731278 C24.4156388,1.54823789 28.6387665,0.705066079 33,0.705066079 C37.3612335,0.705066079 41.5843612,1.53370044 45.5603524,3.22004405 C49.1729075,4.74647577 52.4438326,6.90528634 55.2859031,9.59471366 L34.388326,9.59471366 C34.2429515,9.01321586 33.6759912,8.49713656 33,8.49713656 C32.3240088,8.49713656 31.7570485,9.01321586 31.611674,9.59471366 L10.7140969,9.59471366 C13.5561674,6.90528634 16.8198238,4.76101322 20.4323789,3.22731278 Z M31.611674,10.2488987 C31.6843612,10.6123348 31.8515419,10.8522026 32.084141,11.0484581 L21.9006608,31.4299559 C21.79163,31.4081498 21.6825991,31.4008811 21.5735683,31.4008811 C21.4572687,31.4008811 21.3482379,31.3936123 21.2464758,31.4154185 L10.6777533,10.2488987 L31.611674,10.2488987 Z M3.25638767,20.4178414 C4.84823789,16.6599119 7.10881057,13.2872247 9.97995595,10.3651982 L20.6577093,31.7134361 C20.403304,31.9314978 20.2215859,32.2004405 20.1634361,32.5638767 L0.726872247,32.5638767 C0.777753304,28.3480176 1.62819383,24.277533 3.25638767,20.4178414 Z M3.25638767,45.545815 C1.60638767,41.642511 0.755947137,37.5066079 0.726872247,33.2180617 L20.2070485,33.2180617 C20.2870044,33.5088106 20.4469163,33.734141 20.6577093,33.9085903 L9.87092511,55.4894273 C7.05066079,52.5964758 4.82643172,49.2528634 3.25638767,45.545815 Z M45.5603524,62.7218062 C41.5843612,64.4081498 37.3539648,65.265859 33,65.265859 C28.6460352,65.265859 24.4156388,64.3936123 20.4396476,62.7145374 C16.6817181,61.1226872 13.2944934,58.876652 10.372467,55.969163 L31.6189427,55.969163 C31.7643172,56.623348 32.3312775,57.0667401 33.0072687,57.0667401 C33.6832599,57.0667401 34.2502203,56.623348 34.3955947,55.969163 L55.6420705,55.969163 C52.7127753,58.876652 49.3255507,61.1299559 45.5603524,62.7218062 Z M62.7436123,45.545815 C61.1735683,49.2528634 58.9493392,52.6037445 56.1363436,55.496696 L45.3422907,33.9085903 C45.5530837,33.734141 45.7129956,33.5088106 45.7929515,33.2180617 L65.2731278,33.2180617 C65.2440529,37.5066079 64.3936123,41.642511 62.7436123,45.545815 Z" id="Shape" fill="#3D3B4C" fill-rule="nonzero"></path>
            </g>
        </g>
    </g>
</svg>