<?xml version="1.0" encoding="UTF-8"?>
<svg width="81px" height="80px" viewBox="0 0 81 80" version="1.1" xmlns="http://www.w3.org/2000/svg" xmlns:xlink="http://www.w3.org/1999/xlink">
    <title>agriculture</title>
    <g id="screenshot" stroke="none" stroke-width="1" fill="none" fill-rule="evenodd">
        <g id="Artboard" transform="translate(-1363.000000, -2945.000000)" fill="#000000" fill-rule="nonzero">
            <g id="agriculture" transform="translate(1363.000000, 2945.000000)">
                <path d="M1.7753906,53.9082031 C14.5883789,56.9541015 33.5292968,63.9082031 51.0014648,79.7412109 C51.1928711,79.9145508 51.4331055,80 51.6723633,80 C51.9448242,80 52.2163086,79.8891602 52.4140625,79.6713867 C52.784668,79.262207 52.753418,78.6298828 52.3442383,78.258789 C34.5576172,62.1411133 15.2788086,55.0625 2.2382812,51.9628906 C1.699707,51.8325195 1.1611328,52.1669922 1.0341796,52.7041015 C0.90625,53.2416992 1.2382812,53.7807617 1.7753906,53.9082031 Z" id="Path"></path>
                <path d="M1.7573242,64.5922852 C11.7177734,67.1601562 21.625,72.4072266 30.4082031,79.7666016 C30.5952148,79.9233398 30.8232422,80 31.0498047,80 C31.3354492,80 31.6191406,79.878418 31.8168945,79.6420898 C32.1713867,79.21875 32.1157226,78.5883789 31.6923828,78.2333984 C22.6826172,70.684082 12.5039062,65.2973632 2.2563476,62.6557617 C1.7211914,62.5180664 1.1767578,62.8398437 1.0385742,63.3745117 C0.9003906,63.9091797 1.2226562,64.4545898 1.7573242,64.5922852 Z" id="Path"></path>
                <path d="M48.1074219,16.5722656 C48.1074219,12.6567383 44.921875,9.4711914 41.006836,9.4711914 C37.0908204,9.4711914 33.9052735,12.6567383 33.9052735,16.5722656 C33.9052735,20.4877929 37.0908204,23.6733398 41.006836,23.6733398 C44.921875,23.6733398 48.1074219,20.487793 48.1074219,16.5722656 Z M41.0068359,21.6733398 C38.1938476,21.6733398 35.9052734,19.3847656 35.9052734,16.5722656 C35.9052734,13.7597656 38.1938476,11.4711914 41.0068359,11.4711914 C43.8193359,11.4711914 46.1074218,13.7597656 46.1074218,16.5722656 C46.1074218,19.3847656 43.8193359,21.6733398 41.0068359,21.6733398 Z" id="Shape"></path>
                <path d="M42.0068359,5.4335938 L42.0068359,1 C42.0068359,0.4477539 41.559082,0 41.0068359,0 C40.4545898,0 40.0068359,0.4477539 40.0068359,1 L40.0068359,5.4335938 C40.0068359,5.9858399 40.4545898,6.4335938 41.0068359,6.4335938 C41.559082,6.4335938 42.0068359,5.9858398 42.0068359,5.4335938 Z" id="Path"></path>
                <path d="M34.5712891,7.4262695 C34.756836,7.7470703 35.0927735,7.9262695 35.4384766,7.9262695 C35.6079102,7.9262695 35.7802735,7.8833007 35.9375,7.7924804 C36.4160156,7.5161132 36.5795898,6.9042968 36.3037109,6.4262695 L34.0864257,2.5864257 C33.8100585,2.1083984 33.1977538,1.942871 32.7202148,2.2202148 C32.2416992,2.496582 32.078125,3.1083984 32.3540039,3.5864257 L34.5712891,7.4262695 Z" id="Path"></path>
                <path d="M31.8603516,10.1367188 L28.0205078,7.9199219 C27.540039,7.6435547 26.9301758,7.8076172 26.6542969,8.2861328 C26.378418,8.7646484 26.5419922,9.3759766 27.0205078,9.6523437 L30.8603516,11.8691406 C31.0180664,11.9599609 31.1899414,12.0029297 31.359375,12.0029297 C31.7050781,12.0029297 32.0410156,11.8237305 32.2265625,11.5029297 C32.5024414,11.0244141 32.3388672,10.4130859 31.8603516,10.1367188 Z" id="Path"></path>
                <path d="M24.434082,16.5722656 C24.434082,17.1245117 24.8818359,17.5722656 25.434082,17.5722656 L29.868164,17.5722656 C30.4204101,17.5722656 30.868164,17.1245117 30.868164,16.5722656 C30.868164,16.0200195 30.4204101,15.5722656 29.868164,15.5722656 L25.434082,15.5722656 C24.8818359,15.5722656 24.434082,16.0200195 24.434082,16.5722656 Z" id="Path"></path>
                <path d="M27.5214844,25.3583984 C27.690918,25.3583984 27.862793,25.3154296 28.0205078,25.2246093 L31.8603516,23.0078124 C32.3388672,22.7314452 32.5024414,22.1201171 32.2265625,21.6416015 C31.949707,21.1625976 31.3388672,20.9980468 30.8603516,21.2753906 L27.0205078,23.4921875 C26.5419922,23.7685547 26.378418,24.3798828 26.6542969,24.8583984 C26.8398438,25.1791992 27.1757812,25.3583984 27.5214844,25.3583984 Z" id="Path"></path>
                <path d="M32.7202148,30.9248047 C32.8774414,31.015625 33.0498046,31.0585938 33.2192382,31.0585938 C33.5649413,31.0585938 33.9008788,30.8793946 34.0864257,30.5585938 L36.3037109,26.71875 C36.5795898,26.2407227 36.4160156,25.6289062 35.9375,25.3525391 C35.4584961,25.0761719 34.8476562,25.2402344 34.5712891,25.71875 L32.3540039,29.5585938 C32.078125,30.0366211 32.2416992,30.6484375 32.7202148,30.9248047 Z" id="Path"></path>
                <path d="M40.0068359,27.7109375 L40.0068359,32.1445313 C40.0068359,32.6967774 40.4545898,33.1445313 41.0068359,33.1445313 C41.559082,33.1445313 42.0068359,32.6967774 42.0068359,32.1445313 L42.0068359,27.7109375 C42.0068359,27.1586914 41.559082,26.7109375 41.0068359,26.7109375 C40.4545898,26.7109375 40.0068359,27.1586914 40.0068359,27.7109375 Z" id="Path"></path>
                <path d="M47.9267578,30.5585938 C48.1123047,30.8793946 48.4482422,31.0585938 48.7939453,31.0585938 C48.9633789,31.0585938 49.1357422,31.015625 49.2929687,30.9248047 C49.7714843,30.6484375 49.9350585,30.0366211 49.6591796,29.5585938 L47.4418945,25.71875 C47.165039,25.2402344 46.5527343,25.0761719 46.0756836,25.3525391 C45.597168,25.6289063 45.4335938,26.2407227 45.7094727,26.71875 L47.9267578,30.5585938 Z" id="Path"></path>
                <path d="M50.152832,23.0078125 L53.9926758,25.2246094 C54.1503906,25.3154297 54.3222656,25.3583985 54.4916992,25.3583985 C54.8374023,25.3583985 55.1733398,25.1791993 55.3588867,24.8583985 C55.6347656,24.3798829 55.4711914,23.7685547 54.9926758,23.4921876 L51.152832,21.2753907 C50.6723632,20.9980469 50.0629882,21.1625977 49.7866211,21.6416016 C49.5107422,22.1201172 49.6743164,22.7314453 50.152832,23.0078125 Z" id="Path"></path>
                <path d="M57.5791016,16.5722656 C57.5791016,16.0200195 57.1313477,15.5722656 56.5791016,15.5722656 L52.1450196,15.5722656 C51.5927735,15.5722656 51.1450196,16.0200195 51.1450196,16.5722656 C51.1450196,17.1245117 51.5927735,17.5722656 52.1450196,17.5722656 L56.5791016,17.5722656 C57.1313477,17.5722656 57.5791016,17.1245117 57.5791016,16.5722656 Z" id="Path"></path>
                <path d="M50.6538086,12.0029297 C50.8232422,12.0029297 50.9951172,11.9599609 51.152832,11.8691406 L54.9926758,9.6523437 C55.4711914,9.3759765 55.6347656,8.7646484 55.3588867,8.2861328 C55.0820312,7.8076172 54.4711914,7.6435547 53.9926758,7.9199219 L50.152832,10.1367188 C49.6743164,10.413086 49.5107422,11.0244141 49.7866211,11.5029297 C49.972168,11.8237305 50.3081055,12.0029297 50.6538086,12.0029297 Z" id="Path"></path>
                <path d="M49.2929688,2.2202148 C48.8134766,1.942871 48.203125,2.1083984 47.9267579,2.5864257 L45.7094727,6.4262695 C45.4335938,6.9042968 45.597168,7.5161133 46.0756836,7.7924804 C46.2329102,7.8833007 46.4052734,7.9262695 46.574707,7.9262695 C46.9204101,7.9262695 47.2563476,7.7470703 47.4418945,7.4262695 L49.6591797,3.5864257 C49.9350586,3.1083984 49.7714844,2.496582 49.2929688,2.2202148 Z" id="Path"></path>
                <path d="M80.1459961,27.109375 C77.7667236,26.7752686 75.6872559,26.9509277 73.920044,27.6184082 C73.7451783,25.5048218 72.8792115,21.8354492 69.2304688,19.0083008 C68.8701172,18.7290039 68.366211,18.7290039 68.0058594,19.0083008 C64.3572998,21.835083 63.4909058,25.5038452 63.315857,27.6175537 C61.548523,26.9502563 59.4692994,26.7747192 57.0903321,27.109375 C56.5966798,27.1787109 56.2294923,27.6010742 56.2294923,28.0996094 C56.2294923,34.5952149 61.2539064,39.9389649 67.6206056,40.4487305 L67.6206056,44.6433106 C60.2919923,46.597107 50.9019777,49.8973389 40.9872438,55.4373169 C31.0722658,49.9052124 21.7033693,46.600769 14.3847658,44.6465454 L14.3847658,40.4482422 C20.7485353,39.9355469 25.770508,34.5932617 25.770508,28.0996094 C25.770508,27.6010742 25.4033205,27.178711 24.9096682,27.109375 C22.5307009,26.7752686 20.4512942,26.9507446 18.6841433,27.618103 C18.5092165,25.5045166 17.6430056,21.8353271 13.9941409,19.0083008 C13.6337893,18.7290039 13.1298831,18.7290039 12.7695315,19.0083008 C9.1212161,21.8351441 8.2550051,25.5040894 8.0800173,27.6177368 C6.3115847,26.949707 4.2313235,26.7736816 1.8540041,27.109375 C1.3603518,27.1787109 0.9931643,27.6010742 0.9931643,28.0996094 C0.9931643,34.5952149 6.0180666,39.9389649 12.3847659,40.4487305 L12.3847659,44.1326294 C7.9240725,43.0302734 4.365784,42.4456787 2.1372073,42.152832 C1.5839846,42.0815429 1.0869143,42.4663086 1.015137,43.0141601 C0.9433597,43.5620116 1.3291018,44.0639648 1.8764651,44.1362304 C11.0346682,45.3388671 42.8837893,51.4570312 68.2158206,79.6679687 C68.4135742,79.8881836 68.6860352,80 68.9604492,80 C69.1982422,80 69.4370117,79.9155273 69.6279297,79.7441406 C70.0390625,79.375 70.0732422,78.7426758 69.7041016,78.3320312 C67.6099854,75.9999389 65.4689942,73.8309326 63.3030396,71.7860107 C68.7136231,68.9782104 74.2746583,66.7983398 80.2714844,65.1508789 C80.8041992,65.0043945 81.1171875,64.4541016 80.9711914,63.921875 C80.824707,63.3891602 80.2734375,63.0732422 79.7421875,63.222168 C73.3731079,64.9718628 67.4830322,67.3043213 61.7470703,70.3392334 C59.144165,67.9744873 56.5081177,65.8067627 53.8635254,63.8163452 C64.3010254,58.3447876 73.9181519,55.4104004 80.237793,53.9082031 C80.7749024,53.7807617 81.1069336,53.2416992 80.9790039,52.7041015 C80.8515625,52.1665038 80.3110351,51.8315429 79.7749023,51.9628906 C73.1716308,53.5322265 63.0322265,56.6340332 52.0843505,62.4932861 C49.0540771,60.3053589 46.024536,58.3585815 43.0320434,56.6070556 C59.5544433,47.6102905 74.4139404,44.8876342 80.137207,44.1362304 C80.6845703,44.0639648 81.0703125,43.5620116 80.9985351,43.0141601 C80.9262695,42.4663085 80.4243163,42.0825195 79.8764648,42.152832 C77.6611938,42.4439087 74.1014404,43.0231933 69.6206054,44.1289673 L69.6206054,40.4482422 C75.9848632,39.9365234 81.0071292,34.5932617 81.0071292,28.0996094 C81.0071292,27.6010742 80.6396484,27.1787109 80.1459961,27.109375 Z M23.7329102,28.9892578 C23.3081055,33.9716797 19.3515625,37.961914 14.3847657,38.4404297 L14.3847657,37.715332 C14.3847657,37.6704101 14.4340821,33.2143554 17.3369141,30.6992187 C18.9023438,29.34375 21.0493164,28.769043 23.7329102,28.9892578 Z M13.3823242,21.1005859 C16.5125122,23.9111938 16.7456054,27.4369506 16.7241211,28.6550903 C16.480957,28.8261718 16.2409058,29.0019531 16.0146484,29.1987304 C14.7460937,30.302246 13.9204101,31.661621 13.383789,32.9677734 C12.8461913,31.6616211 12.0200195,30.3022461 10.7509765,29.1987304 C10.5247192,29.0021362 10.2846069,28.826477 10.0415038,28.6554565 C10.0274658,27.4403687 10.2762451,23.8952637 13.3823242,21.1005859 Z M3.0307617,28.9892578 C5.7158203,28.7714844 7.8618164,29.3432617 9.4287109,30.699707 C12.3330078,33.2143554 12.3847656,37.6694336 12.3847656,37.7138672 L12.3847656,37.7143555 L12.3847656,38.440918 C7.4150391,37.965332 3.4555664,33.9736328 3.0307617,28.9892578 Z M58.2670898,28.9892578 C60.9506836,28.7700195 63.0986328,29.3432617 64.6645507,30.699707 C67.5688476,33.2138672 67.6206054,37.6694336 67.6206054,37.7138672 L67.6206054,37.7143555 L67.6206054,38.440918 C62.6508789,37.965332 58.6918945,33.9736328 58.2670898,28.9892578 Z M68.6196289,32.9677734 C68.0820312,31.6616211 67.2558594,30.3022461 65.9868164,29.1987304 C65.7600098,29.0015868 65.5194092,28.8253783 65.2756958,28.6539916 C65.2544556,27.4343261 65.4890137,23.909851 68.6181641,21.1000976 C71.7488404,23.9111328 71.9815674,27.4378662 71.959961,28.6556396 C71.716858,28.8267211 71.4767457,29.0025024 71.2504883,29.1992187 C69.9819336,30.3022461 69.15625,31.6616211 68.6196289,32.9677734 Z M69.6206055,38.4404297 L69.6206055,37.7138672 C69.6206055,37.7138672 69.6206055,37.7138672 69.6206055,37.7133789 C69.6206055,37.6689453 69.6523438,33.2397461 72.5629883,30.7080078 C74.1293945,29.3457031 76.2788086,28.7705078 78.9692383,28.9892578 C78.5444336,33.972168 74.5878906,37.9624023 69.6206055,38.4404297 Z" id="Shape"></path>
            </g>
        </g>
    </g>
</svg>