<svg width="95" height="93" viewBox="0 0 95 93" fill="none" xmlns="http://www.w3.org/2000/svg">
<path d="M42.9 40.5L81 2.4C84.2 -0.8 89.4 -0.8 92.6 2.4C95.8 5.6 95.8 10.8 92.6 14L60.3 46.3L92.6 78.6C95.8 81.8 95.8 87 92.6 90.2C91 91.8 88.9 92.6 86.8 92.6C84.7 92.6 82.6 91.8 81 90.2L42.9 52.1C39.7 48.9 39.7 43.7 42.9 40.5Z" fill="black"/>
<path d="M2.4 40.5L40.5 2.4C43.7 -0.8 48.9 -0.8 52.1 2.4C55.3 5.6 55.3 10.8 52.1 14L19.8 46.3L52.1 78.6C55.3 81.8 55.3 87 52.1 90.2C50.5 91.8 48.4 92.6 46.3 92.6C44.2 92.6 42.1 91.8 40.5 90.2L2.4 52.1C-0.799999 48.9 -0.799999 43.7 2.4 40.5Z" fill="black"/>
</svg>
