<svg width="95" height="93" viewBox="0 0 95 93" fill="none" xmlns="http://www.w3.org/2000/svg">
<path d="M52.1 40.5L14 2.4C10.8 -0.8 5.6 -0.8 2.4 2.4C-0.8 5.6 -0.8 10.8 2.4 14L34.7 46.3L2.4 78.6C-0.8 81.8 -0.8 87 2.4 90.2C4 91.8 6.1 92.6 8.2 92.6C10.3 92.6 12.4 91.8 14 90.2L52.1 52.1C55.3 48.9 55.3 43.7 52.1 40.5Z" fill="black"/>
<path d="M92.6 40.5L54.5 2.4C51.3 -0.8 46.1 -0.8 42.9 2.4C39.7 5.6 39.7 10.8 42.9 14L75.2 46.3L42.9 78.6C39.7 81.8 39.7 87 42.9 90.2C44.5 91.8 46.6 92.6 48.7 92.6C50.8 92.6 52.9 91.8 54.5 90.2L92.6 52.1C95.8 48.9 95.8 43.7 92.6 40.5Z" fill="black"/>
</svg>
