<?xml version="1.0" encoding="UTF-8"?>
<svg width="58px" height="66px" viewBox="0 0 58 66" version="1.1" xmlns="http://www.w3.org/2000/svg" xmlns:xlink="http://www.w3.org/1999/xlink">
    <title>noun_sacred geometry_1239240_3d3b4c</title>
    <defs>
        <filter id="filter-1">
            <feColorMatrix in="SourceGraphic" type="matrix" values="0 0 0 0 0.011765 0 0 0 0 0.011765 0 0 0 0 0.011765 0 0 0 1.000000 0"></feColorMatrix>
        </filter>
    </defs>
    <g id="Page-1" stroke="none" stroke-width="1" fill="none" fill-rule="evenodd">
        <g id="noun_sacred-geometry_1239240_3d3b4c" transform="translate(-38.000000, -716.000000)" filter="url(#filter-1)">
            <g transform="translate(38.000000, 716.000000)">
                <path d="M57.571012,49.3228613 L57.571012,16.6696802 C57.571012,16.6547633 57.571012,16.6473048 57.571012,16.6323878 C57.571012,16.6323878 57.571012,16.6249294 57.571012,16.6249294 C57.571012,16.602554 57.5635512,16.587637 57.5560904,16.5652616 C57.5560904,16.5652616 57.5560904,16.5578031 57.5560904,16.5578031 C57.5411687,16.5130523 57.5187863,16.47576 57.488943,16.4459261 C57.488943,16.4459261 57.488943,16.4459261 57.488943,16.4459261 C57.4665605,16.4160922 57.4367172,16.3937168 57.4068739,16.3787999 L29.0930472,0.0372923494 C29.0930472,0.0372923494 29.0855864,0.0372923494 29.0855864,0.0372923494 C29.0781256,0.0298338795 29.0632039,0.0223754097 29.0557431,0.0223754097 C29.0482823,0.0223754097 29.0482823,0.0223754097 29.0408215,0.0149169398 C29.0333607,0.0149169398 29.0258998,0.00745846988 29.0109782,0.00745846988 C29.0035174,0.00745846988 29.0035174,0.00745846988 28.9960565,0.00745846988 C28.9885957,0.00745846988 28.9811349,0 28.9662132,0 C28.9587524,0 28.9512916,0 28.9438308,0 C28.9363699,0 28.9289091,0 28.9214483,0 C28.9139875,0 28.9065266,0 28.8990658,0 C28.891605,0 28.8841442,0 28.8766834,0 C28.8692225,0 28.8617617,0 28.8468401,0.00745846988 C28.8393792,0.00745846988 28.8393792,0.00745846988 28.8319184,0.00745846988 C28.8244576,0.00745846988 28.8169968,0.0149169398 28.8020751,0.0149169398 C28.7946143,0.0149169398 28.7946143,0.0149169398 28.7871535,0.0223754097 C28.7722318,0.0298338795 28.764771,0.0298338795 28.7573102,0.0372923494 C28.7573102,0.0372923494 28.7498493,0.0372923494 28.7498493,0.0372923494 L0.443483498,16.3713414 C0.413640203,16.3862583 0.383796907,16.4160922 0.361414435,16.4384676 C0.361414435,16.4384676 0.361414435,16.4384676 0.361414435,16.4384676 C0.33157114,16.4683015 0.309188668,16.5130523 0.29426702,16.5503447 C0.29426702,16.5503447 0.29426702,16.5578031 0.29426702,16.5578031 C0.286806196,16.5801786 0.286806196,16.5950955 0.279345372,16.6174709 C0.279345372,16.6174709 0.279345372,16.6249294 0.279345372,16.6249294 C0.279345372,16.6398463 0.279345372,16.6473048 0.279345372,16.6622217 L0.279345372,49.3377783 C0.279345372,49.3526952 0.279345372,49.3676122 0.279345372,49.3825291 C0.279345372,49.3899876 0.279345372,49.397446 0.279345372,49.397446 C0.279345372,49.4049045 0.279345372,49.412363 0.286806196,49.4198214 C0.286806196,49.4272799 0.29426702,49.4347384 0.29426702,49.4421969 C0.29426702,49.4496553 0.29426702,49.4496553 0.301727844,49.4571138 C0.316649492,49.4869477 0.324110316,49.5093231 0.346492787,49.5316985 C0.346492787,49.5316985 0.353953611,49.539157 0.353953611,49.539157 C0.361414435,49.5466154 0.368875259,49.5540739 0.376336083,49.5615324 C0.383796907,49.5689908 0.383796907,49.5689908 0.391257731,49.5764493 C0.398718555,49.5839078 0.406179379,49.5839078 0.406179379,49.5913663 C0.413640203,49.5988247 0.42856185,49.6062832 0.436022674,49.6137417 C0.436022674,49.6137417 0.443483498,49.6137417 0.443483498,49.6212001 L28.7274669,65.9477907 C28.7274669,65.9477907 28.7274669,65.9477907 28.7274669,65.9477907 L28.7423885,65.9552492 C28.7498493,65.9552492 28.7498493,65.9552492 28.7573102,65.9627077 C28.7796926,65.9701661 28.7946143,65.9776246 28.8169968,65.9850831 C28.8244576,65.9850831 28.8244576,65.9850831 28.8319184,65.9925415 C28.8468401,65.9925415 28.8543009,66 28.8692225,66 C28.8766834,66 28.8841442,66 28.891605,66 C28.8990658,66 28.9139875,66 28.9214483,66 C28.9289091,66 28.9438308,66 28.9512916,66 C28.9587524,66 28.9662132,66 28.9736741,66 C28.9885957,66 28.9960565,65.9925415 29.0109782,65.9925415 C29.018439,65.9925415 29.018439,65.9925415 29.0258998,65.9850831 C29.0482823,65.9776246 29.0632039,65.9701661 29.0855864,65.9627077 C29.0930472,65.9627077 29.0930472,65.9627077 29.1005081,65.9552492 L29.1154297,65.9477907 C29.1154297,65.9477907 29.1154297,65.9477907 29.1154297,65.9477907 L57.3994131,49.6212001 C57.3994131,49.6212001 57.4068739,49.6212001 57.4068739,49.6137417 C57.4143347,49.6062832 57.4217956,49.5988247 57.4367172,49.5988247 C57.444178,49.5988247 57.444178,49.5913663 57.4516389,49.5913663 C57.4665605,49.5764493 57.4814822,49.5615324 57.4964038,49.539157 C57.4964038,49.539157 57.4964038,49.5316985 57.5038646,49.5316985 C57.5113254,49.52424 57.5187863,49.5093231 57.5262471,49.4944061 C57.5262471,49.4944061 57.5262471,49.4944061 57.5262471,49.4944061 C57.5486296,49.4571138 57.5635512,49.4198214 57.5635512,49.3750706 C57.5635512,49.3750706 57.5635512,49.3750706 57.5635512,49.3750706 C57.5635512,49.3601537 57.571012,49.3452367 57.571012,49.3303198 C57.571012,49.3303198 57.571012,49.3303198 57.571012,49.3228613 Z M56.5638008,16.6696802 L44.1489899,23.8298113 C43.8804002,23.5463894 43.4998982,23.3673861 43.082092,23.3673861 C42.9328756,23.3673861 42.7911199,23.3897616 42.6568251,23.4270539 L29.8465905,1.24556447 L56.5638008,16.6696802 Z M30.3390048,48.7709346 C30.1972492,48.2637586 29.7869039,47.8684597 29.2646462,47.7491242 L29.2646462,33.2051079 L42.0151942,25.8435981 C42.2837839,26.12702 42.6568251,26.3060233 43.082092,26.3060233 C43.1417786,26.3060233 43.2014652,26.2985648 43.2611518,26.2911063 C44.2235981,28.3347271 44.7607774,30.6095604 44.7607774,33.0111877 C44.7607774,41.2602554 38.4116163,48.0549215 30.3390048,48.7709346 Z M27.5188134,48.7709346 C19.446202,48.0549215 13.0970408,41.2602554 13.0970408,33.0037292 C13.0970408,30.6021019 13.6342201,28.3272686 14.5966664,26.2836479 C14.656353,26.2911063 14.7160396,26.2985648 14.7757262,26.2985648 C15.1935323,26.2985648 15.5740344,26.1195615 15.842624,25.8361397 L28.593172,33.1976495 L28.593172,47.7416657 C28.0709144,47.8610012 27.6605691,48.2563001 27.5188134,48.7709346 Z M41.6794571,25.254379 L28.9289091,32.6158888 L16.1783611,25.254379 C16.2156652,25.1201266 16.2380477,24.9784156 16.2380477,24.8292462 C16.2380477,24.5010736 16.1261353,24.1952763 15.9396147,23.9491468 C18.8045711,19.8544468 23.5571159,17.1693977 28.9214483,17.1693977 C34.2857807,17.1693977 39.0383255,19.8544468 41.9032819,23.9491468 C41.7167613,24.1952763 41.6048489,24.5010736 41.6048489,24.8292462 C41.6123097,24.9784156 41.6346922,25.127585 41.6794571,25.254379 Z M28.9289091,0.999434964 L40.7841583,21.5251441 C40.7244717,21.4654763 40.6647851,21.3983501 40.5976377,21.3386823 C37.4790133,18.2210419 33.338256,16.5055939 28.9289091,16.5055939 C24.5195622,16.5055939 20.3788049,18.2210419 17.2601806,21.3386823 C17.200494,21.3983501 17.1408074,21.4654763 17.07366,21.5251441 L28.9289091,0.999434964 Z M28.0112278,1.24556447 L15.2009932,23.4345124 C15.0666983,23.39722 14.9249427,23.3748446 14.7757262,23.3748446 C14.3579201,23.3748446 13.977418,23.5538479 13.7088284,23.8372697 L1.29401742,16.6696802 L28.0112278,1.24556447 Z M0.958280347,17.2514408 L13.3730913,24.4190304 C13.3357872,24.5532829 13.3134047,24.6949938 13.3134047,24.8367047 C13.3134047,25.254379 13.4924645,25.634761 13.7759758,25.9032659 L0.958280347,48.0847553 L0.958280347,17.2514408 Z M13.0448151,28.5062719 C12.6344697,29.9532151 12.4255667,31.459826 12.4255667,33.0037292 C12.4255667,37.4116849 14.1415562,41.5511357 17.2601806,44.6687761 C19.401437,46.809357 22.0201862,48.286134 24.8776817,49.0021471 L1.20448754,49.0021471 L13.0448151,28.5062719 Z M1.87596169,49.6734094 L27.5561175,49.6734094 C27.7277165,50.1283761 28.1156793,50.4789242 28.593172,50.5908012 L28.593172,65.0900667 L1.87596169,49.6734094 Z M29.2646462,65.0975251 L29.2646462,50.5908012 C29.7421389,50.4789242 30.1301018,50.1283761 30.3017007,49.6734094 L55.9818566,49.6734094 L29.2646462,65.0975251 Z M32.9801365,49.0021471 C35.837632,48.286134 38.4563812,46.8018985 40.5976377,44.6687761 C43.7162621,41.5511357 45.4322516,37.4116849 45.4322516,33.0037292 C45.4322516,31.459826 45.2233485,29.9532151 44.8130032,28.5062719 L56.6533307,49.0021471 L32.9801365,49.0021471 Z M56.8995379,48.0847553 L44.0818424,25.9032659 C44.3653538,25.634761 44.5444135,25.254379 44.5444135,24.8367047 C44.5444135,24.6875353 44.5220311,24.5458244 44.4847269,24.4190304 L56.8995379,17.2514408 L56.8995379,48.0847553 L56.8995379,48.0847553 Z" id="Shape" fill="#3D3B4C" fill-rule="nonzero"></path>
            </g>
        </g>
    </g>
</svg>