<?xml version="1.0" encoding="UTF-8"?>
<svg width="60px" height="60px" viewBox="0 0 60 60" version="1.1" xmlns="http://www.w3.org/2000/svg" xmlns:xlink="http://www.w3.org/1999/xlink">
    <title>noun_day and night_1298379</title>
    <defs>
        <filter id="filter-1">
            <feColorMatrix in="SourceGraphic" type="matrix" values="0 0 0 0 0.569126 0 0 0 0 0.246109 0 0 0 0 0.450686 0 0 0 1.000000 0"></feColorMatrix>
        </filter>
    </defs>
    <g id="Page-1" stroke="none" stroke-width="1" fill="none" fill-rule="evenodd">
        <g id="noun_day-and-night_1298379" transform="translate(-1354.000000, -99.000000)" filter="url(#filter-1)">
            <g transform="translate(1354.000000, 99.000000)">
                <path d="M27.2863636,49.7645455 L24.2618182,52.8436364 L27.9818182,55.0363636 L23.6645455,55.0745455 L24.7445455,59.2554545 L21.6654545,56.2309091 L19.4727273,59.9481818 L19.4345455,55.6281818 L15.2536364,56.7081818 L18.2809091,53.6290909 L14.5609091,51.4363636 L18.8781818,51.3981818 L17.7981818,47.2172727 L20.8772727,50.2418182 L23.07,46.5245455 L23.1081818,50.8390909 L27.2863636,49.7645455 L27.2863636,49.7645455 Z M41.4218182,30.9136364 C42.8727273,27.0872727 42.7827273,22.8818182 40.29,19.3118182 C46.1590909,24.99 46.3145455,34.3527273 40.6363636,40.2218182 C34.9581818,46.0909091 25.5954545,46.2463636 19.7263636,40.5681818 L19.7754545,40.5190909 C19.3445455,40.0936364 18.9354545,39.6518182 18.5618182,39.1936364 L18.5645455,39.1909091 C18.3954545,38.9836364 18.2318182,38.7709091 18.0736364,38.5527273 L17.9809091,38.4218182 L17.9809091,38.4218182 L17.9727273,38.4109091 L17.9590909,38.3918182 L17.9536364,38.3836364 L17.9481818,38.3727273 L17.94,38.3645455 L17.9290909,38.3427273 L17.9236364,38.3345455 L17.9209091,38.3318182 L17.9181818,38.3263636 L17.9127273,38.3154545 L17.9072727,38.3045455 L17.9018182,38.2963636 L17.8827273,38.2909091 L17.8772727,38.2827273 L17.8718182,38.2718182 L17.8609091,38.2636364 L17.8554545,38.2527273 L17.85,38.2445455 L17.85,38.2445455 L17.8363636,38.2254545 L17.8309091,38.2172727 L17.8254545,38.2063636 L17.82,38.1981818 L17.8090909,38.1872727 L17.8036364,38.1790909 L17.7981818,38.1681818 L17.7927273,38.1572727 L17.7872727,38.1545455 L17.7845455,38.1490909 L17.7790909,38.1381818 L17.7736364,38.13 L17.7681818,38.1190909 L17.7627273,38.1109091 L17.7572727,38.1 L17.7518182,38.0890909 L17.7463636,38.0809091 L17.7327273,38.0727273 L17.73,38.0672727 L17.7272727,38.0645455 L17.7218182,38.0536364 L17.7109091,38.0345455 L17.7054545,38.0236364 L17.7,38.0154545 L17.6945455,38.0045455 L17.6809091,37.9854545 L17.6754545,37.9772727 L17.6754545,37.9745455 L17.6645455,37.9554545 L17.6590909,37.9472727 C16.9990909,36.9272727 16.4754545,35.8418182 16.0936364,34.7181818 L16.0909091,34.7072727 C14.9809091,31.4536364 15.0409091,27.8781818 16.2763636,24.6490909 L16.2790909,24.6490909 C16.35,24.4445455 16.4345455,24.2345455 16.5272727,24.0272727 L16.5327273,24.0163636 L16.5381818,24.0054545 L16.5436364,23.9945455 L16.5463636,23.9836364 L16.5518182,23.9727273 L16.5572727,23.9618182 L16.5627273,23.9454545 L16.5681818,23.9345455 L16.5709091,23.9236364 L16.5763636,23.9127273 L16.5818182,23.8990909 L16.5872727,23.8881818 L16.59,23.8772727 L16.5927273,23.8663636 L16.6118182,23.8254545 L16.6172727,23.8145455 L16.62,23.8036364 L16.6254545,23.7927273 L16.6363636,23.7845455 L16.6390909,23.7736364 L16.6445455,23.7654545 L16.65,23.7545455 L16.6527273,23.7463636 L16.6581818,23.7354545 L16.6636364,23.7218182 L16.6690909,23.7109091 L16.6718182,23.7 L16.6772727,23.6890909 L16.68,23.6781818 L16.6854545,23.6672727 L16.6881818,23.6563636 L16.6909091,23.6454545 L16.6963636,23.6372727 L16.6990909,23.6263636 L16.7127273,23.6181818 L16.7181818,23.6072727 L16.7209091,23.5963636 L16.7263636,23.5881818 L16.7318182,23.5772727 L16.7345455,23.5663636 L16.74,23.5554545 L16.7454545,23.5445455 L16.7509091,23.5281818 L16.7536364,23.5254545 L16.7590909,23.5145455 L16.7645455,23.5063636 L16.7672727,23.4954545 L16.7754545,23.4818182 L16.7809091,23.4709091 L16.7863636,23.46 L16.7890909,23.4518182 L16.7945455,23.4409091 L16.8763636,23.2772727 L16.8818182,23.2663636 C17.4218182,22.2054545 18.0981818,21.1963636 18.9136364,20.2663636 L18.9136364,20.2663636 C19.08,20.0781818 19.2490909,19.89 19.4263636,19.7072727 C20.4627273,18.6327273 21.6327273,17.7490909 22.8790909,17.0590909 L22.8790909,17.0618182 C23.1163636,16.9336364 23.3536364,16.8081818 23.5963636,16.6909091 L23.6918182,16.6445455 L23.7,16.6418182 L23.7190909,16.6309091 L23.73,16.6281818 L23.7381818,16.6227273 L23.7490909,16.6172727 L23.76,16.6145455 L23.7709091,16.6090909 L23.7818182,16.6063636 L23.8009091,16.5954545 L23.8090909,16.5927273 L23.8118182,16.5927273 L23.8254545,16.5818182 L23.8363636,16.5763636 L23.8472727,16.5736364 L23.8581818,16.5681818 L23.8663636,16.5654545 L23.8772727,16.56 L23.8881818,16.5545455 L23.8990909,16.5518182 L23.91,16.5463636 L23.9209091,16.5436364 L23.9618182,16.5245455 L23.9727273,16.5136364 L23.9836364,16.5081818 L23.9918182,16.5054545 L24.0027273,16.5 L24.0136364,16.4972727 L24.0190909,16.4945455 C26.8145455,15.2536364 29.9209091,14.9263636 32.8854545,15.51 L32.8990909,15.51 L32.9127273,15.5127273 L32.9509091,15.5209091 L32.9618182,15.5236364 L32.9754545,15.5236364 L32.9863636,15.5263636 L33,15.5318182 L33.0109091,15.5318182 L33.0245455,15.5345455 L33.0381818,15.5372727 L33.0490909,15.54 L33.0627273,15.5427273 L33.0736364,15.5454545 L33.0845455,15.5481818 L33.0981818,15.5509091 L33.1118182,15.5536364 L33.1227273,15.5563636 L33.1363636,15.5590909 L33.15,15.5618182 L33.1990909,15.5727273 L33.2127273,15.5754545 L33.2236364,15.5781818 L33.2372727,15.5809091 L33.2481818,15.5836364 L33.2618182,15.5863636 L33.2754545,15.5890909 L33.2863636,15.5918182 L33.3,15.5945455 L33.3109091,15.5972727 L33.3245455,15.6 L33.3272727,15.6 L33.3381818,15.6 L33.3490909,15.6027273 L33.3627273,15.6054545 L33.3763636,15.6081818 L33.3872727,15.6109091 L33.4009091,15.6136364 L33.4145455,15.6163636 L33.4254545,15.6190909 L33.4390909,15.6218182 L33.45,15.6245455 L33.4636364,15.6272727 L33.4772727,15.63 L33.4881818,15.6327273 L33.5018182,15.6354545 L33.5127273,15.6381818 L33.5263636,15.6409091 L33.54,15.6409091 L33.5509091,15.6436364 L33.5645455,15.6463636 L33.5754545,15.6490909 L33.5890909,15.6518182 L33.6027273,15.6545455 L33.6136364,15.6572727 L33.6272727,15.66 L33.6327273,15.66 L33.6381818,15.6627273 L33.6490909,15.6654545 L33.66,15.6681818 L33.6736364,15.6709091 L33.6845455,15.6736364 L33.6954545,15.6763636 L33.7063636,15.6790909 L33.72,15.6790909 L33.7309091,15.6818182 L33.7418182,15.6845455 L33.7745455,15.6927273 L33.7881818,15.6954545 L33.8318182,15.7063636 L33.8427273,15.7090909 L33.8890909,15.72 L33.9,15.7227273 L33.9136364,15.7254545 L33.9245455,15.7281818 L33.9354545,15.7309091 L34.2218182,15.8127273 L34.2272727,15.8127273 L34.2327273,15.8127273 L34.2436364,15.8154545 C35.4136364,16.1645455 36.5481818,16.6609091 37.6172727,17.3072727 L37.6172727,17.31 C37.8463636,17.4463636 38.0727273,17.5909091 38.2963636,17.7436364 C38.4027273,17.8063636 38.5036364,17.8827273 38.5990909,17.9536364 L38.6072727,17.9590909 L38.6181818,17.9672727 L38.6263636,17.9727273 L38.6372727,17.9781818 L38.6454545,17.9836364 L38.6563636,17.9890909 L38.6645455,17.9972727 L38.6754545,18.0027273 L38.6836364,18.0081818 L38.6945455,18.0163636 L38.7027273,18.0218182 L38.7136364,18.0272727 L38.7218182,18.0327273 L38.7327273,18.0381818 L38.7409091,18.0436364 L38.7518182,18.0490909 L38.76,18.0545455 L38.7709091,18.06 L38.7790909,18.0654545 L38.79,18.0709091 L38.7981818,18.0763636 L38.8063636,18.0845455 L38.8172727,18.09 L38.8254545,18.0954545 L38.8336364,18.1009091 L38.8363636,18.1009091 L38.8445455,18.1063636 L38.8554545,18.1118182 L38.8636364,18.1172727 L38.8827273,18.1309091 L38.8909091,18.1363636 C39.3681818,18.4963636 39.8263636,18.8890909 40.2654545,19.3145455 L42.3518182,17.1572727 L42.3545455,17.1545455 L47.9209091,11.4 L46.9527273,10.4618182 L41.6727273,16.5272727 C41.3590909,16.2545455 41.04,15.9954545 40.71,15.7472727 L47.4681818,6.79636364 L44.9590909,5.1 L39.1472727,14.7545455 C38.7927273,14.5390909 38.4327273,14.34 38.0672727,14.1518182 L41.7245455,6.99272727 L39.2618182,5.89363636 L36.3736364,13.3936364 C35.9863636,13.2436364 35.5963636,13.11 35.2036364,12.99 L38.49,2.26636364 L35.5527273,1.53 L33.4036364,12.54 C33,12.4663636 32.5881818,12.4036364 32.1818182,12.3518182 L33.1663636,4.37181818 L30.4772727,4.18090909 L30.33,12.2236364 C29.9181818,12.2127273 29.5145455,12.21 29.0918182,12.2427273 L28.5163636,1.03636364 L25.5027273,1.35 L27.2481818,12.4309091 C26.8418182,12.4936364 26.4354545,12.5727273 26.0345455,12.6654545 L24.2318182,4.83 L21.6381818,5.57181818 L24.2509091,13.1781818 C23.8609091,13.3118182 23.4736364,13.4590909 23.0945455,13.62 L18.72,3.29181818 L15.9981818,4.61727273 L21.4254545,14.4327273 C21.0654545,14.6290909 20.7136364,14.8418182 20.3645455,15.0681818 L15.9927273,8.32090909 L13.8109091,9.90545455 L18.8672727,16.1590909 C18.5454545,16.4181818 18.2345455,16.6881818 17.9318182,16.9718182 L10.2845455,8.75727273 L8.18181818,10.9363636 L16.6445455,18.3054545 C16.3718182,18.6190909 16.11,18.9354545 15.8645455,19.2654545 L9.44181818,14.4190909 L7.93363636,16.6527273 L14.8227273,20.8009091 C14.6072727,21.1554545 14.4081818,21.5154545 14.22,21.8809091 L4.23,16.7809091 L2.99727273,19.5463636 L13.4645455,23.5772727 C13.3145455,23.9645455 13.1809091,24.3545455 13.0609091,24.7472727 L5.37272727,22.3881818 L4.71818182,25.0036364 L12.6136364,26.5445455 C12.5345455,26.9481818 12.4718182,27.3572727 12.42,27.7663636 L1.28454545,26.3890909 L1.06909091,29.4109091 L12.2890909,29.6154545 C12.2809091,30.03 12.2890909,30.4418182 12.3081818,30.8536364 L12.3081818,30.8536364 L4.27363636,31.2681818 L4.55454545,33.9490909 L12.4990909,32.6972727 C12.5618182,33.1036364 12.6354545,33.5072727 12.7309091,33.9136364 L1.8,36.4254545 L2.63181818,39.3381818 L13.2381818,35.6972727 C13.3718182,36.0872727 13.5190909,36.4718182 13.68,36.8536364 L6.27818182,39.9872727 L7.45909091,42.4118182 L14.4927273,38.52 C14.6918182,38.88 14.9045455,39.2345455 15.1281818,39.5836364 L5.71909091,45.6818182 L7.49727273,48.1309091 L16.2190909,41.0809091 C16.4781818,41.4 16.7481818,41.7081818 17.0318182,42.0163636 L11.1463636,47.4954545 L12.1145455,48.4336364 L17.6809091,42.6790909 L17.6836364,42.6763636 L19.7236364,40.5709091 C24.0245455,42.9818182 28.6445455,42.6163636 32.5827273,40.6445455 C35.2745455,39.1827273 35.7409091,37.0009091 33.9845455,34.1072727 C37.6227273,34.8818182 40.1018182,33.8154545 41.4218182,30.9136364 L41.4218182,30.9136364 Z M30.33,12.2236364 L30.3436364,12.2236364 L30.3572727,12.2236364 L30.3709091,12.2236364 L30.3736364,12.2236364 L30.3818182,12.2236364 L30.3954545,12.2236364 L30.4090909,12.2236364 L30.4227273,12.2236364 L30.4363636,12.2236364 L30.4363636,12.2236364 L30.45,12.2236364 L30.4636364,12.2236364 L30.4772727,12.2236364 L30.4909091,12.2236364 L30.4990909,12.2236364 L30.5045455,12.2236364 L30.5181818,12.2236364 L30.5318182,12.2236364 L30.5454545,12.2236364 L30.5590909,12.2236364 L30.5645455,12.2236364 L30.5727273,12.2236364 L30.5863636,12.2236364 L30.6,12.2236364 L30.6136364,12.2236364 L30.6272727,12.2236364 L30.6409091,12.2236364 L30.6545455,12.2236364 L30.6681818,12.2236364 L30.6818182,12.2236364 L30.69,12.2236364 L30.6954545,12.2236364 L30.7090909,12.2236364 L30.7227273,12.2236364 L30.7363636,12.2236364 L30.78,12.2263636 L30.7936364,12.2263636 L30.8072727,12.2263636 L30.8209091,12.2263636 L30.8209091,12.2263636 L30.8345455,12.2263636 L30.8481818,12.2263636 L30.8645455,12.2263636 L30.8781818,12.2263636 L30.8863636,12.2263636 L30.8890909,12.2263636 L30.9027273,12.2263636 L30.9163636,12.2263636 L31.0036364,12.2318182 L31.0172727,12.2318182 L31.0172727,12.2318182 L31.0309091,12.2318182 L31.0445455,12.2318182 L31.0581818,12.2318182 L31.1154545,12.2345455 L31.1290909,12.2345455 L31.1590909,12.2345455 L31.1727273,12.2345455 L31.1863636,12.2345455 L31.2136364,12.2345455 L31.2136364,12.2345455 L31.2272727,12.2345455 L31.2572727,12.2372727 L31.2709091,12.2372727 L31.3581818,12.2427273 L31.3718182,12.2427273 L31.3854545,12.2427273 L31.4127273,12.2427273 L31.4181818,12.2427273 L31.4754545,12.2454545 L31.4836364,12.2454545 L31.5218182,12.2481818 L31.5354545,12.2509091 L31.5654545,12.2509091 L31.5790909,12.2509091 L31.62,12.2536364 L31.6254545,12.2536364 L31.6390909,12.2536364 L32.1436364,12.3081818 L30.33,12.2236364 L30.33,12.2236364 Z M55.4590909,13.4236364 L54.2727273,15.6 L56.67,16.2245455 L54.2972727,16.9254545 L55.5518182,19.0609091 L53.3754545,17.8772727 L52.7509091,20.2745455 L52.05,17.8990909 L49.9145455,19.1536364 L51.0981818,16.9772727 L48.7009091,16.3554545 L51.0763636,15.6545455 L49.8218182,13.5190909 L51.9981818,14.7027273 L52.62,12.3054545 L53.3236364,14.6809091 L55.4590909,13.4236364 L55.4590909,13.4236364 Z M58.8245455,34.3309091 L55.3909091,35.8745455 L57.72,38.8309091 L54.2018182,37.4972727 L53.7572727,41.2336364 L52.2163636,37.8027273 L49.26,40.1290909 L50.5936364,36.6136364 L46.8572727,36.1690909 L50.2881818,34.6254545 L47.9590909,31.6690909 L51.4772727,33.0027273 L51.9218182,29.2663636 L53.4654545,32.6972727 L56.4218182,30.3681818 L55.0881818,33.8863636 L58.8245455,34.3309091 L58.8245455,34.3309091 Z M46.3063636,51.4609091 L43.8381818,52.5709091 L45.5127273,54.6981818 L42.9790909,53.7381818 L42.66,56.4245455 L41.55,53.9563636 L39.4227273,55.6309091 L40.3854545,53.1 L37.6963636,52.7781818 L40.1645455,51.6681818 L38.49,49.5409091 L41.0236364,50.5036364 L41.3427273,47.8145455 L42.4527273,50.2854545 L44.58,48.6081818 L43.62,51.1418182 L46.3063636,51.4609091 Z" id="Shape" fill="#000000" fill-rule="nonzero"></path>
            </g>
        </g>
    </g>
</svg>