<?xml version="1.0" encoding="UTF-8"?>
<svg width="64px" height="90px" viewBox="0 0 64 90" version="1.1" xmlns="http://www.w3.org/2000/svg" xmlns:xlink="http://www.w3.org/1999/xlink">
    <title>education</title>
    <g id="screenshot" stroke="none" stroke-width="1" fill="none" fill-rule="evenodd">
        <g id="Artboard" transform="translate(-1075.000000, -2956.000000)" fill="#000000" fill-rule="nonzero">
            <g id="Group" transform="translate(1075.000000, 2956.000000)">
                <path d="M13.882,44.803 L14.423,45.049 C14.531,45.099 14.645,45.122 14.756,45.122 C15.06,45.122 15.349,44.949 15.484,44.656 C15.669,44.255 15.493,43.78 15.091,43.595 L14.538,43.343 C14.138,43.161 13.661,43.34 13.48,43.744 C13.299,44.148 13.479,44.622 13.882,44.803 Z" id="Path"></path>
                <path d="M4.623,42.813 L2.378,41.762 C1.901,41.538 1.337,41.583 0.899,41.88 C0.461,42.178 0.212,42.686 0.246,43.214 L2.267,75.525 C2.301,76.068 2.626,76.55 3.119,76.785 L25.934,87.67 C25.965,87.699 25.992,87.73 26.026,87.757 C27.003,88.506 28.079,89.08 29.223,89.464 C30.089,89.755 30.989,89.935 31.896,89.996 C31.931,89.999 31.964,90 31.999,90 C31.999,90 31.999,90 31.999,90 C31.999,90 32,90 32,90 C32,90 32.001,90 32.001,90 C32.001,90 32.001,90 32.001,90 C32.035,90 32.07,89.999 32.103,89.996 C33.01,89.934 33.91,89.755 34.775,89.464 C35.921,89.08 36.997,88.506 37.973,87.757 C38.007,87.731 38.034,87.699 38.065,87.67 L60.882,76.784 C61.374,76.55 61.699,76.067 61.734,75.524 L63.755,43.213 C63.788,42.685 63.54,42.177 63.102,41.879 C62.664,41.582 62.101,41.537 61.623,41.761 L59.378,42.812 L59.378,41.287 C59.378,41.263 59.372,41.241 59.371,41.217 C59.37,41.191 59.374,41.166 59.371,41.14 C59.368,41.113 59.359,41.088 59.355,41.061 C59.347,41.011 59.338,40.963 59.326,40.914 C59.313,40.865 59.298,40.817 59.281,40.77 C59.265,40.726 59.247,40.684 59.227,40.642 C59.204,40.594 59.179,40.549 59.152,40.504 C59.129,40.467 59.106,40.432 59.08,40.398 C59.047,40.354 59.013,40.312 58.976,40.272 C58.949,40.243 58.921,40.215 58.891,40.188 C58.849,40.149 58.806,40.113 58.76,40.08 C58.729,40.057 58.697,40.036 58.665,40.016 C58.615,39.985 58.564,39.957 58.511,39.932 C58.477,39.916 58.443,39.902 58.408,39.888 C58.352,39.867 58.295,39.849 58.236,39.835 C58.199,39.826 58.161,39.818 58.123,39.812 C58.064,39.802 58.006,39.797 57.945,39.794 C57.922,39.793 57.901,39.787 57.878,39.787 C57.855,39.787 57.833,39.793 57.81,39.794 C57.783,39.795 57.758,39.791 57.731,39.794 C56.972,39.869 56.238,39.967 55.514,40.081 L55.514,37.753 C55.514,37.713 55.505,37.676 55.502,37.637 C55.498,37.584 55.496,37.532 55.486,37.481 C55.477,37.432 55.462,37.386 55.448,37.339 C55.434,37.292 55.422,37.244 55.404,37.199 C55.386,37.153 55.362,37.11 55.339,37.067 C55.317,37.025 55.297,36.982 55.271,36.942 C55.245,36.901 55.213,36.864 55.183,36.826 C55.153,36.788 55.125,36.75 55.092,36.716 C55.059,36.682 55.023,36.653 54.987,36.622 C54.95,36.59 54.914,36.557 54.874,36.528 C54.836,36.501 54.795,36.48 54.754,36.457 C54.711,36.432 54.668,36.406 54.622,36.385 C54.579,36.366 54.533,36.353 54.488,36.337 C54.44,36.321 54.393,36.303 54.343,36.292 C54.296,36.281 54.247,36.277 54.198,36.271 C54.156,36.266 54.116,36.255 54.074,36.253 C54.06,36.252 54.042,36.254 54.027,36.253 C54.022,36.253 54.017,36.252 54.012,36.252 C54.006,36.252 54,36.254 53.994,36.254 C51.906,36.204 46.205,38.026 39.238,43.116 C36.744,44.938 33.758,48.46 31.996,51.732 C30.231,48.456 27.246,44.933 24.76,43.116 C17.801,38.031 12.099,36.226 10.011,36.254 C10.002,36.254 9.994,36.251 9.985,36.251 C9.979,36.251 9.973,36.253 9.967,36.253 C9.954,36.253 9.936,36.252 9.923,36.252 C9.88,36.254 9.84,36.265 9.798,36.27 C9.749,36.276 9.7,36.28 9.653,36.291 C9.603,36.302 9.556,36.32 9.508,36.336 C9.463,36.351 9.417,36.364 9.374,36.384 C9.328,36.405 9.285,36.431 9.242,36.456 C9.202,36.479 9.161,36.5 9.123,36.527 C9.083,36.556 9.046,36.589 9.009,36.621 C8.973,36.652 8.937,36.681 8.905,36.715 C8.872,36.75 8.843,36.788 8.814,36.826 C8.784,36.864 8.753,36.9 8.727,36.941 C8.701,36.981 8.681,37.024 8.659,37.066 C8.636,37.109 8.613,37.152 8.594,37.198 C8.576,37.244 8.564,37.292 8.55,37.339 C8.537,37.386 8.521,37.431 8.513,37.479 C8.503,37.53 8.501,37.583 8.497,37.636 C8.494,37.675 8.485,37.712 8.485,37.751 L8.485,40.079 C7.761,39.965 7.027,39.867 6.268,39.792 C6.243,39.79 6.219,39.794 6.195,39.793 C6.17,39.792 6.147,39.786 6.122,39.786 C6.093,39.786 6.066,39.793 6.037,39.795 C5.992,39.798 5.949,39.802 5.905,39.808 C5.845,39.817 5.786,39.829 5.729,39.845 C5.696,39.854 5.664,39.864 5.632,39.875 C5.569,39.897 5.508,39.922 5.45,39.952 C5.424,39.965 5.4,39.978 5.375,39.993 C5.316,40.027 5.261,40.064 5.208,40.105 C5.184,40.123 5.162,40.142 5.139,40.162 C5.091,40.204 5.047,40.248 5.004,40.295 C4.98,40.322 4.958,40.349 4.935,40.378 C4.9,40.423 4.868,40.47 4.839,40.519 C4.817,40.555 4.797,40.592 4.778,40.631 C4.755,40.678 4.735,40.726 4.717,40.776 C4.701,40.82 4.687,40.865 4.675,40.912 C4.662,40.961 4.652,41.01 4.645,41.061 C4.641,41.088 4.632,41.112 4.629,41.14 C4.626,41.166 4.63,41.191 4.629,41.217 C4.628,41.241 4.622,41.263 4.622,41.287 L4.622,42.813 L4.623,42.813 Z M58.795,74.457 L38.194,84.286 L38.227,81.24 C38.233,80.687 37.789,80.235 37.238,80.229 C37.234,80.229 37.23,80.229 37.227,80.229 C36.679,80.229 36.233,80.669 36.227,81.218 L36.183,85.315 C36.137,85.355 36.089,85.393 36.05,85.438 C35.363,85.95 34.617,86.353 33.822,86.619 C33.231,86.818 32.618,86.938 32.001,86.989 C31.384,86.938 30.771,86.818 30.179,86.619 C29.385,86.353 28.64,85.951 27.952,85.438 C27.912,85.393 27.864,85.355 27.818,85.315 L27.573,62.45 C27.567,61.901 27.121,61.461 26.573,61.461 C26.57,61.461 26.566,61.461 26.562,61.461 C26.01,61.467 25.567,61.919 25.573,62.472 L25.806,84.286 L5.205,74.457 L3.397,45.552 L4.741,46.181 C4.871,46.242 5.006,46.276 5.141,46.298 C5.405,46.528 5.745,46.673 6.123,46.673 C6.124,46.673 6.126,46.673 6.127,46.673 L25.502,55.746 L25.545,59.75 C25.551,60.299 25.997,60.739 26.545,60.739 C26.548,60.739 26.552,60.739 26.556,60.739 C27.108,60.733 27.551,60.281 27.545,59.728 L27.514,56.779 C27.836,56.915 28.191,57.047 28.627,57.192 C29.621,57.524 31.219,57.649 31.923,57.705 L31.924,57.688 C31.957,57.691 31.987,57.706 32.02,57.706 C32.046,57.706 32.074,57.705 32.1,57.703 C32.783,57.649 34.38,57.524 35.374,57.192 C35.81,57.047 36.165,56.914 36.487,56.779 L36.255,78.507 C36.249,79.06 36.693,79.512 37.244,79.518 C37.248,79.518 37.251,79.518 37.255,79.518 C37.803,79.518 38.249,79.078 38.255,78.529 L38.499,55.745 L57.874,46.672 C57.875,46.672 57.877,46.672 57.878,46.672 C58.256,46.672 58.597,46.528 58.86,46.297 C58.995,46.275 59.129,46.242 59.259,46.181 L60.603,45.552 L58.795,74.457 Z M41.009,45.54 C46.146,41.787 50.327,40.071 52.514,39.492 L52.514,41.879 C52.514,41.881 52.515,41.884 52.515,41.886 C52.515,41.89 52.516,41.895 52.516,41.899 C52.517,41.968 52.526,42.034 52.536,42.101 C50.113,42.954 47.996,43.903 45.874,45.114 C44.632,45.823 43.349,46.626 42.061,47.5 C41.696,47.748 41.6,48.246 41.848,48.611 C42.003,48.839 42.254,48.962 42.511,48.962 C42.665,48.962 42.822,48.917 42.959,48.824 C44.213,47.973 45.461,47.192 46.667,46.504 C48.914,45.222 51.155,44.242 53.804,43.358 C53.872,43.368 53.94,43.379 54.011,43.379 C54.011,43.379 54.012,43.379 54.012,43.379 C54.012,43.379 54.012,43.379 54.012,43.379 C54.012,43.379 54.012,43.379 54.012,43.379 C54.117,43.379 54.219,43.368 54.318,43.347 C54.319,43.347 54.321,43.347 54.322,43.347 C54.999,43.204 55.682,43.088 56.375,42.987 L56.375,45.165 L37.267,54.114 C37.25,54.122 37.241,54.137 37.225,54.145 C37.208,54.154 37.19,54.154 37.174,54.163 C36.551,54.539 36.125,54.778 35.468,55.035 C36.791,53.566 38.787,51.828 41.183,50.075 C41.539,49.814 41.617,49.313 41.356,48.957 C41.096,48.603 40.597,48.522 40.238,48.784 C38.65,49.945 36.016,52.008 34.178,54.087 C35.501,51.237 38.475,47.392 41.009,45.54 Z M29.911,54.296 C27.257,51.203 22.157,47.47 18.025,45.113 C17.741,44.953 17.46,44.796 17.179,44.643 C16.789,44.432 16.305,44.579 16.094,44.966 C15.884,45.355 16.029,45.84 16.417,46.051 C16.689,46.197 16.961,46.349 17.233,46.504 C20.991,48.648 25.778,52.114 28.374,54.971 C27.805,54.737 27.396,54.508 26.825,54.163 C26.809,54.153 26.79,54.153 26.773,54.144 C26.757,54.136 26.747,54.121 26.731,54.113 L7.623,45.164 L7.623,42.986 C8.316,43.087 8.999,43.203 9.676,43.346 C9.677,43.346 9.679,43.346 9.68,43.346 C9.779,43.367 9.881,43.378 9.986,43.378 C9.986,43.378 9.986,43.378 9.986,43.378 C9.986,43.378 9.986,43.378 9.986,43.378 C9.986,43.378 9.987,43.378 9.987,43.378 C10.038,43.378 10.086,43.368 10.135,43.363 C10.783,43.579 11.41,43.798 12.01,44.029 C12.104,44.065 12.2,44.082 12.296,44.082 C12.617,44.082 12.921,43.887 13.043,43.568 C13.201,43.156 12.995,42.693 12.582,42.535 C12.215,42.395 11.84,42.259 11.46,42.125 C11.472,42.051 11.482,41.976 11.483,41.899 C11.483,41.895 11.484,41.89 11.484,41.886 C11.484,41.884 11.485,41.881 11.485,41.879 L11.485,39.484 C13.671,40.061 17.86,41.793 22.99,45.54 C25.576,47.43 28.634,51.421 29.911,54.296 Z" id="Shape"></path>
                <path d="M21.1247826,20.354 C21.103,23.814 22.752,27.11 25.535,29.17 C26.467,29.86 27.023,31.011 27.023,32.246 L27.023,33.652 C27.023,35.751 28.411,37.512 30.31,38.12 C30.309,38.143 30.303,38.164 30.303,38.187 C30.303,39.124 31.063,39.883 31.999,39.883 C32.935,39.883 33.695,39.123 33.695,38.187 C33.695,38.164 33.689,38.143 33.688,38.12 C35.587,37.512 36.975,35.751 36.975,33.652 L36.975,32.244 C36.975,31.018 37.55,29.854 38.515,29.132 C41.285,27.057 42.873,23.883 42.873,20.426 C42.873,14.285 37.794,9.325 31.562,9.561 C25.847,9.785 21.164,14.627 21.1247826,20.354 Z M32.266,35.865 L31.735,35.865 C30.516,35.865 29.524,34.873 29.524,33.653 L29.524,33.247 L30.073,33.247 C30.114,33.247 30.149,33.229 30.189,33.224 C30.229,33.229 30.264,33.247 30.305,33.247 L34.478,33.247 L34.478,33.653 C34.477,34.873 33.484,35.865 32.266,35.865 Z M31.662,12.06 C31.776,12.055 31.889,12.053 32.001,12.053 C36.618,12.053 40.375,15.81 40.375,20.427 C40.375,23.089 39.151,25.533 37.017,27.133 C35.693,28.125 34.823,29.617 34.565,31.247 L32.8,31.247 L32.8,29.594 C32.8,29.153 32.442,28.794 32,28.794 C31.558,28.794 31.2,29.152 31.2,29.594 L31.2,31.247 L30.304,31.247 C30.263,31.247 30.228,31.265 30.188,31.27 C30.148,31.265 30.113,31.247 30.072,31.247 L29.437,31.247 C29.184,29.61 28.327,28.128 27.023,27.162 C24.877,25.574 23.607,23.035 23.625,20.371 C23.654,15.96 27.26,12.231 31.662,12.06 Z" id="Shape"></path>
                <path d="M16.327,20.385 C16.88,20.385 17.327,19.938 17.327,19.385 C17.327,18.832 16.88,18.385 16.327,18.385 L13.615,18.385 C13.062,18.385 12.615,18.832 12.615,19.385 C12.615,19.938 13.062,20.385 13.615,20.385 L16.327,20.385 Z" id="Path"></path>
                <path d="M50.385,20.385 C50.938,20.385 51.385,19.938 51.385,19.385 C51.385,18.832 50.938,18.385 50.385,18.385 L47.673,18.385 C47.12,18.385 46.673,18.832 46.673,19.385 C46.673,19.938 47.12,20.385 47.673,20.385 L50.385,20.385 Z" id="Path"></path>
                <path d="M18.293,33.092 C18.488,33.287 18.744,33.385 19,33.385 C19.256,33.385 19.512,33.287 19.707,33.092 L21.625,31.174 C22.016,30.783 22.016,30.151 21.625,29.76 C21.234,29.369 20.602,29.369 20.211,29.76 L18.293,31.678 C17.902,32.068 17.902,32.701 18.293,33.092 Z" id="Path"></path>
                <path d="M45.707,5.678 C45.316,5.287 44.684,5.287 44.293,5.678 L42.375,7.596 C41.984,7.987 41.984,8.619 42.375,9.01 C42.57,9.205 42.826,9.303 43.082,9.303 C43.338,9.303 43.594,9.205 43.789,9.01 L45.707,7.092 C46.098,6.701 46.098,6.068 45.707,5.678 Z" id="Path"></path>
                <path d="M31,1 L31,3.712 C31,4.265 31.447,4.712 32,4.712 C32.553,4.712 33,4.265 33,3.712 L33,1 C33,0.447 32.553,0 32,0 C31.447,0 31,0.447 31,1 Z" id="Path"></path>
                <path d="M43.789,29.76 C43.398,29.369 42.766,29.369 42.375,29.76 C41.984,30.151 41.984,30.783 42.375,31.174 L44.293,33.092 C44.488,33.287 44.744,33.385 45,33.385 C45.256,33.385 45.512,33.287 45.707,33.092 C46.098,32.701 46.098,32.069 45.707,31.678 L43.789,29.76 Z" id="Path"></path>
                <path d="M19.707,5.678 C19.316,5.287 18.684,5.287 18.293,5.678 C17.902,6.069 17.902,6.701 18.293,7.092 L20.211,9.01 C20.406,9.205 20.662,9.303 20.918,9.303 C21.174,9.303 21.43,9.205 21.625,9.01 C22.016,8.619 22.016,7.987 21.625,7.596 L19.707,5.678 Z" id="Path"></path>
                <path d="M6.761,55.79 C6.75,55.79 6.74,55.79 6.731,55.79 C6.289,55.807 5.945,56.178 5.96,56.619 L6.002,57.74 C6.019,58.172 6.373,58.51 6.801,58.51 C6.812,58.51 6.822,58.51 6.832,58.51 C7.273,58.492 7.618,58.121 7.602,57.68 L7.56,56.561 C7.543,56.129 7.188,55.79 6.761,55.79 Z" id="Path"></path>
                <path d="M9.978,50.979 L6.773,49.52 C6.513,49.402 6.209,49.431 5.977,49.597 C5.745,49.763 5.618,50.041 5.646,50.326 C5.647,50.34 5.775,51.675 5.864,54.047 C5.881,54.479 6.235,54.817 6.663,54.817 C6.674,54.817 6.684,54.817 6.694,54.817 C7.135,54.8 7.48,54.428 7.464,53.987 C7.426,52.977 7.381,52.156 7.342,51.538 L9.317,52.437 C9.718,52.62 10.192,52.442 10.377,52.04 C10.558,51.638 10.38,51.163 9.978,50.979 Z" id="Path"></path>
                <path d="M49.976,75.13 L49.346,75.457 C48.953,75.66 48.8,76.143 49.004,76.535 C49.146,76.809 49.425,76.967 49.715,76.967 C49.839,76.967 49.964,76.939 50.082,76.877 L50.712,76.552 C51.104,76.349 51.257,75.865 51.055,75.473 C50.853,75.083 50.372,74.928 49.976,75.13 Z" id="Path"></path>
                <path d="M56.263,71.267 C55.823,71.229 55.447,71.587 55.427,72.029 L55.413,72.317 L52.005,74.082 C51.612,74.285 51.459,74.768 51.663,75.16 C51.805,75.434 52.084,75.592 52.374,75.592 C52.498,75.592 52.623,75.564 52.741,75.502 L56.558,73.526 C56.813,73.394 56.977,73.136 56.99,72.851 L57.024,72.103 C57.045,71.661 56.704,71.287 56.263,71.267 Z" id="Path"></path>
                <path d="M56.408,67.957 C56.007,67.931 55.594,68.278 55.574,68.721 L55.524,69.844 C55.503,70.285 55.846,70.658 56.288,70.678 C56.3,70.679 56.311,70.679 56.324,70.679 C56.749,70.679 57.103,70.344 57.122,69.914 L57.172,68.791 C57.191,68.35 56.85,67.977 56.408,67.957 Z" id="Path"></path>
                <path d="M31.2,24.107 L31.2,24.719 C31.2,25.16 31.558,25.519 32,25.519 C32.442,25.519 32.8,25.161 32.8,24.719 L32.8,24.107 C34.159,23.75 35.169,22.522 35.169,21.053 C35.169,19.305 33.747,17.883 32,17.883 C30.253,17.883 28.831,19.305 28.831,21.053 C28.831,22.522 29.841,23.75 31.2,24.107 Z M32,19.482 C32.865,19.482 33.569,20.186 33.569,21.052 C33.569,21.917 32.865,22.621 32,22.621 C31.135,22.621 30.431,21.917 30.431,21.052 C30.431,20.187 31.135,19.482 32,19.482 Z" id="Shape"></path>
                <path d="M32,26.114 C31.559,26.114 31.2,26.472 31.2,26.914 L31.2,27.239 C31.2,27.68 31.558,28.039 32,28.039 C32.442,28.039 32.8,27.681 32.8,27.239 L32.8,26.914 C32.8,26.473 32.441,26.114 32,26.114 Z" id="Path"></path>
            </g>
        </g>
    </g>
</svg>