<?xml version="1.0" encoding="UTF-8"?>
<svg width="44px" height="84px" viewBox="0 0 44 84" version="1.1" xmlns="http://www.w3.org/2000/svg" xmlns:xlink="http://www.w3.org/1999/xlink">
    <title>finance</title>
    <g id="screenshot" stroke="none" stroke-width="1" fill="none" fill-rule="evenodd">
        <g id="Artboard" transform="translate(-1256.000000, -2951.000000)" fill="#000000" fill-rule="nonzero">
            <g id="finance" transform="translate(1256.000000, 2951.000000)">
                <path d="M25.4,41.3 C39.6,38 38.9,25.9 38.9,25.8 L38.8,24.5 L37.5,24.4 C37.5,24.4 37.3,24.4 37.1,24.4 C35.5,24.4 27.9,24.8 23.8,32.9 L23.8,27.5 C28.4,22.3 30.4,17.2 29.8,12.2 C29,5.2 23.3,1.2 23.1,1.1 L22,0.2 L20.9,1 C20.7,1.2 15,5.2 14.2,12.2 C13.6,17.2 15.6,22.3 20.2,27.5 L20.2,32.9 C16.1,24.8 8.5,24.4 6.9,24.4 C6.6,24.4 6.5,24.4 6.5,24.4 L5.2,24.5 L5.1,25.8 C5.1,25.9 4.4,38 18.6,41.3 C13.8,42.1 9.5,44.4 6.1,48.1 C2.2,52.4 0.3,58 0.6,63.8 C1.3,74.5 10.1,83.2 20.8,83.8 C21.2,83.8 21.6,83.8 22,83.8 C22,83.8 22,83.8 22,83.8 C27.7,83.8 33.1,81.6 37.1,77.5 C41.1,73.5 43.4,68.1 43.4,62.4 C43.4,51.7 35.7,42.9 25.4,41.3 Z M16.2,12.4 C16.8,6.7 21.3,3.2 22,2.7 C22.6,3.2 27.1,6.7 27.8,12.4 C28.3,16.9 26.4,21.6 22,26.4 L22,26.4 L22,26.4 C17.6,21.6 15.7,16.9 16.2,12.4 Z M7.1,26.4 C9.4,26.4 16.3,27.3 19.4,36 C19.6,36.6 20.2,37 20.8,37 C21.3,37 21.8,36.7 22,36.4 C22.1,36.5 22.1,36.6 22.2,36.7 C22.5,36.9 22.8,37.1 23.2,37.1 C23.8,37.1 24.4,36.7 24.6,36.1 C27.6,27.3 34.6,26.5 36.9,26.5 C36.9,28.7 36.1,37.8 22.9,39.8 L22,39.8 L21.1,39.8 C8,37.7 7.1,28.6 7.1,26.4 Z M35.7,76.1 C31.8,80 26.5,82.1 20.9,81.8 C11.2,81.3 3.2,73.3 2.6,63.7 C2.3,58.4 4,53.4 7.6,49.5 C11.1,45.6 16,43.3 21.3,43.1 L22,43.1 L22.7,43.1 C33.2,43.5 41.4,52 41.4,62.5 C41.4,67.6 39.4,72.4 35.7,76.1 Z" id="Shape"></path>
                <path d="M38.6,57.1 C36.7,52.3 32.9,48.4 28.2,46.3 C27.9,46.2 27.8,45.9 27.9,45.6 C28,45.3 28.3,45.2 28.6,45.3 C33.6,47.5 37.6,51.6 39.6,56.6 C39.7,56.9 39.6,57.2 39.3,57.3 C39.2,57.3 39.2,57.3 39.1,57.3 C38.9,57.4 38.7,57.3 38.6,57.1 Z" id="Path"></path>
                <circle id="Oval" cx="39.6" cy="58.5" r="1"></circle>
                <path d="M29.6,66.3 C29.4,67.6 28.7,68.6 27.8,69.4 C27.1,70.1 26.2,70.5 25.3,70.8 C25,70.9 24.9,71 24.9,71.3 C24.9,72.2 24.9,73.2 24.9,74.1 C23.1,74.1 21.2,74.1 19.4,74.1 C19.4,73.2 19.4,72.3 19.4,71.5 C19.4,71.1 19.3,70.9 18.9,70.8 C17.5,70.4 16.4,69.6 15.5,68.5 C14.8,67.7 14.5,66.7 14.4,65.6 C16.2,65.6 18.1,65.6 19.9,65.6 C20.5,67.1 22.3,67.7 23.6,66.7 C24.3,66.1 24.4,65.2 23.7,64.6 C23.2,64.2 22.7,64.1 22.1,64.1 C20.6,64.1 19.1,63.8 17.8,63.1 C16.4,62.3 15.2,61.3 14.7,59.6 C14.1,57.6 14.9,55.6 16.7,54.3 C17.4,53.8 18.3,53.4 19.1,53 C19.4,52.9 19.5,52.8 19.5,52.5 C19.5,51.9 19.5,51.2 19.5,50.6 C21.3,50.6 23.2,50.6 25,50.6 C25,51.3 25,52 25,52.6 C25,52.9 25.1,53 25.3,53 C26.5,53.4 27.5,54 28.4,55 C29.2,55.9 29.7,57 29.7,58.2 C29.6,58.2 29.4,58.2 29.3,58.2 C27.7,58.2 26.1,58.2 24.5,58.2 C24.3,58.2 24.1,58.2 24,57.9 C24,57.8 23.9,57.6 23.8,57.5 C23.1,56.4 20.9,56.3 20.1,57.4 C19.7,57.9 19.8,58.6 20.2,59.1 C20.7,59.6 21.3,59.7 22,59.8 C24,59.8 25.8,60.3 27.4,61.5 C29,62.8 29.9,64.3 29.6,66.3 Z" id="Path"></path>
            </g>
        </g>
    </g>
</svg>