<?xml version="1.0" encoding="UTF-8"?>
<svg width="28px" height="33px" viewBox="0 0 28 33" version="1.1" xmlns="http://www.w3.org/2000/svg" xmlns:xlink="http://www.w3.org/1999/xlink">
    <title>home_icon</title>
    <g id="Page-1" stroke="none" stroke-width="1" fill="none" fill-rule="evenodd">
        <g id="home_icon" transform="translate(14.000000, 16.268293) rotate(270.000000) translate(-14.000000, -16.268293) translate(-2.000000, 3.000000)" fill="#320127" fill-rule="nonzero">
            <g id="Group" transform="translate(0.000000, 0.248905)">
                <path d="M15.9978501,0.141432195 C15.7581584,0.145724878 15.514736,0.231121951 15.278338,0.385334634 L0.449069659,12.0926517 C0.0681293268,12.4709073 -0.199667746,13.2853463 0.192972254,13.7877854 C0.585608195,14.2902244 1.41138771,14.3576195 1.88809405,13.9341268 L15.9978501,2.79996878 L30.1076062,13.9341268 C30.5843126,14.3576195 31.4275009,14.3033366 31.8027282,13.7877854 C32.1319653,13.3353756 32.050974,12.4697366 31.5466306,12.0926517 L16.7173623,0.385334634 C16.4735028,0.213970732 16.2375419,0.137143415 15.9978501,0.141432195 Z M6.63199649,11.5682615 L4.29053346,13.4219317 L4.29053346,24.7267902 C4.29053346,25.3733407 4.81471468,25.897522 5.46126517,25.897522 L12.8758989,25.897522 C13.5224494,25.897522 14.046566,25.3733407 14.0466306,24.7267902 L14.0466306,20.0438634 C14.0466306,18.9426341 14.8966248,18.0926439 15.9978501,18.0926439 C17.0990755,18.0926439 17.9490697,18.9426341 17.9490697,20.0438634 L17.9490697,24.7267902 C17.9491343,25.3733407 18.4732509,25.897522 19.1198014,25.897522 L26.5344355,25.897522 C27.180986,25.897522 27.7051672,25.3733407 27.7051672,24.7267902 L27.7051672,13.4219317 L25.3637038,11.5682615 L25.3637038,23.5560585 L20.2905335,23.5560585 L20.2905335,20.0438634 C20.2905335,17.6859707 18.3557467,15.7511805 15.9978501,15.7511805 C13.6399536,15.7511805 11.7051672,17.6859707 11.7051672,20.0438634 L11.7051672,23.5560585 L6.63199649,23.5560585 L6.63199649,11.5682615 L6.63199649,11.5682615 Z" id="Shape"></path>
            </g>
        </g>
    </g>
</svg>