<?xml version="1.0" encoding="UTF-8"?>
<svg width="60px" height="60px" viewBox="0 0 60 60" version="1.1" xmlns="http://www.w3.org/2000/svg" xmlns:xlink="http://www.w3.org/1999/xlink">
    <title>Group 18</title>
    <defs>
        <filter id="filter-1">
            <feColorMatrix in="SourceGraphic" type="matrix" values="0 0 0 0 0.721962 0 0 0 0 0.721962 0 0 0 0 0.721962 0 0 0 1.000000 0"></feColorMatrix>
        </filter>
    </defs>
    <g id="Page-1" stroke="none" stroke-width="1" fill="none" fill-rule="evenodd">
        <g id="full-page-menu" transform="translate(-165.000000, -671.000000)">
            <g id="Group-15" transform="translate(165.000000, 503.000000)">
                <g id="Group-18" transform="translate(0.000000, 168.000000)">
                    <circle id="Oval" fill="#FFFFFF" cx="30" cy="30" r="30"></circle>
                    <g filter="url(#filter-1)" id="linkedin-big-logo-svgrepo-com">
                        <g transform="translate(18.000000, 18.000000)">
                            <path d="M3.14291321,0.0165735849 C1.4112,0.0165735849 0.00126792453,1.42623396 0,3.15930566 C0,4.89237736 1.40993208,6.30230943 3.14291321,6.30230943 C4.87526038,6.30230943 6.28446792,4.89237736 6.28446792,3.15930566 C6.28446792,1.42641509 4.87516981,0.0165735849 3.14291321,0.0165735849 Z" id="Path" fill="#000000" fill-rule="nonzero"></path>
                            <path d="M5.50170566,7.5650717 L0.783758491,7.5650717 C0.559335849,7.5650717 0.377298113,7.74701887 0.377298113,7.97162264 L0.377298113,23.157283 C0.377298113,23.3817962 0.559335849,23.5637434 0.783758491,23.5637434 L5.50161509,23.5637434 C5.7261283,23.5637434 5.90816607,23.3817057 5.90816607,23.157283 L5.90816607,7.97162264 C5.9082566,7.7469283 5.72621887,7.5650717 5.50170566,7.5650717 Z" id="Path" fill="#000000" fill-rule="nonzero"></path>
                            <path d="M17.5629283,7.38629434 C15.8363774,7.38629434 14.3191245,7.91203019 13.3932679,8.7693283 L13.3932679,7.97162264 C13.3932679,7.74701887 13.2112302,7.5650717 12.986717,7.5650717 L8.46104151,7.5650717 C8.2365283,7.5650717 8.05449057,7.74701887 8.05449057,7.97162264 L8.05449057,23.157283 C8.05449057,23.3817962 8.2365283,23.5637434 8.46104151,23.5637434 L13.1744604,23.5637434 C13.3989736,23.5637434 13.5810113,23.3817057 13.5810113,23.157283 L13.5810113,15.6441962 C13.5810113,13.4885434 13.9775094,12.1524226 15.9562868,12.1524226 C17.9058113,12.1547774 18.0517132,13.5875321 18.0517132,15.7729811 L18.0517132,23.157283 C18.0517132,23.3817962 18.2337509,23.5637434 18.4583547,23.5637434 L23.1739472,23.5637434 C23.3983698,23.5637434 23.5804075,23.3817057 23.5804075,23.157283 L23.5804075,14.8272906 C23.5804075,11.3628679 22.8963623,7.38629434 17.5629283,7.38629434 Z" id="Path" fill="#000000" fill-rule="nonzero"></path>
                        </g>
                    </g>
                </g>
            </g>
        </g>
    </g>
</svg>