<?xml version="1.0" encoding="UTF-8"?>
<svg width="90px" height="48px" viewBox="0 0 90 48" version="1.1" xmlns="http://www.w3.org/2000/svg" xmlns:xlink="http://www.w3.org/1999/xlink">
    <title>noun_light rail_92923</title>
    <g id="screenshot" stroke="none" stroke-width="1" fill="none" fill-rule="evenodd">
        <g id="Artboard" transform="translate(-840.000000, -2945.000000)" fill="#000000" fill-rule="nonzero">
            <g id="Group" transform="translate(840.000000, 2945.000000)">
                <path d="M88.525,34.643 C85.233,30.095 80.7,25.514 76.297,21.249 C72.128,17.057 66.99,16.177 63.414,16.177 L57.226,16.177 L57.226,14.063 C57.226,13.732 56.958,13.464 56.627,13.464 L51.71,13.464 L45.901,7.804 L51.884,1.975 C52.121,1.744 52.126,1.364 51.895,1.127 C51.664,0.889 51.284,0.885 51.048,1.116 L44.626,7.373 C44.624,7.375 44.621,7.378 44.619,7.38 C44.57,7.429 44.53,7.485 44.502,7.545 L44.502,7.545 C44.502,7.545 44.502,7.545 44.502,7.546 L44.502,7.546 C44.502,7.547 44.501,7.547 44.501,7.548 L44.501,7.548 C44.463,7.628 44.444,7.714 44.444,7.8 C44.444,7.8 44.444,7.8 44.444,7.801 C44.444,7.801 44.444,7.801 44.444,7.802 C44.444,7.803 44.444,7.803 44.444,7.803 C44.444,7.889 44.463,7.975 44.501,8.055 L44.501,8.055 C44.502,8.06 44.502,8.056 44.502,8.057 L44.502,8.057 C44.502,8.057 44.502,8.057 44.502,8.058 L44.502,8.058 C44.53,8.118 44.57,8.173 44.619,8.223 C44.621,8.225 44.624,8.228 44.626,8.23 L49.993,13.459 L46.304,13.459 C45.973,13.459 45.705,13.727 45.705,14.058 L45.705,16.172 L29.619,16.172 L29.619,14.058 C29.619,13.727 29.351,13.459 29.02,13.459 L24.101,13.459 L18.292,7.799 L24.275,1.97 C24.512,1.739 24.517,1.359 24.286,1.122 C24.054,0.884 23.675,0.88 23.439,1.111 L17.017,7.368 C17.015,7.37 17.012,7.373 17.01,7.375 C16.961,7.424 16.921,7.48 16.893,7.54 L16.893,7.54 C16.893,7.54 16.893,7.54 16.893,7.541 L16.893,7.541 C16.893,7.542 16.892,7.542 16.892,7.543 L16.892,7.543 C16.854,7.623 16.835,7.709 16.835,7.795 C16.835,7.795 16.835,7.795 16.835,7.796 C16.835,7.796 16.835,7.796 16.835,7.797 C16.835,7.798 16.835,7.798 16.835,7.798 C16.835,7.884 16.854,7.97 16.892,8.05 L16.892,8.05 C16.893,8.055 16.893,8.051 16.893,8.052 L16.893,8.052 C16.893,8.052 16.893,8.052 16.893,8.053 L16.893,8.053 C16.921,8.113 16.961,8.168 17.01,8.218 C17.012,8.22 17.015,8.223 17.017,8.225 L22.384,13.454 L18.694,13.454 C18.363,13.454 18.095,13.722 18.095,14.053 L18.095,16.167 L0.599,16.167 C0.268,16.177 0,16.445 0,16.776 L0,44.682 C0,45.013 0.268,45.282 0.599,45.282 L5.549,45.282 C5.88,45.282 6.148,45.013 6.148,44.682 L6.148,42.973 C6.148,42.029 6.917,41.26 7.861,41.26 L9.11,41.26 C8.377,41.861 7.898,42.761 7.898,43.781 C7.898,45.586 9.366,47.054 11.171,47.054 C12.976,47.054 14.443,45.585 14.443,43.781 C14.443,42.76 13.965,41.86 13.232,41.26 L22.823,41.26 C22.09,41.861 21.612,42.761 21.612,43.781 C21.612,45.586 23.08,47.054 24.884,47.054 C26.689,47.054 28.157,45.585 28.157,43.781 C28.157,42.76 27.679,41.86 26.945,41.26 L28.194,41.26 C29.139,41.26 29.908,42.029 29.908,42.973 L29.908,44.682 C29.908,45.013 30.176,45.282 30.507,45.282 L46.765,45.282 C47.095,45.282 47.364,45.013 47.364,44.682 L47.364,42.973 C47.364,42.029 48.133,41.26 49.077,41.26 L50.326,41.26 C49.593,41.861 49.114,42.761 49.114,43.781 C49.114,45.586 50.582,47.054 52.387,47.054 C54.192,47.054 55.66,45.585 55.66,43.781 C55.66,42.76 55.181,41.86 54.448,41.26 L64.039,41.26 C63.306,41.861 62.828,42.761 62.828,43.781 C62.828,45.586 64.296,47.054 66.1,47.054 C67.904,47.054 69.373,45.585 69.373,43.781 C69.373,42.76 68.894,41.86 68.161,41.26 L69.41,41.26 C70.354,41.26 71.124,42.029 71.124,42.973 L71.124,44.682 C71.124,45.013 71.392,45.282 71.723,45.282 L83.93,45.282 L84.076,45.283 C86.407,45.282 88.309,44.174 89.297,42.242 C90.466,39.949 90.156,36.896 88.525,34.643 Z M46.902,14.662 L56.03,14.662 L56.03,16.177 L46.902,16.177 L46.902,14.662 Z M19.292,14.662 L28.421,14.662 L28.421,16.177 L19.292,16.177 L19.292,14.662 Z M11.171,45.855 C10.026,45.855 9.095,44.925 9.095,43.781 C9.095,42.637 10.026,41.705 11.171,41.705 C12.315,41.705 13.246,42.637 13.246,43.781 C13.246,44.925 12.315,45.855 11.171,45.855 Z M24.885,45.855 C23.741,45.855 22.81,44.925 22.81,43.781 C22.81,42.637 23.741,41.705 24.885,41.705 C26.03,41.705 26.961,42.637 26.961,43.781 C26.961,44.925 26.03,45.855 24.885,45.855 Z M52.388,45.855 C51.243,45.855 50.313,44.925 50.313,43.781 C50.313,42.637 51.244,41.705 52.388,41.705 C53.532,41.705 54.463,42.637 54.463,43.781 C54.463,44.925 53.532,45.855 52.388,45.855 Z M66.102,45.855 C64.957,45.855 64.027,44.925 64.027,43.781 C64.027,42.637 64.958,41.705 66.102,41.705 C67.246,41.705 68.178,42.637 68.178,43.781 C68.178,44.925 67.246,45.855 66.102,45.855 Z M46.166,42.973 L46.166,44.083 L31.106,44.083 L31.106,42.973 C31.106,41.368 29.8,40.062 28.195,40.062 L7.86,40.062 C6.255,40.062 4.949,41.368 4.949,42.973 L4.949,44.083 L1.197,44.083 L1.197,35.108 L39.137,35.107 C43.651,35.216 44.695,36.276 48.155,39.788 C48.26,39.895 48.375,40.011 48.485,40.122 C47.163,40.396 46.166,41.57 46.166,42.973 Z M88.229,41.696 C87.443,43.235 85.967,44.084 84.076,44.084 L72.324,44.083 L72.324,42.973 C72.324,41.368 71.018,40.062 69.413,40.062 L50.111,40.062 C49.719,39.668 49.35,39.294 49.008,38.948 C45.483,35.37 44.163,34.031 39.151,33.911 L1.197,33.911 L1.197,17.375 L63.415,17.375 C66.764,17.375 71.57,18.193 75.456,22.101 C79.36,25.884 83.353,29.907 86.471,33.91 L64.166,33.91 C63.835,33.91 63.567,34.179 63.567,34.509 C63.567,34.84 63.835,35.109 64.166,35.109 L87.377,35.109 C87.435,35.187 87.499,35.266 87.556,35.345 C88.929,37.243 89.199,39.795 88.229,41.696 Z" id="Shape"></path>
                <path d="M73.099,30.815 C73.277,30.972 73.464,31.137 73.665,31.309 C73.773,31.403 73.912,31.455 74.056,31.455 L81.014,31.455 C81.256,31.455 81.475,31.309 81.568,31.085 C81.661,30.861 81.609,30.604 81.438,30.433 C80.735,29.73 80.1,29.084 79.517,28.494 C74.369,23.265 73.145,22.023 65.733,21.845 L61.94,21.845 C61.61,21.845 61.341,22.113 61.341,22.444 L61.341,28.283 C61.341,28.614 61.61,28.883 61.94,28.883 L68.246,28.883 C70.9,28.882 71.59,29.487 73.099,30.815 Z M62.538,23.042 L65.718,23.042 C72.631,23.209 73.552,24.143 78.663,29.333 C78.953,29.628 79.257,29.936 79.574,30.257 L74.28,30.257 L73.889,29.916 C72.307,28.523 71.352,27.684 68.244,27.684 L62.537,27.684 L62.537,23.042 L62.538,23.042 Z" id="Shape"></path>
                <path d="M20.367,44.545 L15.689,44.545 C15.358,44.545 15.09,44.814 15.09,45.144 C15.09,45.475 15.358,45.743 15.689,45.743 L20.367,45.743 C20.698,45.743 20.966,45.475 20.966,45.144 C20.965,44.813 20.697,44.545 20.367,44.545 Z" id="Path"></path>
                <path d="M46.1,22.605 L36.028,22.605 C35.198,22.605 34.524,23.28 34.524,24.11 L34.524,29.189 C34.524,30.018 35.198,30.694 36.028,30.694 L46.1,30.694 C46.929,30.694 47.604,30.018 47.604,29.189 L47.604,24.11 C47.604,23.28 46.929,22.605 46.1,22.605 Z M46.406,29.189 C46.406,29.355 46.265,29.496 46.099,29.496 L36.028,29.496 C35.862,29.496 35.721,29.355 35.721,29.189 L35.721,24.11 C35.721,23.943 35.862,23.803 36.028,23.803 L46.1,23.803 C46.266,23.803 46.407,23.943 46.407,24.11 L46.407,29.189 L46.406,29.189 Z" id="Shape"></path>
                <path d="M31.254,22.605 L21.183,22.605 C20.353,22.605 19.679,23.28 19.679,24.11 L19.679,29.189 C19.679,30.018 20.353,30.694 21.183,30.694 L31.254,30.694 C32.084,30.694 32.758,30.018 32.758,29.189 L32.758,24.11 C32.758,23.28 32.084,22.605 31.254,22.605 Z M31.561,29.189 C31.561,29.355 31.42,29.496 31.254,29.496 L21.183,29.496 C21.017,29.496 20.876,29.355 20.876,29.189 L20.876,24.11 C20.876,23.943 21.017,23.803 21.183,23.803 L31.254,23.803 C31.42,23.803 31.561,23.943 31.561,24.11 L31.561,29.189 Z" id="Shape"></path>
                <path d="M16.409,22.605 L6.338,22.605 C5.508,22.605 4.834,23.28 4.834,24.11 L4.834,29.189 C4.834,30.018 5.508,30.694 6.338,30.694 L16.409,30.694 C17.239,30.694 17.9130011,30.018 17.9130011,29.189 L17.9130011,24.11 C17.914,23.28 17.239,22.605 16.409,22.605 Z M16.716,29.189 C16.716,29.355 16.575,29.496 16.409,29.496 L6.338,29.496 C6.172,29.496 6.031,29.355 6.031,29.189 L6.031,24.11 C6.031,23.943 6.172,23.803 6.338,23.803 L16.409,23.803 C16.575,23.803 16.716,23.943 16.716,24.11 L16.716,29.189 L16.716,29.189 Z" id="Shape"></path>
                <path d="M61.584,44.545 L56.905,44.545 C56.574,44.545 56.306,44.814 56.306,45.144 C56.306,45.475 56.574,45.743 56.905,45.743 L61.584,45.743 C61.915,45.743 62.183,45.475 62.183,45.144 C62.183,44.813 61.915,44.545 61.584,44.545 Z" id="Path"></path>
                <path d="M51.442,22.66 C51.111,22.66 50.843,22.929 50.843,23.259 L50.843,38.502 C50.843,38.833 51.111,39.102 51.442,39.102 C51.773,39.102 52.041,38.833 52.041,38.502 L52.041,23.259 C52.041,22.929 51.773,22.66 51.442,22.66 Z" id="Path"></path>
                <path d="M58.632,22.66 C58.301,22.66 58.033,22.929 58.033,23.259 L58.033,38.502 C58.033,38.833 58.301,39.102 58.632,39.102 C58.963,39.102 59.231,38.833 59.231,38.502 L59.231,23.259 C59.23,22.929 58.963,22.66 58.632,22.66 Z" id="Path"></path>
            </g>
        </g>
    </g>
</svg>