<?xml version="1.0" encoding="UTF-8"?>
<svg width="52px" height="32px" viewBox="0 0 52 32" version="1.1" xmlns="http://www.w3.org/2000/svg" xmlns:xlink="http://www.w3.org/1999/xlink">
    <title>light_icon</title>
    <g id="Page-1" stroke="none" stroke-width="1" fill="none" fill-rule="evenodd">
        <g id="light_icon" transform="translate(26.000000, 16.000000) rotate(270.000000) translate(-26.000000, -16.000000) translate(10.000000, -10.000000)" fill="#320127" fill-rule="nonzero">
            <path d="M12.38,35.28 C11.8972392,35.2897357 11.4764736,34.9531232 11.38,34.48 L10.1,28.22 C9.92440016,27.3944685 10.3235476,26.5536293 11.0741889,26.1677857 C11.8248302,25.781942 12.7408931,25.9467385 13.31,26.57 L13.45,26.73 C15.005235,25.5959962 17.114765,25.5959962 18.67,26.73 L18.67,26.73 C19.250493,26.1334017 20.155445,25.9923309 20.889986,26.3839316 C21.624527,26.7755323 22.0117894,27.6055124 21.84,28.42 L20.6,34.48 C20.5285469,34.8372656 20.2719226,35.1292728 19.9267949,35.2460254 C19.5816673,35.362778 19.2004694,35.2865384 18.9267949,35.0460254 C18.6531204,34.8055124 18.5285469,34.4372656 18.6,34.08 L19.76,28.41 C19.1000872,28.8855713 18.2099128,28.8855713 17.55,28.41 L17.43,28.32 C16.5593171,27.6913656 15.3784948,27.7117246 14.53,28.37 C13.797955,28.9358902 12.7629853,28.8849901 12.09,28.25 L13.28,34.07 C13.3330985,34.3299175 13.2807425,34.6002825 13.1344551,34.821589 C12.9881678,35.0428955 12.7599387,35.1970054 12.5,35.25 L12.38,35.28 Z" id="Path"></path>
            <path d="M19,48.7301073 L13,48.7301073 C11.1684756,48.729265 9.59520867,47.4286976 9.25,45.63 L8,39.28 C7.85972623,38.5740718 7.65898622,37.8815188 7.4,37.21 L4.27,29.21 C2.20988526,23.959908 3.89256471,17.9803054 8.38832032,14.5750564 C12.8840759,11.1698075 19.0959241,11.1698075 23.5916797,14.5750564 C28.0874353,17.9803054 29.7701147,23.959908 27.71,29.21 L24.58,37.21 C24.3210138,37.8815188 24.1202738,38.5740718 23.98,39.28 L22.78,45.63 C22.432706,47.4398383 20.8428075,48.7437233 19,48.7301073 L19,48.7301073 Z M16,14.0699917 C12.4982602,14.0656305 9.22120508,15.794183 7.24748879,18.6866982 C5.2737725,21.5792135 4.85911415,25.2609308 6.14,28.52 L9.27,36.52 C9.57742741,37.3067964 9.81175003,38.1202307 9.97,38.95 L11.18,45.3 C11.3591567,46.1552354 12.1266585,46.7582725 13,46.73 L19,46.73 C19.8708029,46.7350811 20.6203649,46.1160608 20.78,45.26 L22,38.91 C22.15825,38.0802307 22.3925726,37.2667964 22.7,36.48 L25.83,28.48 C27.0919926,25.2303588 26.6721866,21.5676108 24.7076641,18.6877767 C22.7431416,15.8079425 19.4860693,14.0806788 16,14.0699917 Z" id="Shape"></path>
            <path d="M16,52 C13.6417441,52 11.73,50.0882559 11.73,47.73 C11.73,47.1777153 12.1777153,46.73 12.73,46.73 C13.2822847,46.73 13.73,47.1777153 13.73,47.73 C13.73,48.9836864 14.7463136,50 16,50 C17.2536864,50 18.27,48.9836864 18.27,47.73 C18.27,47.1777153 18.7177153,46.73 19.27,46.73 C19.8222847,46.73 20.27,47.1777153 20.27,47.73 C20.27,48.8624744 19.8201263,49.9485656 19.019346,50.749346 C18.2185656,51.5501263 17.1324744,52 16,52 Z" id="Path"></path>
            <path d="M16,6.88 C15.4477153,6.88 15,6.43228475 15,5.88 L15,1 C15,0.44771525 15.4477153,0 16,0 C16.5522847,0 17,0.44771525 17,1 L17,5.88 C17,6.43228475 16.5522847,6.88 16,6.88 Z" id="Path"></path>
            <path d="M26.87,12.46 C26.6076601,12.4588954 26.3562606,12.3547442 26.17,12.17 C25.9806873,11.9822334 25.8742017,11.7266375 25.8742017,11.46 C25.8742017,11.1933625 25.9806873,10.9377666 26.17,10.75 L29.62,7.3 C29.8542376,6.97972782 30.2556769,6.82824289 30.6431039,6.91392711 C31.030531,6.99961132 31.3306497,7.30625435 31.4079833,7.6954343 C31.4853169,8.08461425 31.3252349,8.48270335 31,8.71 L27.55,12.17 C27.3686967,12.3499761 27.1253881,12.45374 26.87,12.46 Z" id="Path"></path>
            <path d="M5.13,12.46 C4.86419702,12.4615368 4.60871883,12.3571865 4.42,12.17 L1,8.71 C0.71462384,8.46561012 0.590318056,8.0818816 0.678189865,7.71658103 C0.766061674,7.35128045 1.05128045,7.06606167 1.41658103,6.97818987 C1.7818816,6.89031806 2.16561012,7.01462384 2.41,7.3 L5.86,10.75 C6.04931265,10.9377666 6.15579832,11.1933625 6.15579832,11.46 C6.15579832,11.7266375 6.04931265,11.9822334 5.86,12.17 C5.6664069,12.3621891 5.40270248,12.4669484 5.13,12.46 L5.13,12.46 Z" id="Path"></path>
            <path d="M22.44,41.76 L10,41.76 C9.44771525,41.76 9,41.3122847 9,40.76 C9,40.2077153 9.44771525,39.76 10,39.76 L22.44,39.76 C22.9922847,39.76 23.44,40.2077153 23.44,40.76 C23.44,41.3122847 22.9922847,41.76 22.44,41.76 Z" id="Path"></path>
        </g>
    </g>
</svg>