<svg width="15" height="24" viewBox="0 0 15 24" fill="none" xmlns="http://www.w3.org/2000/svg">
<path d="M2.13933 12C0.943151 10.7255 0.21051 9.01082 0.21051 7.125C0.21051 3.18997 3.40048 0 7.33551 0C11.2705 0 14.4605 3.18997 14.4605 7.125C14.4605 9.01082 13.7279 10.7255 12.5317 12C13.7279 13.2745 14.4605 14.9892 14.4605 16.875C14.4605 20.81 11.2705 24 7.33551 24C3.40048 24 0.21051 20.81 0.21051 16.875C0.21051 14.9892 0.943151 13.2745 2.13933 12ZM3.93114 13.3856C3.02383 14.2709 2.46051 15.5072 2.46051 16.875C2.46051 19.5674 4.64312 21.75 7.33551 21.75C10.0279 21.75 12.2105 19.5674 12.2105 16.875C12.2105 15.5072 11.6472 14.2709 10.7399 13.3856C9.72839 13.9368 8.56853 14.25 7.33551 14.25C6.10249 14.25 4.94263 13.9368 3.93114 13.3856Z" fill="black"/>
</svg>
