<?xml version="1.0" encoding="UTF-8"?>
<svg width="60px" height="60px" viewBox="0 0 60 60" version="1.1" xmlns="http://www.w3.org/2000/svg" xmlns:xlink="http://www.w3.org/1999/xlink">
    <title>Group 20</title>
    <g id="Page-1" stroke="none" stroke-width="1" fill="none" fill-rule="evenodd">
        <g id="full-page-menu" transform="translate(-165.000000, -503.000000)">
            <g id="Group-20" transform="translate(165.000000, 503.000000)">
                <circle id="Oval" fill="#FFFFFF" cx="30" cy="30" r="30"></circle>
                <g id="noun_envelope_2613392" transform="translate(16.000000, 14.000000)" fill="#000000" fill-rule="nonzero">
                    <path d="M26.974359,13.72416 C26.974359,13.6695218 26.9523132,13.6171928 26.9133867,13.5788513 L23.2616451,9.95908513 L23.6205949,8.53746051 L21.2146215,7.93001436 L13.6246154,0.406449231 C13.5444323,0.326885917 13.4150039,0.327153737 13.3351508,0.407048205 L8.91700513,4.82509949 L8.07593436,4.61275897 L7.72013949,6.02194051 L0.162724103,13.5792738 C0.142148642,13.6004817 0.126428535,13.6259083 0.116652308,13.6537928 C0.111886737,13.6773796 0.10712913,13.700968 0.102379453,13.7245579 L0.102379453,31.4479179 C0.102379453,31.502331 0.123949416,31.5545245 0.162425266,31.5930004 C0.200901116,31.6314762 0.253094633,31.6530462 0.307507692,31.6530462 L26.7692308,31.6530462 C26.8236438,31.6530462 26.8758373,31.6314762 26.9143132,31.5930004 C26.952789,31.5545245 26.974359,31.502331 26.974359,31.4479179 L26.974359,13.7245579 L26.974359,13.7243569 L26.974359,13.72416 Z M26.2708103,13.5194421 L22.3626667,13.5194421 L23.1449928,10.4210338 L26.2708103,13.5194421 Z M13.4807713,0.841546667 L20.4327959,7.73262359 L9.38016,4.9420841 L13.4807713,0.841546667 Z M8.37319795,5.11117949 L23.1221949,8.83473641 L20.3373744,19.866121 L11.5108185,28.6927097 L13.7355774,20.9394872 C13.7622188,20.8469673 13.7207685,20.7483888 13.6360164,20.7027077 L5.54241641,16.3237169 L8.37319795,5.11117949 Z M7.52418872,6.79802667 L5.82722462,13.5194297 L0.802683077,13.5194297 L7.52418872,6.79802667 Z M26.5641026,31.2427897 L0.512619487,31.2427897 L0.512619487,14.0688082 L13.2958728,20.9847754 L10.897641,29.3425477 C10.8718487,29.432419 10.9101144,29.5283577 10.9906783,29.5758083 C11.0712422,29.6232589 11.1737023,29.610205 11.2397949,29.5440697 L26.5641026,14.2197621 L26.5641026,31.2427897 Z" id="Shape"></path>
                </g>
            </g>
        </g>
    </g>
</svg>