<?xml version="1.0" encoding="UTF-8"?>
<svg width="32px" height="26px" viewBox="0 0 32 26" version="1.1" xmlns="http://www.w3.org/2000/svg" xmlns:xlink="http://www.w3.org/1999/xlink">
    <title>menu_icon</title>
    <g id="Page-1" stroke="none" stroke-width="1" fill="none" fill-rule="evenodd">
        <g id="menu_icon" fill="#320127" fill-rule="nonzero">
            <path d="M29.7142857,24.5714286 L2.28571429,24.5714286 C1.33894046,24.5714286 0.571428644,23.8039167 0.571428644,22.8571429 C0.571428644,21.910369 1.33894046,21.1428571 2.28571429,21.1428571 L29.7142857,21.1428571 C30.6610596,21.1428571 31.4285714,21.910369 31.4285714,22.8571429 C31.4285714,23.8039167 30.6610596,24.5714286 29.7142857,24.5714286 L29.7142857,24.5714286 Z M31.4285714,12.5714286 C31.4285714,11.6246547 30.6610596,10.8571429 29.7142857,10.8571429 L9.14285714,10.8571429 C8.19608329,10.8571429 7.42857143,11.6246547 7.42857143,12.5714286 C7.42857143,13.5182024 8.19608329,14.2857143 9.14285714,14.2857143 L29.7142857,14.2857143 C30.6610596,14.2857143 31.4285714,13.5182024 31.4285714,12.5714286 L31.4285714,12.5714286 Z M31.4285714,2.28571429 C31.4285714,1.33894043 30.6610596,0.571428571 29.7142857,0.571428571 L16,0.571428571 C15.0532261,0.571428571 14.2857143,1.33894043 14.2857143,2.28571429 C14.2857143,3.23248814 15.0532261,4 16,4 L29.7142857,4 C30.6610596,4 31.4285714,3.23248814 31.4285714,2.28571429 L31.4285714,2.28571429 Z" id="Shape"></path>
        </g>
    </g>
</svg>