<?xml version="1.0" encoding="UTF-8"?>
<svg width="58px" height="66px" viewBox="0 0 58 66" version="1.1" xmlns="http://www.w3.org/2000/svg" xmlns:xlink="http://www.w3.org/1999/xlink">
    <title>noun_id_2731179</title>
    <defs>
        <filter id="filter-1">
            <feColorMatrix in="SourceGraphic" type="matrix" values="0 0 0 0 0.000000 0 0 0 0 0.000000 0 0 0 0 0.000000 0 0 0 1.000000 0"></feColorMatrix>
        </filter>
    </defs>
    <g id="Page-1" stroke="none" stroke-width="1" fill="none" fill-rule="evenodd">
        <g id="full-page-menu-copy" transform="translate(-948.000000, -149.000000)">
            <g id="noun_id_2731179" transform="translate(878.000000, 149.000000)" filter="url(#filter-1)">
                <g transform="translate(70.000000, 0.000000)">
                    <path d="M2.5429688,42.9472656 C1.4755859,43.5625 0.7119141,44.5576172 0.3930664,45.7480469 C0.0742188,46.9394531 0.237793,48.1826172 0.8540039,49.25 C1.7080078,50.7285156 3.2617187,51.5556641 4.8579101,51.5556641 C5.6401367,51.5556641 6.4326171,51.3574219 7.1572265,50.9384766 C8.2246093,50.3232422 8.9882812,49.328125 9.3071288,48.1376954 C9.5825194,47.1103516 9.4776,46.0512696 9.0541991,45.0928346 L21.3210448,38.0103151 C22.9782715,40.5351562 25.8342896,42.1894531 29,42.1894531 C32.2161255,42.1894531 35.0471191,40.5255127 36.6895752,38.0164795 L48.9458008,45.0928345 C48.5223999,46.0512696 48.4174805,47.1103516 48.6928711,48.1376953 C49.0117188,49.328125 49.7753906,50.3232422 50.8427734,50.9384765 C51.5673828,51.3574218 52.3598632,51.5556641 53.1420898,51.5556641 C54.7377929,51.5556641 56.2919921,50.7285156 57.145996,49.2499999 C57.7622069,48.1826171 57.9257812,46.939453 57.6069335,45.7480468 C57.2880858,44.5576171 56.524414,43.5624999 55.4570312,42.9472656 C53.4002685,41.7576294 50.8192138,42.3568115 49.4468994,44.2282104 L37.1879272,37.1502685 C37.8233643,35.9018555 38.1894531,34.4942627 38.1894531,33 C38.1894531,31.5059814 37.8234253,30.0984497 37.1880493,28.8500977 L49.4328613,21.7803956 C50.3214721,22.9943238 51.7199707,23.6704102 53.1572265,23.6704102 C53.9399413,23.6704102 54.7324218,23.4716797 55.4570312,23.0532227 C57.6606445,21.7807618 58.4179687,18.953125 57.145996,16.75 C55.8740233,14.5473633 53.0458983,13.7900391 50.8427733,15.0610352 C48.7879027,16.2478638 48.0136107,18.7814942 48.9472045,20.9058838 L36.689331,27.9832153 C35.1329956,25.6060791 32.5072021,23.9989013 29.4999999,23.8358764 L29.4999999,9.6779174 C31.8068847,9.4248656 33.6142577,7.4874877 33.6142577,5.1142577 C33.6142578,2.5698242 31.5444336,0.5 29,0.5 C26.4555664,0.5 24.3857422,2.5698242 24.3857422,5.1142578 C24.3857422,7.4874878 26.1931152,9.4248657 28.5,9.6779175 L28.5,23.8303833 C25.5407104,23.9906006 22.8876343,25.5583496 21.3096924,27.982605 L9.0527954,20.9058838 C9.9863892,18.7814942 9.2120972,16.2478638 7.1572266,15.0610352 C4.9555664,13.7900391 2.1274414,14.5473633 0.8540039,16.75 C-0.4179688,18.953125 0.3393555,21.7807617 2.5429687,23.0532227 C3.2680664,23.4716797 4.0600585,23.6704102 4.8427734,23.6704102 C6.2799682,23.6704102 7.6784668,22.9939576 8.5670776,21.7803345 L20.8098144,28.848877 C20.6091918,29.2458497 20.4321899,29.6588746 20.2880859,30.0903321 C20.2006836,30.3520509 20.3417968,30.635254 20.6040039,30.7226563 C20.8657227,30.8105469 21.1494141,30.6684571 21.2363281,30.4067383 C22.3544922,27.0595703 25.4741211,24.8105469 29,24.8105469 C33.515625,24.8105469 37.1894531,28.484375 37.1894531,33 C37.1894531,37.515625 33.515625,41.1894531 29,41.1894531 C24.9619141,41.1894531 21.4819336,38.1748047 20.9052734,34.1767578 C20.8652343,33.9038086 20.6103515,33.7128906 20.3388672,33.7529297 C20.0654297,33.7924805 19.8759766,34.0458985 19.9155274,34.3193359 C20.0607911,35.3267822 20.3779908,36.2740478 20.8221436,37.1444702 L8.5529786,44.2282715 C7.180481,42.3577881 4.5983276,41.7595215 2.5429688,42.9472656 Z M6.6572266,50.0732422 C4.9311523,51.0683594 2.7163086,50.4755859 1.7202148,48.75 C1.2373046,47.9140625 1.1088867,46.9394531 1.3588867,46.0078125 C1.6088867,45.0751953 2.2070312,44.2958984 3.0429687,43.8125 C3.6108398,43.4853516 4.2314453,43.3291016 4.8442382,43.3291016 C6.0942382,43.3291016 7.3120116,43.9775391 7.9804687,45.1357422 C8.9770508,46.8623047 8.3833008,49.0761719 6.6572266,50.0732422 Z M50.0195312,45.1357422 C50.6879882,43.9775391 51.9057617,43.3291016 53.1557617,43.3291016 C53.7685547,43.3291016 54.3891601,43.4853516 54.9570312,43.8125 C55.7929687,44.2958984 56.3911132,45.0751953 56.6411132,46.0078125 C56.8911132,46.9394531 56.7626952,47.9140625 56.2797851,48.75 C55.2841796,50.4755859 53.0683593,51.0683594 51.3427734,50.0732422 C49.6166992,49.0761719 49.0229492,46.8623047 50.0195312,45.1357422 Z M51.3427734,15.9272461 C51.9106445,15.5991211 52.5307617,15.4438477 53.1435546,15.4438477 C54.3935546,15.4438477 55.611328,16.0917969 56.2797851,17.25 C57.2763671,18.9755859 56.6831054,21.1904297 54.9570312,22.1870117 C53.2304687,23.184082 51.0161132,22.590332 50.0195312,20.8642578 C49.0234375,19.1386719 49.6171875,16.9238281 51.3427734,15.9272461 Z M7.9804688,20.8642578 C6.9829102,22.590332 4.769043,23.1831055 3.0429688,22.1870117 C1.3168945,21.1904297 0.7236328,18.9755859 1.7202148,17.25 C2.3886718,16.0917969 3.605957,15.4438477 4.8564453,15.4438477 C5.46875,15.4438477 6.0893555,15.5996094 6.6572265,15.9272461 C8.3828125,16.9238281 8.9765625,19.1386719 7.9804688,20.8642578 Z M25.3857422,5.1142578 C25.3857422,3.121582 27.0073242,1.5 29,1.5 C30.9926758,1.5 32.6142578,3.121582 32.6142578,5.1142578 C32.6142578,7.1069336 30.9926758,8.7285156 29,8.7285156 C27.0073242,8.7285156 25.3857422,7.1069336 25.3857422,5.1142578 Z" id="Shape" fill="#000000" fill-rule="nonzero"></path>
                    <path d="M29,45.1894531 C28.7236328,45.1894531 28.5,45.4130859 28.5,45.6894531 L28.5,56.3220825 C26.1931152,56.5752563 24.3857422,58.5130005 24.3857422,60.8857422 C24.3857422,63.4296875 26.4555664,65.5 29,65.5 C31.5444336,65.5 33.6142578,63.4296875 33.6142578,60.8857422 C33.6142578,58.5130005 31.8068848,56.5752564 29.5,56.3220825 L29.5,45.6894531 C29.5,45.4130859 29.2763672,45.1894531 29,45.1894531 Z M32.6142578,60.8857422 C32.6142578,62.8789062 30.9926758,64.5 29,64.5 C27.0073242,64.5 25.3857422,62.8789062 25.3857422,60.8857422 C25.3857422,58.8925782 27.0073242,57.2714844 29,57.2714844 C30.9926758,57.2714844 32.6142578,58.8925781 32.6142578,60.8857422 Z" id="Shape" fill="#000000" fill-rule="nonzero"></path>
                </g>
            </g>
        </g>
    </g>
</svg>