<?xml version="1.0" encoding="UTF-8"?>
<svg width="55px" height="103px" viewBox="0 0 55 103" version="1.1" xmlns="http://www.w3.org/2000/svg" xmlns:xlink="http://www.w3.org/1999/xlink">
    <title>noun_sacred geometry_2045505</title>
    <g id="Page-1" stroke="none" stroke-width="1" fill="none" fill-rule="evenodd">
        <g id="portfolio" transform="translate(-32.000000, -32.000000)" fill="#9A5E84" fill-rule="nonzero">
            <g id="Group-6" transform="translate(32.000000, 32.000000)">
                <g id="noun_sacred-geometry_2045505" transform="translate(27.500000, 51.500000) rotate(90.000000) translate(-27.500000, -51.500000) translate(-24.000000, 24.000000)">
                    <path d="M11.951007,23.5123239 C12.5559324,23.5123239 13.1307002,23.6355634 13.6540227,23.8573944 C14.3724825,22.8591549 15.1299697,21.9014085 15.9247104,20.9859155 C12.8681519,18.2077465 10.1557445,14.9771127 7.91344047,11.2922535 C7.7147553,11.3609155 7.5107482,11.4172535 7.30319315,11.4630282 C7.90457059,15.9542254 9.06120213,20.0352113 10.6701972,23.7042254 C11.0764374,23.5792254 11.5075133,23.5123239 11.952781,23.5123239 L11.951007,23.5123239 Z M14.8443598,24.6161972 C14.899353,24.665493 14.9543462,24.7165493 15.0075655,24.7693662 C15.7898883,25.5457746 16.2741834,26.6179577 16.2741834,27.8028169 C16.2741834,28.9876761 15.7898883,30.0598592 15.0075655,30.8362676 C14.9454764,30.8978873 14.8816133,30.9577465 14.8159762,31.0158451 C15.5007305,31.971831 16.2209642,32.8890845 16.9731295,33.7658451 C18.9670771,32.068662 21.0993948,30.5545775 23.3434728,29.2200704 C23.189137,28.7799296 23.1057602,28.306338 23.1057602,27.8151408 C23.1057602,27.3450704 23.1820411,26.8926056 23.3221851,26.4700704 C21.0958468,25.1373239 18.972399,23.6197183 16.9802254,21.9190141 C16.235156,22.7799296 15.5220182,23.6795775 14.8461338,24.6179577 L14.8443598,24.6161972 Z M13.6167693,31.7623239 C13.1040906,31.9753521 12.5417406,32.0933099 11.951007,32.0933099 C11.5092873,32.0933099 11.0817594,32.0264085 10.6790671,31.9049296 C9.13393509,35.4102113 8.00746113,39.290493 7.38479599,43.5440141 C7.6863717,43.6126761 7.98085151,43.7042254 8.26113952,43.818662 C10.4236147,40.3697183 13.0082959,37.3292254 15.9140666,34.693662 C15.110456,33.7605634 14.3440989,32.7834507 13.6149953,31.7623239 L13.6167693,31.7623239 Z M9.41067515,31.2746479 C9.22618178,31.1426056 9.05410623,30.9947183 8.8944485,30.8362676 C8.11212564,30.0598592 7.62783053,28.9876761 7.62783053,27.8028169 C7.62783053,26.6179577 8.11212564,25.5457746 8.8944485,24.7693662 C9.05233226,24.6126761 9.22085986,24.4683099 9.40180528,24.3380282 C7.71830325,20.5176056 6.51022644,16.2693662 5.89110926,11.5915493 C4.42758009,11.540493 3.1059689,10.931338 2.13737869,9.97007042 C1.12621309,8.9665493 0.5,7.57922535 0.5,6.04753521 C0.5,4.51584507 1.12621309,3.12852113 2.13737869,2.125 C3.1485443,1.12147887 4.5464364,0.5 6.08979443,0.5 C7.63315246,0.5 9.03104456,1.12147887 10.0422102,2.125 C11.0533758,3.12852113 11.6795889,4.51584507 11.6795889,6.04753521 C11.6795889,7.57922535 11.0533758,8.9665493 10.0422102,9.97007042 C9.78143588,10.2288732 9.49405197,10.4630282 9.18538036,10.6672535 C11.3407597,14.1866197 13.9414067,17.2764085 16.866691,19.9383803 C17.501774,19.2535211 18.1581446,18.5933099 18.834029,17.959507 C27.5761766,9.74823944 39.5416362,5.69894366 51.5,5.81338028 C63.4583638,5.69894366 75.4220495,9.74647887 84.165971,17.959507 C84.8418554,18.5950704 85.498226,19.2535211 86.133309,19.9383803 C89.0585933,17.2764085 91.6592403,14.1866197 93.8146196,10.6672535 C93.505948,10.4630282 93.2185641,10.2288732 92.9577898,9.97007042 C91.9466242,8.9665493 91.3204111,7.57922535 91.3204111,6.04753521 C91.3204111,4.51584507 91.9466242,3.12852113 92.9577898,2.125 C93.9689554,1.12147887 95.3668475,0.5 96.9102056,0.5 C98.4535636,0.5 99.8514557,1.12147887 100.862621,2.125 C101.873787,3.12852113 102.5,4.51584507 102.5,6.04753521 C102.5,7.57922535 101.873787,8.9665493 100.862621,9.97007042 C99.8940311,10.931338 98.5741939,11.540493 97.1088907,11.5915493 C96.4879996,16.2693662 95.2799228,20.5176056 93.5981947,24.3380282 C93.7791401,24.4683099 93.9476677,24.6126761 94.1055515,24.7693662 C94.8878744,25.5457746 95.3721695,26.6179577 95.3721695,27.8028169 C95.3721695,28.9876761 94.8878744,30.0598592 94.1055515,30.8362676 C93.9458938,30.9947183 93.7720442,31.1426056 93.5875509,31.2746479 C95.2054158,34.9278169 96.3815611,38.971831 97.02374,43.4084507 C98.5014609,43.4507042 99.833716,44.0633803 100.809402,45.0299296 C101.820568,46.0334507 102.446781,47.4207746 102.446781,48.9524648 C102.446781,50.4841549 101.820568,51.8714789 100.809402,52.875 C99.7982365,53.8785211 98.4003444,54.5 96.8569863,54.5 C95.3136283,54.5 93.9157362,53.8785211 92.9045706,52.875 C91.893405,51.8714789 91.2671919,50.4841549 91.2671919,48.9524648 C91.2671919,47.4207746 91.893405,46.0334507 92.9045706,45.0299296 C93.0926119,44.8433099 93.2930711,44.6707746 93.505948,44.5123239 C91.4233017,41.2042254 88.9379631,38.2816901 86.1457268,35.7464789 C85.4698424,36.4788732 84.7726704,37.1830986 84.0524366,37.8573944 C75.1825629,46.1830986 63.1213086,50.153169 51.501774,49.7693662 C39.8804654,50.1549296 27.8192111,46.1848592 18.9511113,37.8573944 C18.2326516,37.1830986 17.5337055,36.4788732 16.8578211,35.7464789 C14.0638109,38.2816901 11.5802463,41.2042254 9.49759992,44.5123239 C9.71047689,44.6707746 9.91093603,44.8433099 10.0989774,45.0299296 C11.110143,46.0334507 11.736356,47.4207746 11.736356,48.9524648 C11.736356,50.4841549 11.110143,51.8714789 10.0989774,52.875 C9.08781175,53.8785211 7.68991965,54.5 6.14656162,54.5 C4.60320359,54.5 3.20531149,53.8785211 2.19414588,52.875 C1.18298028,51.8714789 0.556767192,50.4841549 0.556767192,48.9524648 C0.556767192,47.4207746 1.18298028,46.0334507 2.19414588,45.0299296 C3.16805802,44.0633803 4.50208703,43.4507042 5.97803402,43.4084507 C6.62021288,38.971831 7.79813211,34.9278169 9.4142231,31.2746479 L9.41067515,31.2746479 Z M27.4271627,23.5228873 C28.6210477,23.5228873 29.7013983,24.0035211 30.4837212,24.7799296 C30.7019201,24.9964789 30.8970573,25.2359155 31.0655849,25.4947183 C37.5122091,23.0316901 44.4998956,21.8292254 51.4964521,21.8855634 C58.4930085,21.8292254 65.480695,23.0316901 71.9273192,25.4947183 C72.0958468,25.2359155 72.2892101,24.9964789 72.507409,24.7799296 C73.2897318,24.0035211 74.3700824,23.5228873 75.5639674,23.5228873 C76.7578524,23.5228873 77.8382031,24.0035211 78.6205259,24.7799296 C78.7606699,24.9190141 78.8901701,25.0669014 79.0108004,25.2235915 C81.1360221,23.9454225 83.1672232,22.4929577 85.0724721,20.8697183 C84.4639987,20.2165493 83.8377857,19.584507 83.1902849,18.9771127 C74.7231034,11.0246479 63.1142127,7.10387324 51.5,7.2165493 L51.4893562,7.2165493 C39.8751435,7.10387324 28.2662527,11.0246479 19.7990713,18.9771127 C19.1533445,19.584507 18.5253574,20.2147887 17.9168841,20.8697183 C19.8221329,22.4947183 21.853334,23.9454225 23.9785558,25.2253521 C24.0974121,25.068662 24.2286862,24.9207746 24.3688302,24.7816901 C25.1511531,24.0052817 26.2315037,23.5246479 27.4253887,23.5246479 L27.4271627,23.5228873 Z M31.6243869,26.7852113 C31.7059898,27.1144366 31.7485652,27.459507 31.7485652,27.8133803 C31.7485652,28.2007042 31.6971199,28.5739437 31.5995513,28.931338 C37.9769905,31.3767606 44.8174371,32.4982394 51.4751644,32.2940141 C51.4875822,32.2940141 51.501774,32.2940141 51.5141918,32.2940141 C58.171919,32.4982394 65.0123656,31.3767606 71.3898049,28.931338 C71.2922363,28.5757042 71.240791,28.2007042 71.240791,27.8133803 C71.240791,27.459507 71.2833664,27.1144366 71.3649692,26.7852113 C65.0975164,24.3978873 58.3031932,23.2323944 51.5,23.2887324 L51.4893562,23.2887324 C44.684389,23.2323944 37.8918397,24.3978873 31.6243869,26.7852113 Z M31.0123656,30.209507 C30.8562559,30.4383803 30.6788584,30.6514085 30.4837212,30.846831 C29.7013983,31.6232394 28.6210477,32.1038732 27.4271627,32.1038732 C26.2332777,32.1038732 25.1529271,31.6232394 24.3706042,30.846831 C24.246426,30.7235915 24.1293436,30.5915493 24.0211312,30.4542254 C21.8710738,31.7359155 19.8239069,33.1919014 17.9115621,34.818662 C18.5590629,35.5193662 19.2278514,36.193662 19.9161536,36.8397887 C28.5057393,44.903169 40.1997809,48.7447183 51.4751644,48.3644366 C51.4893562,48.3644366 51.5053219,48.3644366 51.5195137,48.3644366 C62.7931232,48.7429577 74.4889387,44.9014085 83.0785245,36.8397887 C83.7668267,36.193662 84.4356152,35.5193662 85.0831159,34.818662 C83.1689972,33.1919014 81.1236043,31.7376761 78.9735469,30.4559859 C78.8653344,30.5933099 78.7482521,30.7253521 78.6240739,30.8485915 C77.841751,31.625 76.7614004,32.1056338 75.5675154,32.1056338 C74.3736304,32.1056338 73.2932798,31.625 72.5109569,30.8485915 C72.3140457,30.653169 72.1366482,30.4401408 71.9823124,30.2112676 C65.409736,32.7447183 58.3599603,33.9066901 51.498226,33.6989437 C44.6382657,33.9066901 37.5867161,32.7429577 31.0141396,30.2112676 L31.0123656,30.209507 Z M20.9734426,1.45774648 C22.1673276,1.45774648 23.2476782,1.93838028 24.030001,2.71478873 C24.8123239,3.49119718 25.296619,4.56338028 25.296619,5.74823944 C25.296619,6.93309859 24.8123239,8.00528169 24.030001,8.78169014 C23.2476782,9.55809859 22.1673276,10.0387324 20.9734426,10.0387324 C19.7795575,10.0387324 18.6992069,9.55809859 17.9168841,8.78169014 C17.1345612,8.00528169 16.6502661,6.93309859 16.6502661,5.74823944 C16.6502661,4.56338028 17.1345612,3.49119718 17.9168841,2.71478873 C18.6992069,1.93838028 19.7795575,1.45774648 20.9734426,1.45774648 Z M23.0259313,3.70950704 C22.5008348,3.18838028 21.7752791,2.86619718 20.9734426,2.86619718 C20.171606,2.86619718 19.4460503,3.18838028 18.9209538,3.70950704 C18.3958572,4.2306338 18.0712199,4.95070423 18.0712199,5.74647887 C18.0712199,6.54225352 18.3958572,7.26232394 18.9209538,7.7834507 C19.4460503,8.30457746 20.171606,8.62676056 20.9734426,8.62676056 C21.7752791,8.62676056 22.5008348,8.30457746 23.0259313,7.7834507 C23.5510279,7.26232394 23.8756652,6.54225352 23.8756652,5.74647887 C23.8756652,4.95070423 23.5510279,4.2306338 23.0259313,3.70950704 Z M95.0794636,11.290493 C92.8371596,14.9753521 90.1247522,18.2077465 87.0681937,20.9841549 C87.8611604,21.8996479 88.6204216,22.8573944 89.3388814,23.8556338 C89.8604299,23.6338028 90.4369717,23.5105634 91.0418971,23.5105634 C91.4889387,23.5105634 91.9200146,23.5774648 92.3244809,23.7024648 C93.931702,20.0316901 95.0901075,15.9524648 95.6914849,11.4612676 C95.4839299,11.415493 95.2799228,11.3591549 95.0812376,11.290493 L95.0794636,11.290493 Z M86.0109047,21.915493 C84.0187311,23.6161972 81.8935093,25.1320423 79.667171,26.4647887 C79.807315,26.8873239 79.883596,27.3415493 79.883596,27.8116197 C79.883596,28.3045775 79.8002191,28.7764085 79.6458833,29.2183099 C81.8881874,30.5510563 84.022279,32.0669014 86.0162267,33.7640845 C86.7701659,32.8873239 87.4903997,31.971831 88.1733799,31.0158451 C88.1077429,30.9577465 88.0438798,30.8978873 87.9817907,30.8362676 C87.1994678,30.0598592 86.7151727,28.9876761 86.7151727,27.8028169 C86.7151727,26.6179577 87.1994678,25.5457746 87.9817907,24.7693662 C88.0350099,24.7165493 88.0882292,24.665493 88.1449963,24.6161972 C87.467338,23.6778169 86.7559741,22.778169 86.0091308,21.9172535 L86.0109047,21.915493 Z M89.3743608,31.7605634 C88.6470312,32.7799296 87.8789001,33.7570423 87.0752896,34.6919014 C89.9810602,37.3274648 92.5657414,40.3697183 94.7282166,43.8169014 C95.0102786,43.7024648 95.3029845,43.6091549 95.6045602,43.5422535 C94.981895,39.2887324 93.8554211,35.4084507 92.3102891,31.903169 C91.9075968,32.0264085 91.4818428,32.0915493 91.0383492,32.0915493 C90.4476156,32.0915493 89.8852656,31.9735915 89.3725869,31.7605634 L89.3743608,31.7605634 Z M82.0159136,2.86619718 C81.214077,2.86619718 80.4885213,3.18838028 79.9634248,3.70950704 C79.4383283,4.2306338 79.1136909,4.95070423 79.1136909,5.74647887 C79.1136909,6.54225352 79.4383283,7.26232394 79.9634248,7.7834507 C80.4885213,8.30457746 81.214077,8.62676056 82.0159136,8.62676056 C82.8177502,8.62676056 83.5433059,8.30457746 84.0684024,7.7834507 C84.5934989,7.26232394 84.9181363,6.54225352 84.9181363,5.74647887 C84.9181363,4.95070423 84.5934989,4.2306338 84.0684024,3.70950704 C83.5433059,3.18838028 82.8177502,2.86619718 82.0159136,2.86619718 Z M78.9593551,2.71478873 C79.741678,1.93838028 80.8220286,1.45774648 82.0159136,1.45774648 C83.2097986,1.45774648 84.2901492,1.93838028 85.0724721,2.71478873 C85.8547949,3.49119718 86.3390901,4.56338028 86.3390901,5.74823944 C86.3390901,6.93309859 85.8547949,8.00528169 85.0724721,8.78169014 C84.2901492,9.55809859 83.2097986,10.0387324 82.0159136,10.0387324 C80.8220286,10.0387324 79.741678,9.55809859 78.9593551,8.78169014 C78.1770322,8.00528169 77.6927371,6.93309859 77.6927371,5.74823944 C77.6927371,4.56338028 78.1770322,3.49119718 78.9593551,2.71478873 Z" id="Shape"></path>
                </g>
            </g>
        </g>
    </g>
</svg>