<?xml version="1.0" encoding="UTF-8"?>
<svg width="60px" height="60px" viewBox="0 0 60 60" version="1.1" xmlns="http://www.w3.org/2000/svg" xmlns:xlink="http://www.w3.org/1999/xlink">
    <title>Group 19</title>
    <g id="Page-1" stroke="none" stroke-width="1" fill="none" fill-rule="evenodd">
        <g id="full-page-menu" transform="translate(-165.000000, -587.000000)">
            <g id="Group-15" transform="translate(165.000000, 503.000000)">
                <g id="Group-19" transform="translate(0.000000, 84.000000)">
                    <circle id="Oval" fill="#FFFFFF" cx="30" cy="30" r="30"></circle>
                    <g id="phone" transform="translate(22.000000, 14.000000)" fill="#000000" fill-rule="nonzero">
                        <path d="M14.0487805,31.9219512 L2.34146341,31.9219512 C1.09268293,31.9219512 0.117073171,30.9073171 0.0780487805,29.6585366 L0.0780487805,2.34146341 C0.0780487805,1.09268293 1.09268293,0.117073171 2.34146341,0.0780487805 L14.0487805,0.0780487805 C15.297561,0.0780487805 16.2731707,1.09268293 16.3121951,2.34146341 L16.3121951,29.6585366 C16.2731707,30.9073171 15.297561,31.8829268 14.0487805,31.9219512 Z M2.34146341,0.702439024 C1.44390244,0.702439024 0.702439024,1.44390244 0.663414634,2.3804878 L0.663414634,29.697561 C0.663414634,30.595122 1.40487805,31.3365854 2.34146341,31.3756098 L14.0487805,31.3756098 C14.9463415,31.3756098 15.6878049,30.6341463 15.7268293,29.697561 L15.7268293,2.34146341 C15.7268293,1.44390244 14.9853659,0.702439024 14.0487805,0.663414634 L2.34146341,0.663414634 L2.34146341,0.702439024 Z" id="Shape"></path>
                        <path d="M16.3121951,3.82439024 L0.117073171,3.82439024 L0.117073171,2.34146341 C0.117073171,1.09268293 1.13170732,0.117073171 2.3804878,0.0780487805 L14.0878049,0.0780487805 C15.3365854,0.0780487805 16.3121951,1.09268293 16.3512195,2.34146341 L16.3121951,3.82439024 L16.3121951,3.82439024 Z M0.702439024,3.23902439 L15.7268293,3.23902439 L15.7268293,2.34146341 C15.7268293,1.44390244 14.9853659,0.702439024 14.0487805,0.663414634 L2.34146341,0.663414634 C1.44390244,0.663414634 0.702439024,1.40487805 0.663414634,2.34146341 L0.702439024,3.23902439 L0.702439024,3.23902439 Z" id="Shape"></path>
                        <path d="M14.0487805,31.9219512 L2.34146341,31.9219512 C1.09268293,31.9219512 0.117073171,30.9073171 0.0780487805,29.6585366 L0.0780487805,28.1756098 L16.2731707,28.1756098 L16.2731707,29.6585366 C16.2731707,30.9073171 15.297561,31.8829268 14.0487805,31.9219512 Z M0.702439024,28.8 L0.702439024,29.6585366 C0.702439024,30.5560976 1.44390244,31.297561 2.3804878,31.3365854 L14.0878049,31.3365854 C14.9853659,31.3365854 15.7268293,30.595122 15.7658537,29.6585366 L15.7658537,28.7609756 L0.702439024,28.7609756 L0.702439024,28.8 Z" id="Shape"></path>
                        <path d="M6.24390244,1.56097561 L10.1463415,1.56097561 C10.3804878,1.56097561 10.5365854,1.71707317 10.5365854,1.95121951 L10.5365854,1.95121951 C10.5365854,2.18536585 10.3804878,2.34146341 10.1463415,2.34146341 L6.24390244,2.34146341 C6.0097561,2.34146341 5.85365854,2.18536585 5.85365854,1.95121951 L5.85365854,1.95121951 C5.85365854,1.71707317 6.0097561,1.56097561 6.24390244,1.56097561 Z" id="Path"></path>
                        <path d="M7.41463415,29.6585366 L8.97560976,29.6585366 C9.2097561,29.6585366 9.36585366,29.8146341 9.36585366,30.0487805 L9.36585366,30.0487805 C9.36585366,30.2829268 9.2097561,30.4390244 8.97560976,30.4390244 L7.41463415,30.4390244 C7.1804878,30.4390244 7.02439024,30.2829268 7.02439024,30.0487805 L7.02439024,30.0487805 C7.02439024,29.8146341 7.1804878,29.6585366 7.41463415,29.6585366 Z" id="Path"></path>
                        <path d="M4.37073171,1.56097561 L4.37073171,1.56097561 C4.60487805,1.56097561 4.76097561,1.71707317 4.76097561,1.95121951 L4.76097561,1.95121951 C4.76097561,2.18536585 4.60487805,2.34146341 4.37073171,2.34146341 L4.37073171,2.34146341 C4.13658537,2.34146341 3.9804878,2.18536585 3.9804878,1.95121951 L3.9804878,1.95121951 C3.9804878,1.71707317 4.13658537,1.56097561 4.37073171,1.56097561 Z" id="Path"></path>
                        <g id="Group" transform="translate(2.731707, 10.536585)">
                            <path d="M8.42926829,10.8487805 C3.86341463,10.8097561 0.195121951,7.10243902 0.156097561,2.61463415 L0.156097561,2.61463415 C0.156097561,1.32682927 1.2097561,0.312195122 2.45853659,0.312195122 C2.57560976,0.312195122 2.73170732,0.312195122 2.84878049,0.351219512 C3.23902439,0.429268293 3.55121951,0.741463415 3.62926829,1.13170732 L4.05853659,3.82439024 C4.09756098,4.09756098 3.9804878,4.37073171 3.74634146,4.52682927 C3.55121951,4.60487805 3.35609756,4.68292683 3.16097561,4.72195122 C3.74634146,6.12682927 4.87804878,7.25853659 6.28292683,7.84390244 C6.36097561,7.64878049 6.47804878,7.45365854 6.59512195,7.25853659 C6.75121951,7.06341463 6.98536585,6.94634146 7.2195122,6.98536585 L9.95121951,7.41463415 C10.3414634,7.49268293 10.6536585,7.80487805 10.7317073,8.19512195 C10.7707317,8.31219512 10.7707317,8.3902439 10.7707317,8.50731707 L10.7707317,8.50731707 C10.7707317,9.13170732 10.5365854,9.71707317 10.1073171,10.1463415 C9.67804878,10.5756098 9.05365854,10.8487805 8.42926829,10.8487805 L8.42926829,10.8487805 Z M10.1073171,8.27317073 C10.1073171,8.11707317 9.9902439,8.03902439 9.83414634,8 L7.10243902,7.53170732 C7.10243902,7.49268293 7.06341463,7.53170732 7.06341463,7.53170732 C6.94634146,7.76585366 6.82926829,8 6.7902439,8.23414634 L6.75121951,8.3902439 L6.51707317,8.54634146 L6.4,8.50731707 C4.60487805,7.88292683 3.16097561,6.43902439 2.53658537,4.64390244 L2.49756098,4.52682927 L2.65365854,4.29268293 L2.77073171,4.25365854 C3.00487805,4.21463415 3.23902439,4.09756098 3.43414634,3.9804878 C3.47317073,3.94146341 3.47317073,3.90243902 3.47317073,3.86341463 L3.04390244,1.17073171 C3.04390244,1.01463415 2.92682927,0.897560976 2.77073171,0.858536585 C2.69268293,0.819512195 2.57560976,0.819512195 2.49756098,0.819512195 C1.56097561,0.819512195 0.780487805,1.6 0.780487805,2.53658537 C0.819512195,6.7902439 4.21463415,10.2243902 8.42926829,10.2634146 L8.42926829,10.2634146 C8.93658537,10.2634146 9.36585366,10.0682927 9.71707317,9.71707317 C10.0682927,9.40487805 10.2243902,8.97560976 10.2243902,8.50731707 C10.1853659,8.42926829 10.1853659,8.35121951 10.1073171,8.27317073 Z" id="Shape"></path>
                            <path d="M10.7707317,6.0097561 L10.1853659,6.0097561 C10.1853659,3.04390244 7.80487805,0.663414634 4.83902439,0.663414634 L4.83902439,0.0780487805 C8.11707317,0.0780487805 10.7707317,2.73170732 10.7707317,6.0097561 Z" id="Path"></path>
                            <path d="M8.58536585,5.69756098 L8,5.69756098 C8,4.13658537 6.71219512,2.84878049 5.15121951,2.84878049 L5.15121951,2.26341463 C7.06341463,2.26341463 8.58536585,3.82439024 8.58536585,5.69756098 Z" id="Path"></path>
                        </g>
                    </g>
                </g>
            </g>
        </g>
    </g>
</svg>