<?xml version="1.0" encoding="UTF-8"?>
<svg width="100px" height="98px" viewBox="0 0 100 98" version="1.1" xmlns="http://www.w3.org/2000/svg" xmlns:xlink="http://www.w3.org/1999/xlink">
    <title>Shape</title>
    <g id="Home" stroke="none" stroke-width="1" fill="none" fill-rule="evenodd">
        <g id="noun_sacred-geometry_1825099" fill="#FFFFFF" fill-rule="nonzero">
            <path d="M56.8319948,15.9278645 L50.9745669,24.5738275 L57.3553733,33.9918951 L62.9320617,27.8753789 L56.834,15.9258538 L56.8319948,15.9278645 Z M9.89436591,81.152607 L10.628299,81.2772697 L18.1300579,70.2023944 L15.8781265,69.4282791 L9.89436591,81.1505963 L9.89436591,81.152607 Z M12.3588571,81.572841 L13.7545332,81.8101023 L22.8585121,71.8250204 L19.6981882,70.7392483 L12.3608624,81.5708303 L12.3588571,81.572841 Z M15.6274663,82.1298019 L17.9796617,82.529929 L28.858315,73.8859767 L24.5068537,72.3920348 L15.6294716,82.1298019 L15.6274663,82.1298019 Z M20.0972392,82.891853 L24.017565,83.5614125 L36.731051,76.5923642 L30.6530421,74.505269 L20.0952339,82.8938637 L20.0972392,82.891853 Z M26.5602622,83.9937106 L33.3922569,85.1578996 L47.5375141,80.3000748 L38.7804489,77.292084 L26.5582569,83.9916999 L26.5602622,83.9937106 Z M36.6949559,85.7229032 L50.0100264,87.9929712 L63.3250969,85.7229032 L50.0100264,81.1505963 L36.6949559,85.7229032 Z M54.7846021,88.8073003 L89.592282,94.7428544 L66.493442,86.810686 L54.7846021,88.8073003 Z M99.9595884,97.4794022 C99.9575831,97.4834236 99.9555778,97.4874449 99.9555778,97.4914663 L99.9535725,97.4954877 L99.9475567,97.5095625 L99.9435461,97.5176053 L99.9395356,97.5276587 L99.935525,97.5357015 L99.9315144,97.5457549 L99.9275039,97.5558084 L99.9234933,97.5618404 L99.9174775,97.5739046 L99.9154722,97.5779259 C99.8272398,97.7407918 99.6888754,97.8654545 99.5264475,97.9358286 L99.5244423,97.9358286 C99.5184264,97.9378393 99.5144158,97.93985 99.5084,97.9418607 L99.5043894,97.9438713 L99.4903525,97.9499034 L99.4823313,97.9519141 L99.4723049,97.9559355 L99.4642838,97.9579462 L99.4522521,97.9619675 L99.4462363,97.9639782 L99.4321993,97.9679996 L99.4281887,97.9700103 C99.4221729,97.972021 99.4181623,97.972021 99.4121465,97.9740317 L99.4101412,97.9740317 C99.4041254,97.9760424 99.4001148,97.9760424 99.3940989,97.9780531 L99.3900884,97.9780531 C99.3840725,97.9800638 99.380062,97.9800638 99.3740461,97.9820744 L99.3720408,97.9820744 C99.2697715,98.004192 99.1634915,98.0062027 99.0552063,97.9860958 L50.0060158,89.6216293 L0.956825357,97.9860958 C0.850545426,98.0062027 0.742260214,98.004192 0.639990847,97.9820744 L0.637985566,97.9820744 C0.63196972,97.9800638 0.627959157,97.9800638 0.621943312,97.9780531 L0.617932748,97.9780531 L0.601890495,97.9740317 L0.599885213,97.9740317 L0.58384296,97.9700103 L0.579832396,97.9679996 L0.565795424,97.9639782 L0.559779579,97.9619675 L0.547747889,97.9579462 L0.539726762,97.9559355 L0.529700353,97.9519141 L0.521679227,97.9499034 L0.507642255,97.9438713 L0.503631691,97.9418607 C0.497615846,97.93985 0.493605283,97.9378393 0.487589438,97.9358286 L0.485584156,97.9358286 C0.323156338,97.8654545 0.182786619,97.7428024 0.0965595054,97.5779259 L0.0945542236,97.5739046 L0.0885383785,97.5618404 L0.0845278151,97.5558084 L0.0805172517,97.5457549 L0.0765066883,97.5357015 L0.0724961249,97.5276587 L0.0684855615,97.5176053 L0.0644749981,97.5095625 L0.058459153,97.4954877 L0.0564538713,97.4914663 C0.0544485896,97.4874449 0.0524433079,97.4834236 0.0524433079,97.4794022 L0.0484327444,97.4713594 L0.044422181,97.4633167 L0.0424168993,97.4552739 L0.0404116176,97.4492418 L0.0404116176,97.4472311 C-0.00771514327,97.3024615 -0.0117257067,97.1516599 0.0223640823,97.0129223 L0.0223640823,97.0089009 C0.024369364,97.0028689 0.024369364,96.9988475 0.0263746457,96.9928154 L0.0283799274,96.988794 L0.0323904908,96.9767299 L0.0343957725,96.9727085 L0.0384063359,96.9586337 L0.0404116176,96.950591 L0.0424168993,96.9425482 L0.0464274627,96.9284734 L0.0484327444,96.9224413 L0.0504380262,96.9143985 L0.0564538713,96.9003237 L0.058459153,96.8942917 L0.0624697164,96.8842382 L0.0644749981,96.8802168 C0.0664802798,96.8741848 0.0684855615,96.8701634 0.0724961249,96.8641313 L0.0724961249,96.8641313 C0.0845278151,96.8359817 0.0985647871,96.8098427 0.114607041,96.7837038 L28.3489734,41.4636156 C28.3610051,41.3108032 28.417153,41.1600016 28.5174171,41.0313175 C28.5515069,40.989093 28.587602,40.9508899 28.6257023,40.9187189 L42.3678978,13.991571 L42.3699031,13.9875496 L49.288125,0.435505308 C49.3623204,0.290735696 49.480632,0.166072974 49.6350387,0.0876561005 C50.0280739,-0.113412806 50.5093416,0.0434209411 50.7098697,0.435505308 L99.885393,96.7837038 C99.9014352,96.8098427 99.9154722,96.8359817 99.9275039,96.8621206 L99.9275039,96.8641313 C99.9295092,96.8701634 99.9315144,96.8741848 99.935525,96.8802168 L99.9375303,96.8842382 L99.9435461,96.898313 L99.9435461,96.898313 L99.9435461,96.9003237 L99.9475567,96.9123879 L99.9515673,96.9204306 L99.9555778,96.9284734 L99.9575831,96.9365161 L99.9615937,96.9465696 L99.9615937,96.9485803 L99.9635989,96.956623 L99.9676095,96.9686872 L99.9696148,96.9747192 L99.9736254,96.988794 L99.9736254,96.9908047 L99.9736254,96.9928154 C99.9756306,96.9988475 99.9756306,97.0028689 99.9776359,97.0089009 L99.9776359,97.0089009 C100.011726,97.1496492 100.007715,97.3004508 99.9595884,97.4452205 L99.9595884,97.4452205 L99.9575831,97.4512525 L99.9555778,97.4592953 L99.9515673,97.467338 L99.9475567,97.4753808 L99.9595884,97.4794022 Z M45.2354507,88.8073003 L33.5266108,86.810686 L10.4277708,94.7428544 L45.2354507,88.8073003 Z M30.2239118,86.2476931 L24.2942938,85.2363165 L9.4130983,93.393682 L30.2259171,86.2456824 L30.2239118,86.2476931 Z M21.7536019,84.8040183 L18.4107973,84.2349933 L8.66111766,91.9821783 L21.7515966,84.806029 L21.7536019,84.8040183 Z M16.2932198,83.8730693 L14.344086,83.5413056 L8.11768632,90.3716163 L16.2952251,83.87508 L16.2932198,83.8730693 Z M12.4711529,83.221606 L11.3702532,83.034612 L7.69457188,88.4614617 L12.4711529,83.221606 Z M9.63969514,82.7390407 L9.13035358,82.652581 L7.39578491,86.0506455 L9.63969514,82.7390407 Z M16.6160702,67.986615 L19.0645191,68.827083 L26.3015808,58.1442921 L22.657984,56.1476778 L16.6160702,67.986615 Z M20.6306442,69.3659477 L24.0376178,70.5361687 L32.3254471,61.4478542 L27.7112939,58.9184074 L20.6326494,69.3679584 L20.6306442,69.3659477 Z M25.6859593,71.1011724 L30.3502446,72.7036916 L39.5404506,65.4008689 L33.7672446,62.2360443 L25.6859593,71.1011724 Z M32.146977,73.3189624 L38.6380739,75.5488166 L48.3456426,70.2285333 L41.0644647,66.2373155 L32.1489823,73.3209731 L32.146977,73.3189624 Z M40.6854665,76.2505471 L50.0100264,79.4535747 L59.3345863,76.2505471 L50.0100264,71.1393755 L40.6854665,76.2505471 Z M52.4805335,80.3020855 L66.6257906,85.1599103 L73.4577854,83.9957213 L61.2355934,77.2961054 L52.4785282,80.3040962 L52.4805335,80.3020855 Z M69.7941357,86.2476931 L90.6069545,93.3956927 L75.725759,85.2383272 L69.796141,86.2497038 L69.7941357,86.2476931 Z M23.3879065,54.7180779 L27.2039576,56.8112052 L34.1662957,46.5345734 L29.4699259,42.8027345 L23.3879065,54.7180779 Z M28.6136706,57.5833098 L33.4363731,60.2273659 L40.9822482,51.9513698 L35.421602,47.5338859 L28.6116653,57.5853205 L28.6136706,57.5833098 Z M34.8801759,61.0175667 L40.9020369,64.3191182 L48.7246408,58.1020676 L42.2375545,52.9466608 L34.8801759,61.0175667 Z M42.4240457,65.1535541 L50.0120317,69.3136698 L57.6000177,65.1535541 L50.0120317,59.1234976 L42.4240457,65.1535541 Z M51.6784208,70.2265226 L61.3859895,75.5468059 L67.8770864,73.3169517 L58.9616039,66.2332942 L51.6804261,70.2245119 L51.6784208,70.2265226 Z M63.2890019,76.5903535 L76.0024879,83.5594018 L79.9228136,82.8898423 L69.3650054,74.5012476 L63.2869966,76.5883428 L63.2890019,76.5903535 Z M78.2684562,84.8020076 L91.3589352,91.9781569 L81.6092555,84.2309719 L78.2664509,84.799997 L78.2684562,84.8020076 Z M30.2138854,41.3469956 L35.0686724,45.205508 L41.7442552,35.3511209 L36.3139524,29.3954599 L30.2138854,41.3469956 Z M36.3239788,46.2028097 L42.0651003,50.7650632 L48.9311849,43.2350327 L42.853176,36.5675877 L36.3259841,46.2028097 L36.3239788,46.2028097 Z M43.3184014,51.7603543 L50.0120317,57.0786269 L56.705662,51.7603543 L50.0120317,44.4193285 L43.3184014,51.7603543 Z M51.2974173,58.1000569 L59.1200212,64.3171075 L65.1418821,61.015556 L57.7845036,52.9446502 L51.2974173,58.1000569 Z M60.4816075,65.3968475 L69.6718135,72.6996702 L74.3360988,71.097151 L66.2548135,62.2320229 L60.4816075,65.3968475 Z M71.1617378,73.883966 L82.0403911,82.5279183 L84.3925865,82.1277912 L75.5152044,72.3900241 L71.1637431,73.883966 L71.1617378,73.883966 Z M83.726833,83.8690479 L91.9043718,90.3655843 L85.6779721,83.5352735 L83.7288383,83.8670372 L83.726833,83.8690479 Z M37.0899964,27.8733682 L42.6666848,33.9898844 L49.0474912,24.5718168 L43.1900633,15.9258538 L37.0920017,27.8753789 L37.0899964,27.8733682 Z M43.7736003,35.2043406 L50.0120317,42.0467154 L56.2504631,35.2043406 L50.0120317,25.9973953 L43.7736003,35.2043406 Z M51.0928785,43.233022 L57.9589631,50.7630525 L63.7000846,46.200799 L57.1728927,36.5655771 L51.0948838,43.233022 L51.0928785,43.233022 Z M59.0398099,51.9493591 L66.585685,60.2253552 L71.4083875,57.5812991 L64.5984508,47.5298645 L59.0378046,51.9473484 L59.0398099,51.9493591 Z M67.696611,61.4438328 L75.9844403,70.5321474 L79.3914139,69.3619263 L72.3127695,58.9123753 L67.6986163,61.4418221 L67.696611,61.4438328 Z M77.1615407,71.8250204 L86.2655196,81.8101023 L87.6611957,81.572841 L80.3238699,70.741259 L77.163546,71.8270311 L77.1615407,71.8250204 Z M87.5488999,83.2175847 L92.3254809,88.4574404 L88.6497996,83.0305906 L87.5488999,83.2175847 Z M44.0182447,14.2992064 L50.0120317,23.1462383 L56.0058187,14.2992064 L50.0120317,2.55477158 L44.0182447,14.2992064 Z M58.2798082,35.3511209 L64.955391,45.205508 L69.810178,41.3469956 L63.710111,29.3954599 L58.2798082,35.3511209 Z M65.8557624,46.5325627 L72.8181005,56.8091945 L76.6341516,54.7160672 L70.5521322,42.8007238 L65.8557624,46.5325627 Z M73.7204773,58.1402707 L80.957539,68.8230617 L83.4059879,67.9825936 L77.3640741,56.1436564 L73.7204773,58.1402707 Z M81.8899949,70.2003837 L89.3917538,81.275259 L90.1256869,81.1505963 L84.1419263,69.4282791 L81.8899949,70.2023944 L81.8899949,70.2003837 Z M90.382363,82.7350193 L92.6262732,86.0466242 L90.8917045,82.6485597 L90.382363,82.7350193 Z" id="Shape"></path>
        </g>
    </g>
</svg>