<?xml version="1.0" encoding="UTF-8"?>
<svg width="111px" height="467px" viewBox="0 0 111 467" version="1.1" xmlns="http://www.w3.org/2000/svg" xmlns:xlink="http://www.w3.org/1999/xlink">
    <title>Shape</title>
    <defs>
        <rect id="path-1" x="0" y="0" width="111" height="467"></rect>
    </defs>
    <g id="Page-1" stroke="none" stroke-width="1" fill="none" fill-rule="evenodd">
        <g id="Shape">
            <mask id="mask-2" fill="white">
                <use xlink:href="#path-1"></use>
            </mask>
            <g id="Mask"></g>
            <path d="M115.503195,517.888247 C115.316675,516.310306 93.8399383,330.041888 93.8096458,328.464627 C93.7759496,328.640067 93.7422534,328.818907 93.7126415,329.001827 C93.7490607,327.417087 89.7276397,294.768909 89.7072177,292.652748 C89.6810096,292.760868 89.6548014,292.872728 89.6306354,292.988669 C89.4202894,290.354007 76.921039,182.909871 76.8090587,180.518309 C76.7774046,180.699189 76.7491543,180.880069 76.7212443,181.06673 C76.7212443,181.06673 74.4683636,164.875241 74.0714971,144.45449 C74.6654353,144.43205 75.2610753,144.38751 75.8587576,144.39499 C76.5085157,144.39669 77.0537816,144.870651 77.7076242,144.866911 C79.2654781,144.85739 90.9097298,144.34297 91.7541772,144.25117 C91.7466891,144.02167 91.7429451,143.79795 91.7392011,143.57219 C72.2699414,135.903486 77.3022486,137.497407 73.8720428,137.390307 C73.8083944,136.379146 73.937393,135.351325 73.7059444,134.359205 C73.1960765,134.374165 72.6862087,134.385385 72.178383,134.385385 C72.1205208,135.426126 72.1971031,136.467206 72.1971031,137.509987 L71.8162339,137.511687 C71.5248808,135.075585 71.1868976,132.639144 71.0112689,130.191823 C70.987103,130.298243 70.9646388,130.406363 70.9421747,130.514483 C70.7723322,127.718321 70.2716542,124.94834 70.0776458,122.153879 C76.9227408,119.370297 76.0925888,119.524997 78.6320575,118.201036 C78.9196665,118.141536 78.6449914,117.869196 78.6058493,117.727076 C77.121174,115.339255 75.5340487,113.011274 74.1222116,110.580612 C74.7794578,110.226332 75.4350022,109.864232 76.0772723,109.480032 C77.9036748,111.839633 79.6197988,114.285254 81.4125051,116.669336 C83.3525897,115.188295 85.3171806,113.738874 87.2463735,112.242873 C95.469269,115.754395 90.6047621,114.751395 95.3470777,114.914255 C95.2558597,112.173853 95.9573535,114.723175 93.2967146,105.56289 C93.4536232,105.65979 93.6142758,105.75703 93.7749285,105.85393 C101.572367,95.8446647 97.9137757,100.806627 101.19422,95.5978246 C98.5536632,94.467324 95.8868978,93.3929234 93.2279608,92.3073028 C93.7265965,91.2961423 94.2980706,90.3244218 94.8395925,89.3357013 C97.5509458,90.1789017 100.253109,91.0537222 102.966505,91.8836626 C105.189093,86.6942399 106.689425,83.5648782 107.229926,80.4059366 C104.363366,80.1223764 101.485914,79.9618963 98.6173116,79.6970362 C98.8433144,78.4492355 99.1533876,77.2177549 99.4651626,75.9903542 C102.380055,75.9791342 105.293245,75.9362942 108.208477,75.9230342 C109.559729,65.7376488 109.082536,67.6385898 109.159119,64.3147481 C108.260213,64.3905681 100.74732,66.1619691 100.406614,66.2435691 C100.37496,64.8818684 100.238474,63.5256077 100.20682,62.1639069 C103.134986,61.1772264 106.074044,60.2255659 109.02093,59.2929454 C107.818078,51.5987414 107.123732,50.5002008 106.651304,48.6118398 C105.851104,48.8460999 98.8984537,52.863542 98.558088,53.0627822 C98.0594522,51.7364415 97.5870246,50.3988808 97.1482931,49.05044 C99.8729208,47.1794191 102.58053,45.2842581 105.327622,43.4431571 C105.062137,42.8291168 102.148606,37.7070141 99.969925,34.7204525 C99.9195509,34.7150125 99.8167604,34.7037925 99.7643441,34.6980125 C97.5346082,36.8729936 95.3518429,39.1040748 93.1592069,41.320196 C92.3675162,40.1971754 91.4992432,39.1265148 90.7109562,37.9997542 L90.6830462,37.8263541 C92.9352462,35.0822127 95.2657303,32.3979113 97.4879781,29.6258898 C94.6489876,27.4832087 90.3365539,24.0036468 89.5441825,23.6306667 C87.9495691,26.4251281 86.3883116,29.2416896 84.7375378,32.0045311 C83.702826,31.1035306 82.5265221,30.3871502 81.4135262,29.5908698 C82.9679764,25.8869078 85.8328347,20.1800048 86.1136364,19.1185243 C86.1129557,19.1181843 76.5956493,16.4230029 76.5956493,16.4230029 C75.8747547,19.5625645 74.9673397,22.6552061 74.1848389,25.7798078 C72.9336545,25.2259475 71.60793,24.8937673 70.3101155,24.4701271 C70.4428582,23.7510267 72.2328415,13.7417614 72.2801523,12.7554209 C69.2345599,13.0128011 66.2093893,13.6210614 63.1392905,13.5129413 C62.8217293,13.5670014 62.3921877,13.3878213 62.156995,13.6713814 C62.1158108,16.8259031 62.2465112,19.9783847 62.2522974,23.1325664 C61.0981173,22.9795663 59.9330454,22.9795663 58.7713772,23.0261463 C58.4446261,19.0175442 58.0804348,15.0106421 57.7724038,11 C56.4980745,11.3614202 54.2887606,12.7034009 50.958282,14.0984216 C49.9385463,14.4676618 48.8983887,14.773662 47.865719,15.0963222 C48.6461777,18.1032837 49.5239809,21.0861053 50.3623016,24.0781069 C49.1822537,24.4211671 47.9514912,24.5891272 46.8122871,25.0630874 C45.3425879,21.3081254 43.9702334,17.5157634 42.5304863,13.7512814 C41.6223906,14.2436017 40.2064692,15.9092626 37.6564492,18.1332038 C36.5172451,19.2524843 35.1428483,20.0824248 33.8263137,20.9722053 C35.2789946,23.6099266 37.086677,26.0480679 38.5526321,28.6783093 C37.5591046,29.2212896 36.6404575,29.90401 35.6002999,30.3572302 C33.2173994,27.1748285 30.8161193,24.0056868 28.3995226,20.8474252 C27.7276407,21.5947456 25.9080455,25.0243274 23.8672127,28.049649 C23.1987344,28.9822695 22.3416935,29.7714099 21.7048692,30.7264704 C21.9376794,31.0477706 27.6207659,35.8234131 27.9250528,36.0784132 C28.3668475,36.5068134 28.5635789,36.2246133 26.2051848,38.6749946 C25.8644787,38.4264544 17.1548602,32.0885111 16.4274987,31.800871 C12.1807556,45.5790382 14.4489528,38.2629144 12.3584265,43.4876971 C15.0139599,44.5770577 17.6620052,45.6888583 20.3209422,46.7690388 C19.9288409,47.5693993 19.4938535,48.3473197 19.0884779,49.1419001 C15.3049725,47.9556395 11.5555037,46.6626188 7.76655252,45.4950582 C7.51263969,47.091699 7.64334012,48.7202999 7.47724165,50.3264607 C7.18895189,56.8157041 6.93197576,55.3754634 6.59024858,58.2338449 C9.42685651,58.487485 12.2726543,58.6721051 15.1075604,58.9240452 C15.1354704,59.6645656 14.8628375,60.373466 14.7021848,61.0861064 C10.745093,61.0599264 6.78800106,61.0208263 2.83124954,61.0058663 C3.63995849,66.6668693 4.0807321,65.7087488 4.78460842,73.8007531 C7.66614463,73.2523328 10.4969663,72.4482324 13.3839484,71.9372121 C13.3914365,72.5247324 13.4064125,73.1142927 13.4213886,73.705553 C9.63618143,74.8098736 5.85471825,75.9328942 2.06576703,77.0314348 C2.07121288,77.0582948 6.1035256,85.8962594 7.0497423,88.9586411 C7.831222,88.7454609 11.8346036,86.3260197 15.001026,84.6365588 C15.1225365,85.106779 15.2624268,85.5729193 15.4268235,86.0298795 C12.1123421,88.1712006 8.7825442,90.2904218 5.43811061,92.3872029 C5.44151426,92.3943429 11.5629918,100.071887 13.3148542,102.687848 C15.7825057,100.338107 19.2283682,96.6926251 19.9608353,96.1833049 C20.5510294,97.7690657 22.2007821,95.5084045 12.7396361,105.92635 C16.1776703,108.517491 19.6769703,111.028053 23.0309341,113.729354 C24.6088696,111.048793 26.1381328,108.338311 27.6919023,105.64279 C28.0710697,105.87603 28.8048982,106.17829 28.4648729,106.73045 C24.0339919,115.495995 23.8018624,115.669735 23.5387597,116.527556 C28.4601077,118.432577 34.4702857,120.994138 35.5032956,121.200518 C36.2541424,118.161936 37.1186714,115.149195 37.906618,112.117753 C38.2857854,112.279933 38.6646125,112.444153 39.0437799,112.604634 C38.4052538,116.184155 37.4787783,119.709957 36.8402522,123.289479 C41.1074173,123.742699 45.350076,124.44412 49.637663,124.66988 C49.641407,121.558198 49.6226869,118.448897 49.6247291,115.337215 C50.1175787,115.398755 50.6107686,115.462335 51.1073622,115.506875 C51.5433707,123.199719 51.8262146,118.877977 49.7254774,136.494406 C49.613497,137.193786 49.633919,137.917647 49.4211904,138.598667 C44.4692095,138.774107 21.8791365,139.840688 21.201128,139.921268 C21.2103178,140.156208 21.2215499,140.395228 21.2310801,140.633908 C44.4276849,148.387272 35.489681,146.621991 48.5491734,146.229971 C48.116909,150.267473 43.9767003,185.042012 39.0607982,226.753574 L39.0757743,226.725694 C38.7531076,229.427675 27.2344508,326.323646 26.9434381,329.710388 C26.9209739,329.598528 26.8985098,329.490408 26.8780879,329.385688 C26.6993958,331.787789 10.0490451,471.802923 2.85779806,533.139295 C-1.72080164,533.734975 -1.41651468,535.193236 -1.44150568,537.000677 C-1.42774675,545.968522 -1.47982271,545.579222 -1.3627369,546.046042 C0.126363137,547.545783 7.58990271,547.500223 9.3822686,545.977022 C9.72263433,545.699582 9.65898594,545.842042 9.60997327,535.883436 C9.62052461,533.881515 7.61270721,533.376275 5.74648195,533.130115 C7.13959886,521.573849 8.48234163,510.014183 9.8529944,498.456217 C11.8553659,498.602077 34.7163701,500.375178 38.0151947,500.692738 C37.8096138,504.35998 37.6714253,508.031302 37.4736728,511.700584 C32.8855429,512.271784 33.6129044,512.881064 33.7051435,523.01987 C33.6796161,524.748431 42.5247001,524.769851 43.7758845,523.23067 C44.1785372,512.160264 43.8718677,512.140204 40.2108939,511.704324 C40.3004101,508.092842 40.5601092,504.49088 40.6816197,500.881438 C47.0682422,501.359138 53.4545242,501.847719 59.8357008,502.390699 C59.8357008,506.807981 59.8319568,511.223223 59.8374026,515.640506 C55.3415118,515.977106 50.9395619,516.728506 50.9337757,521.326329 C50.9276491,538.599698 50.664206,537.417517 51.7683524,538.088678 C54.5801137,539.740398 61.9629866,539.789019 62.4796617,539.364698 C62.4871498,539.417058 62.5021259,539.519398 62.5096139,539.570058 C61.2958697,539.747198 60.0576192,539.409578 58.8438751,539.696878 C60.276134,539.545918 61.7104352,539.719318 63.1352061,539.838659 L62.4313298,539.620378 C63.5637266,539.519738 71.1331199,539.033538 70.7617809,536.807217 C70.7679074,519.100008 72.8911088,516.213406 61.9197601,515.651726 C61.9122721,511.283063 61.9180583,506.914061 61.9180583,502.545399 C63.9592315,502.655559 65.9946185,502.877579 68.0357918,503.002359 C68.1178199,506.705301 68.2822166,510.406203 68.3421209,514.110845 C68.5602954,512.351344 68.4200647,512.201064 68.4336793,516.588086 C68.8128467,516.638406 69.1899719,516.692466 69.5691394,516.757746 C70.0419074,516.266106 70.2005178,517.353087 69.8063743,508.923122 C74.0323551,509.227082 78.2488057,509.646983 82.4785305,509.904363 C82.5837035,510.587763 84.0391073,538.900258 84.0135799,540.562179 C80.1381758,540.922239 80.0251744,542.52432 80.02109,544.078461 C80.0272166,553.851086 79.9046849,553.620226 80.2450506,553.853126 C81.6722041,555.000835 86.3825253,555.404207 89.8454062,554.519186 C91.8222503,553.882706 91.3940702,554.685786 91.3746694,543.5263 C91.4427425,541.270739 89.2446607,540.874639 87.1412005,540.511859 C86.9485535,537.880937 85.8399824,515.852666 85.7555717,513.112944 C85.7201736,513.362845 85.6864774,513.611045 85.6548234,513.875905 C85.7222158,510.298083 85.2906321,506.731481 85.2423002,503.157399 C95.1193731,496.497136 107.947417,487.636391 109.148908,486.958091 C110.37967,497.260776 111.511046,507.574342 112.732618,517.879067 C108.309226,518.564847 108.961707,518.948368 109.162182,529.709373 C110.082531,531.330834 119.632512,531.369594 119.4722,529.554673 C119.501472,519.162908 120.420459,518.469647 115.503195,517.888247 Z M81.2494699,399.094224 C81.8488539,397.850164 82.4802323,396.616983 83.1337345,395.400802 C85.6510794,403.744747 88.123496,412.103651 90.6408409,420.447596 C90.8753529,421.540696 88.6445959,442.260987 88.6071557,442.600987 C86.4856562,438.624005 84.2841707,434.689863 82.151439,430.720361 C82.0203982,430.219201 81.1841197,399.518885 81.2494699,399.094224 Z M81.0496752,481.332108 C79.1058466,481.223988 77.1654216,481.037328 75.2215929,480.932948 C74.0357587,478.394166 72.8386925,475.862865 71.7144645,473.297903 C74.7209149,473.484564 77.7256635,473.712024 80.732114,473.896644 C80.8107385,476.377285 81.0200634,478.849086 81.0496752,481.332108 Z M80.963903,388.022799 C82.7950706,394.979202 83.0745109,392.226221 81.1507638,396.208303 C81.0180212,393.482861 80.9060409,390.75028 80.963903,388.022799 Z M81.2028398,484.111269 C81.2120296,484.221429 81.2270057,484.443449 81.2344938,484.555309 C79.7236103,484.519949 78.2205553,484.348249 76.7134159,484.270049 C76.6722316,484.094609 76.6351318,483.924949 76.5976915,483.760729 C78.1272951,483.930389 79.6698326,483.973229 81.2028398,484.111269 Z M81.3355824,485.96563 C81.3709804,488.237851 81.7035177,490.513473 81.5261872,492.789434 C81.5823475,492.343694 81.6419116,491.905093 81.6980719,491.468533 C81.6140016,492.679274 81.7746542,493.891714 81.7355121,495.106195 C80.3219733,491.962893 78.8560181,488.844072 77.4125271,485.71403 C78.7212333,485.74735 80.0319817,485.81807 81.3355824,485.96563 Z M91.8695612,424.676178 C93.9600874,431.517661 107.597861,477.154186 107.699631,477.494866 C101.796668,466.79676 95.9910497,456.046634 90.1125933,445.335609 C89.6895187,444.739928 91.8328017,425.016858 91.8695612,424.676178 Z M107.305487,471.413622 C89.1023878,405.937408 91.5499577,431.904242 94.103041,401.392286 C94.127207,401.494966 94.1534152,401.601386 94.1796233,401.713246 C94.2521212,399.706225 96.2327094,380.064754 96.5512917,377.293413 C107.591394,473.755544 107.189082,469.118281 107.305487,471.413622 Z M92.4818791,404.367627 C92.4464811,404.180967 92.4127848,404.000087 92.3811308,403.822947 C92.4366104,404.867767 91.2698368,416.034733 91.1636426,417.067314 C91.0577889,416.724254 84.1211355,393.978242 84.1851242,393.277841 C88.0264918,385.661497 91.8845372,378.052633 95.7425827,370.445469 C95.6476207,372.62793 92.7310268,400.628645 92.4818791,404.367627 Z M83.5016699,391.48706 C80.1184346,380.176274 80.7702349,384.390237 80.4336132,372.21755 C85.4271188,370.755209 90.4373022,369.356109 95.4287655,367.897168 C93.6166584,371.55455 84.2229048,390.19302 83.5016699,391.48706 Z M80.3869831,369.228949 C80.368263,368.477208 80.3161871,367.727168 80.2654726,366.981207 C82.6596051,367.018608 85.0496532,367.139648 87.4437857,367.212408 C85.1150034,367.958708 82.7304011,368.522088 80.3869831,369.228949 Z M95.0458541,364.696066 C94.5359862,364.684846 94.0114826,364.617866 93.5220367,364.798746 C93.570709,364.746386 93.6677133,364.644046 93.7180874,364.591686 C93.8579777,364.578766 94.1401409,364.556326 94.2820734,364.543066 C94.2820734,364.543066 94.8549089,364.690966 80.2188425,364.203406 C80.0541055,357.835883 79.1150364,335.199351 80.4353151,328.417707 C83.5663393,336.610011 94.9182169,362.296345 95.0458541,364.696066 Z M78.2018352,289.334347 C80.9785388,302.765034 81.2406204,294.137869 79.2436947,322.113084 C78.8686116,321.209363 78.1259336,290.313207 78.2018352,289.334347 Z M66.6314428,400.715005 C70.1065768,400.817685 73.5745632,401.033925 77.047655,401.140345 C77.040167,402.106626 77.2661698,403.074946 77.1691656,404.039187 C75.8938152,406.667388 74.5211203,409.25105 73.2270498,411.873811 C72.7787881,411.862591 72.3308668,411.855111 71.8826052,411.855111 C65.78189,401.279066 66.7049618,402.344626 66.6314428,400.715005 Z M61.9442664,329.352368 C63.0337771,333.17601 62.8666576,330.958529 63.0477321,334.04743 C64.0167533,368.023648 64.8043596,363.781806 61.9068262,363.643766 C61.9006996,327.870987 61.8898079,330.219368 61.9442664,329.352368 Z M62.5960668,318.583542 C62.6409951,321.558884 62.8237715,324.532185 62.8220696,327.509567 C62.3867419,325.921426 60.8823254,323.818865 62.5960668,318.583542 Z M61.9330344,295.79775 C62.5225478,317.653642 62.7267672,313.713039 61.9442664,316.188241 C61.8721089,312.802519 61.9037629,296.51957 61.9330344,295.79775 Z M63.7744129,152.025954 C64.0283258,152.020514 64.2805368,152.016774 64.5361514,152.016774 C64.7192682,155.887336 64.941527,159.756198 65.1093273,163.6288 C64.0487477,163.68286 62.9823819,163.63254 61.9292903,163.79302 C61.6699317,159.511398 61.9514141,159.108498 63.7744129,152.025954 Z M61.9163565,144.939331 C62.5831329,144.72853 63.3561035,144.870311 64.062022,144.79755 C63.5838081,146.866452 63.0480725,148.921753 62.5307166,150.981474 C62.317988,150.986914 62.1069613,150.994394 61.8959345,151.003914 C61.9071666,148.981933 61.8601961,146.959612 61.9163565,144.939331 Z M77.5857732,62.5804072 C77.6565693,62.9217673 77.7294076,63.2631275 77.800544,63.6065277 C76.8611346,63.8547278 75.9295536,64.142028 74.9676801,64.2946881 C75.8434411,63.7275678 76.6538519,63.0543674 77.5857732,62.5804072 Z M76.7753624,56.3220239 C78.2001334,55.4155834 79.544578,54.3857229 80.9863672,53.5071624 C79.7164627,54.7757031 78.5214386,56.1353638 77.1412556,57.2808244 C77.0105552,56.9636042 76.8853006,56.644684 76.7753624,56.3220239 Z M72.4465912,62.0840069 C72.5660596,62.293107 72.6875701,62.5035671 72.8124843,62.7126672 C68.2355865,66.032089 65.8690236,67.0381495 62.6668629,67.4675697 C62.6828601,66.7528894 63.9609333,64.3864881 64.409195,64.089328 C71.9639526,58.9165652 71.2369314,59.3742055 71.8414209,59.0770453 C72.0412156,59.2841054 72.2634744,59.4707655 72.5119414,59.6200256 C73.0429119,58.8985452 74.5769402,56.8602442 75.4455536,56.657944 C75.6715564,57.2138443 75.9703975,57.7398246 76.164406,58.3089849 C74.9918461,59.6237656 73.6848417,60.8249862 72.4465912,62.0840069 Z M73.5970273,64.7067683 C72.3009147,64.9978084 71.0405404,65.4642887 69.7148159,65.6098088 C70.9023519,64.8730284 72.0565321,64.080148 73.2685744,63.3787276 C73.4122087,63.8115478 73.5258909,64.255588 73.5970273,64.7067683 Z M72.1310722,92.0948027 C70.9265179,91.2665623 69.8826162,90.2295617 68.7491983,89.3115612 C69.0705036,89.0691411 69.3877244,88.822641 69.6977976,88.5635609 C70.5082084,89.1119811 71.3431255,89.6474814 72.0711678,90.2982418 C72.2243324,90.8708021 72.10112,91.4994624 72.1310722,92.0948027 Z M67.8771814,81.9039773 C67.7277608,82.0549374 67.5858283,82.2116775 67.4513838,82.3741976 C64.4629728,79.5263561 64.1522189,78.0065553 63.7277828,75.3304139 C64.1736619,75.7081541 69.0694825,79.9574763 69.4888131,80.4695166 C69.3039945,80.6969767 69.1545739,80.9526568 69.1171337,81.247437 C70.5476908,81.7516573 72.0293028,81.7244572 72.1552381,83.5305382 C70.6709032,83.157558 69.3373503,82.3459776 67.8771814,81.9039773 Z M70.2709735,198.058579 C69.8901042,196.244338 69.4442251,196.326278 69.3690043,189.906734 C69.6790775,189.901294 69.9925543,189.905034 70.3046697,189.905034 C70.2784615,192.622656 70.349598,195.342317 70.2709735,198.058579 Z M62.6689051,264.334133 C62.5399065,261.614472 62.4653664,258.894811 62.4354142,256.173109 C64.8948969,256.167669 67.3540392,256.135709 69.8152238,256.145229 C69.7131141,256.92519 66.6831784,263.974753 66.5361404,264.315773 C65.245814,264.324953 63.9575297,264.313733 62.6689051,264.334133 Z M66.0899209,265.440494 C63.2172342,272.149378 63.3703988,272.281978 62.909884,272.737918 C62.8258137,270.303517 62.7437855,267.871155 62.6746913,265.436754 C63.8118532,265.423494 64.9510572,265.416014 66.0899209,265.440494 Z M61.8901483,227.947654 C63.1338446,227.794654 64.3904749,227.882374 65.6416593,227.837494 C66.3642557,231.663516 67.1355244,235.481718 67.7706469,239.32474 C65.817288,239.33392 63.8639291,239.35636 61.9126124,239.37336 C61.8751722,235.563998 61.9163565,231.754976 61.8901483,227.947654 Z M62.4149922,202.774381 C63.9704636,202.619681 65.537167,202.667961 67.0984246,202.630901 C67.2590772,206.481063 67.4493416,210.329525 67.6828325,214.175947 C66.6426749,214.217087 65.6008154,214.220827 64.5606578,214.233747 C63.8435072,210.413165 63.1096787,206.598363 62.4149922,202.774381 Z M65.4605847,226.815454 C64.2730487,226.834154 63.0872145,226.841634 61.9013804,226.862034 C61.9013804,223.017312 61.8847024,219.17293 61.9068262,215.328208 C62.381296,215.322768 62.8591695,215.322768 63.3373833,215.329908 C63.9779516,219.16919 64.7696423,222.983992 65.4605847,226.815454 Z M63.0797265,214.313647 C62.689327,214.315347 62.3009697,214.319087 61.9109106,214.328607 C61.8809584,212.187286 61.8942327,210.047665 61.9146546,207.906004 C62.2934817,210.043585 62.7454874,212.168246 63.0797265,214.313647 Z M67.8676511,240.367521 C67.9067932,240.399141 67.9854177,240.464421 68.0262615,240.496381 C69.9605599,250.528766 69.1443629,246.630664 69.5575669,251.813627 C67.1338226,251.836067 64.7097379,251.837767 62.2876955,251.862247 C62.1440611,248.062405 62.0766687,244.260863 61.9347362,240.462721 C63.9126014,240.475641 65.8901263,240.313461 67.8676511,240.367521 Z M69.9350325,259.974651 C70.0357808,261.405372 70.1368694,262.838133 70.1722674,264.274293 C69.516723,264.317133 68.857775,264.319173 68.2022306,264.315433 C68.6671702,262.825213 69.3822786,261.429852 69.9350325,259.974651 Z M70.2992238,188.856474 C69.9554545,188.852734 69.6120254,188.852734 69.2702983,188.852734 C69.173294,184.978432 68.8445007,181.11501 68.7474965,177.240708 C69.2648524,177.231528 69.7839101,177.224048 70.3029679,177.227788 C70.2842477,181.10379 70.3084137,184.980132 70.2992238,188.856474 Z M68.7733643,236.655399 C68.2447763,233.707937 67.6511785,230.772036 67.1205484,227.826614 C67.5146919,227.813694 67.908495,227.804174 68.3043403,227.794994 C68.4401463,228.669815 68.7291168,235.783638 68.7733643,236.655399 Z M66.8986299,226.737254 C66.2451277,222.914972 65.3914905,219.12635 64.8166128,215.293188 C65.7839322,215.272788 66.7512515,215.257828 67.7185709,215.252048 C67.8979437,219.07977 68.1106722,222.905792 68.290045,226.735554 C67.824765,226.738954 67.3618677,226.740994 66.8986299,226.737254 Z M67.6008044,150.761494 C67.2478451,148.739513 67.1079548,146.693051 67.1021686,144.64115 C67.9874598,144.61701 68.8724107,144.58165 69.757702,144.56091 C69.8713841,145.690391 70.3353026,146.517611 69.2103939,150.739054 C68.672616,150.742794 68.13654,150.754014 67.6008044,150.761494 Z M69.0555275,151.828414 C68.8278228,153.010935 68.6501519,154.202975 68.3758171,155.378356 C68.1927004,154.201275 67.9704416,153.031675 67.8305513,151.850854 C68.2376287,151.841334 68.6464079,151.833854 69.0555275,151.828414 Z M66.7454653,137.746627 C66.5960448,135.417286 65.8506438,121.452118 65.8714062,120.236278 C66.2206214,121.277018 66.5548605,122.325579 66.9752122,123.340139 C67.0630265,123.351359 67.2403571,123.373799 67.3281714,123.385019 C68.9595444,137.496727 68.8816006,136.734446 68.9044051,137.666387 C68.1852123,137.686787 67.4643177,137.712967 66.7454653,137.746627 Z M63.5950402,70.7825715 C63.2870092,70.8573715 63.1842188,70.7472115 63.284967,70.4503913 C63.5875522,70.3721913 63.6923848,70.4820113 63.5950402,70.7825715 Z M64.1740023,80.4973966 C63.6716225,80.2400165 63.1787729,79.9676763 62.6988572,79.6728962 C62.7080471,78.9490358 62.7026013,78.2255154 62.7175774,77.503355 C64.030368,79.0228158 63.6787702,78.4805155 64.1740023,80.4973966 Z M63.47387,77.7216351 C62.2934817,76.2701744 62.6685647,76.7210146 63.1450767,76.0522343 C63.2703313,76.6043946 63.3972877,77.1585948 63.47387,77.7216351 Z M62.7305113,86.2056596 C62.6484831,86.2335396 62.4803425,86.2896397 62.397974,86.3175197 C62.2111132,85.7599194 61.9946406,85.2077591 61.9292903,84.6219388 C62.1028769,84.5994988 62.2764634,84.5790988 62.4520921,84.5603987 C62.5719008,85.101339 62.7475295,85.6443193 62.7305113,86.2056596 Z M62.7921175,117.473436 C62.5473945,116.585356 62.1981793,115.723795 62.062033,114.809535 C62.2618277,114.787095 62.4616223,114.764655 62.6634592,114.745955 C62.6913692,115.654775 62.7305113,116.564956 62.7921175,117.473436 Z M62.7117911,82.4394776 C63.4418756,82.7974978 64.1440501,83.204478 64.8799208,83.5512782 C65.0480615,84.0585585 65.1712739,84.5886188 65.0797155,85.127519 C65.481347,85.5491193 65.4942809,86.1441196 65.6157915,86.6813199 C64.9884975,86.1590796 64.4299573,85.5246393 63.6794509,85.1740991 C63.6232906,85.2692991 63.5096084,85.4593592 63.4534481,85.5545593 C63.1413327,84.5325187 62.9714902,83.4747782 62.7117911,82.4394776 Z M64.8612007,80.0720564 C65.2682781,80.5385366 65.6661656,81.0104569 66.0674568,81.4803371 C65.6920334,81.312377 65.3223962,81.1277569 64.9602471,80.9356568 C64.9265509,80.6486967 64.8911529,80.3576565 64.8612007,80.0720564 Z M65.7744019,177.372968 C65.8826382,178.387868 65.9200784,179.406169 65.8659603,180.430249 C65.3411164,179.438129 65.5691614,178.393648 65.7744019,177.372968 Z M64.6671922,175.541387 C64.4115776,174.597206 62.1573354,165.750062 62.0211891,164.785481 C63.0855127,164.768821 64.1518785,164.692321 65.2182443,164.729721 C65.3734511,170.538964 65.8663007,170.867064 64.6671922,175.541387 Z M62.2543396,189.031914 C62.1648234,189.046874 61.9871525,189.078494 61.8976363,189.095494 C61.8993382,185.219152 61.8826602,181.34281 61.9030822,177.468508 C62.5007644,177.446068 63.0981062,177.433148 63.6957885,177.451848 C64.160728,180.415289 64.4319995,176.420287 62.2543396,189.031914 Z M64.8445228,182.35737 C65.0946916,183.159771 66.3765089,188.015653 66.4112262,188.977514 C65.5075552,189.003694 64.605586,189.026134 63.7015747,189.044494 C63.9799938,186.798793 64.5232175,184.595931 64.8445228,182.35737 Z M66.5473725,87.4126602 C66.3363457,86.9744 66.2914175,86.4762998 66.1852233,86.0081195 C66.976914,86.5752398 67.793111,87.1124401 68.5398734,87.7373604 C68.2505626,87.9257205 68.0075414,88.2334207 67.6603684,88.3061807 C67.225381,88.1157806 66.8649337,87.7594604 66.5473725,87.4126602 Z M69.8809144,79.7476962 C67.9966497,78.1473154 66.1777353,76.4700945 64.2992569,74.8642736 C64.321721,74.5956735 64.3441852,74.3250334 64.3700529,74.0584732 C66.5269505,75.2950539 68.7733643,76.3901944 70.8965657,77.6736951 C70.8002422,78.6073356 70.3465347,79.8394963 69.8809144,79.7476962 Z M63.9592315,70.5381114 C67.0031222,70.8628115 70.0374826,71.2786317 73.0813733,71.6033319 C63.2305085,71.4758319 63.9156647,71.2850918 63.9592315,70.5381114 Z M63.3111752,68.7381504 C63.2682891,68.4341902 63.229147,68.1319301 63.1859206,67.8296699 C64.1083117,67.6300898 65.0102809,67.3315697 65.9442444,67.1785696 C65.0422753,67.6562698 64.2655607,68.3573502 63.3111752,68.7381504 Z M70.2263856,57.7041246 C70.570155,58.0529648 71.3880538,58.2508449 71.3002394,58.8159252 C69.0875219,60.349326 66.885696,61.9068668 64.6243061,63.3675076 C66.0902613,60.5264661 67.6365428,57.7282646 69.1154319,54.8950431 C69.2573644,54.9062631 69.5412294,54.9249631 69.6831619,54.9341431 C70.1834995,53.7495825 70.7699496,52.6041219 71.2723294,51.4195613 C71.9203858,51.7554815 72.2920651,52.4269818 72.8203127,52.9101221 C70.4731507,57.1710043 70.4847232,56.7704841 70.2263856,57.7041246 Z M63.4551499,64.0277879 C63.3132174,64.3637081 62.9864663,64.5333682 62.6859234,64.7050683 C62.7063453,63.8227678 62.7046435,62.8024273 61.8567925,62.280187 C63.8064073,59.6778256 65.7485341,57.0683243 67.6923628,54.4605229 C67.9221096,54.5108429 68.1535583,54.5632029 68.385007,54.617263 C68.1215639,55.3781834 65.988492,59.1991054 63.4551499,64.0277879 Z M61.9275885,109.002672 C62.5089332,110.828133 62.4813636,109.939032 62.5439908,113.358414 C62.3816364,113.388334 62.0586293,113.449874 61.8959345,113.481494 C61.9013804,111.987193 61.8564521,110.493232 61.9275885,109.002672 Z M61.9146546,124.20374 C62.2917798,124.07318 62.6859234,124.00042 63.0725788,123.905219 C63.1944297,124.6284 63.7999404,137.549427 63.8138954,137.890107 C63.1733271,137.916287 62.5327588,137.936687 61.8921905,137.953687 C61.9071666,133.370144 61.8601961,128.785242 61.9146546,124.20374 Z M61.9292903,170.420644 C62.8343228,174.489086 63.2788404,175.320387 63.2870092,176.444087 C62.8258137,176.444087 62.3663199,176.449527 61.9068262,176.460747 C61.8901483,174.448286 61.8639401,172.433445 61.9292903,170.420644 Z M63.4476618,190.097134 C64.4391472,190.100874 65.4251867,189.979494 66.416672,189.970314 C66.657651,193.848356 66.8499576,197.728438 67.008568,201.61226 C65.4006804,201.65884 63.7948349,201.68298 62.1869472,201.70168 C61.6253438,198.325479 61.6852481,200.19684 63.4476618,190.097134 Z M72.633452,313.97042 C69.8417723,313.97042 67.0534963,313.86026 64.2638588,313.830679 C64.6311135,312.742679 67.8479099,303.542954 68.258391,302.651474 C68.7291168,302.664394 69.2015444,302.671874 69.6756738,302.677654 C72.609286,309.916257 72.5854604,308.380817 72.633452,313.97042 Z M71.1991508,302.759594 C71.5109258,302.750414 71.8264448,302.750414 72.140262,302.752114 C72.168172,303.554174 72.2018682,304.356235 72.1926784,305.160335 C71.8863492,304.348755 71.5466642,303.552134 71.1991508,302.759594 Z M73.4326307,414.640393 C73.5653733,414.118152 73.8751061,413.666632 74.1068952,413.189272 C75.3151935,413.267472 76.5418716,413.172612 77.733492,413.416732 C77.7671882,416.750094 78.080665,420.074275 78.1572473,423.407637 C77.9714076,423.071037 73.5221469,415.014393 73.4326307,414.640393 Z M76.9731149,424.107019 C76.1851683,424.107698 69.1501492,423.829237 68.8050183,423.719077 C70.0299946,421.163636 71.3335953,418.639475 72.6405996,416.123133 C74.0602651,418.796555 75.5466422,421.435976 76.9731149,424.107019 Z M74.7416773,411.926171 C75.6157364,410.22107 76.4503132,408.495569 77.3543245,406.807468 C77.4179729,408.566629 77.5391431,410.32375 77.6065355,412.084611 C76.6501079,412.049251 75.6977646,411.946571 74.7416773,411.926171 Z M77.5353991,351.034179 C77.3131403,347.325797 77.1096016,343.613675 76.984347,339.899513 C77.2811459,339.899513 77.579987,339.904953 77.8788281,339.912433 C78.1664372,343.622855 77.804288,347.334977 77.5353991,351.034179 Z M76.8948308,338.733653 C76.8311824,336.545411 76.5493596,334.36125 76.668828,332.171309 C76.6126676,332.544289 76.5531036,332.91931 76.4969433,333.29977 C76.6201557,331.385909 76.3904088,329.472048 76.3175705,327.561927 C76.7338378,327.560227 77.1504455,327.565667 77.5687549,327.576887 C77.607897,331.303969 77.82471,335.027311 77.835942,338.754393 C77.520423,338.742833 77.2066058,338.735353 76.8948308,338.733653 Z M76.360797,387.692658 C74.1834775,387.655258 72.0116038,387.485598 69.8342843,387.455678 C70.0143377,387.009258 75.3689713,377.103693 75.8529713,376.742613 C75.9761837,380.395235 76.2525607,384.038336 76.360797,387.692658 Z M76.2784285,326.351186 C76.1252639,323.433645 75.9050473,320.519843 75.888029,317.598901 C77.635807,321.989664 77.4091234,319.937763 77.4884286,326.362406 C77.0854356,326.356626 76.6817619,326.351186 76.2784285,326.351186 Z M77.2273681,317.268421 C76.9771993,316.552041 76.6334299,315.875101 76.4132133,315.15124 C76.6766564,315.15124 76.9397591,315.15872 77.204904,315.1679 C77.2345158,315.865581 77.244046,316.567001 77.2273681,317.268421 Z M75.8750951,314.00782 C75.4247913,313.103079 75.1147181,303.108434 75.1058686,302.767074 C75.6885747,302.763334 76.2729826,302.767074 76.8573906,302.776254 C76.8597731,303.119314 77.110963,313.054799 77.2157957,313.98538 C76.7678744,314.00204 76.3216549,314.00578 75.8750951,314.00782 Z M64.8686887,339.653353 C65.0759715,339.658793 65.2832542,339.668313 65.4905369,339.681233 C66.7471672,343.385875 68.0674458,347.070117 69.3056963,350.780199 C67.9221096,350.774759 66.5402248,350.735319 65.1562978,350.701999 C65.1151135,347.016057 64.9211051,343.337255 64.8686887,339.653353 Z M64.934039,399.189084 C64.6726381,398.659364 64.2992569,398.177924 64.1311162,397.612844 C64.2730487,397.122223 64.5960558,396.713543 64.8707309,396.293983 C64.9265509,397.256523 64.941527,398.222804 64.934039,399.189084 Z M73.8380063,277.841321 C74.3703382,277.839621 74.9060739,277.841321 75.4401077,277.850501 C75.0309881,279.193501 74.5156744,280.503182 74.073199,281.838703 C73.8584282,280.516442 73.8883804,279.173441 73.8380063,277.841321 Z M74.5044423,350.938979 C73.3148641,350.916539 72.1235841,350.890359 70.9340059,350.871659 C69.6287034,347.152057 68.3308889,343.427015 67.0684724,339.694153 C67.4091785,339.696193 73.3563888,339.734613 74.0190808,339.906653 C74.0956631,343.587495 74.424116,347.256437 74.5044423,350.938979 Z M73.7352158,276.7166 C73.6399134,274.062219 73.460881,271.411577 73.3672805,268.756856 C73.9666645,271.417017 74.6147208,274.069359 75.2253369,276.729541 C74.7267012,276.72986 74.2318094,276.72612 73.7352158,276.7166 Z M73.9088023,338.636753 C71.481314,338.591873 69.0534853,338.573173 66.6276988,338.465052 C64.0324102,330.772208 64.8026578,334.41463 64.5024552,327.356567 C67.4455976,327.376967 70.3866978,327.434767 73.3294999,327.468427 C73.5728614,331.188029 73.7294296,334.913411 73.9088023,338.636753 Z M69.7389819,352.01882 C71.0405404,355.710542 72.3104449,359.413144 73.5803494,363.117785 C70.8914602,363.074945 68.1984866,363.086165 65.5167451,362.890325 C65.481347,359.219343 65.2628322,355.555501 65.2420699,351.88452 C66.7417213,351.88452 68.2376287,352.03752 69.7389819,352.01882 Z M71.3747795,352.05248 C72.4540792,352.10484 73.540867,352.02834 74.6147208,352.18678 C74.6426308,354.345101 74.9190078,356.495942 74.8444677,358.655963 C74.8873538,358.404023 74.9322821,358.148683 74.9789122,357.906263 C74.9043721,359.495424 75.0609403,361.084924 75.1188025,362.672385 C74.6885802,362.038965 71.6256291,352.86202 71.3747795,352.05248 Z M75.0292863,301.632833 C74.7995394,297.862911 74.6388868,294.089249 74.4428361,290.317287 C75.1262905,290.315587 75.8117871,290.317287 76.4969433,290.322727 C76.6368336,294.092649 76.6892499,297.864611 76.8274384,301.634533 C76.2280544,301.630793 75.6286703,301.627053 75.0292863,301.632833 Z M74.4074381,289.192567 C74.3148586,285.824525 73.5143185,287.121965 76.0674017,280.447422 C76.3233568,281.233842 76.4737984,288.850866 76.4744791,289.192567 C75.7855789,289.190527 75.0963383,289.190527 74.4074381,289.192567 Z M75.9237674,273.483878 C75.3580796,270.794137 74.7399754,268.111535 74.0582229,265.449674 C74.6147208,265.285454 75.201171,265.352774 75.772645,265.346994 C75.8900712,268.055775 76.0282597,270.773397 75.9237674,273.483878 Z M73.8192861,264.212753 C72.4673535,259.295671 73.0034295,259.688371 72.9789232,257.98803 C72.8873648,258.13151 72.8128247,258.28825 72.7250103,258.44125 C72.7587066,257.66707 72.7774267,256.89493 72.7195645,256.124489 C73.6627179,256.119049 74.605531,256.113269 75.5486844,256.113269 C75.5653623,258.825451 75.7297589,261.530492 75.765157,264.240973 C75.1171006,264.235193 74.4653003,264.278033 73.8192861,264.212753 Z M72.7379442,315.11758 C72.9227628,318.848402 73.1150695,322.579224 73.2981862,326.311746 C70.3550438,326.293046 67.4139436,326.205326 64.4711416,326.151266 C64.4224693,325.465146 64.1266915,316.678861 64.1685564,314.95506 C67.0218423,315.1271 69.8809144,315.0506 72.7379442,315.11758 Z M68.5830999,301.517233 C68.6858903,301.280253 68.7883404,301.039533 68.893173,300.812073 C68.9772434,301.052793 69.0592715,301.291473 69.1433418,301.539673 C69.0031112,301.533893 68.7229902,301.522673 68.5830999,301.517233 Z M68.7658763,296.782731 C68.3788804,295.98441 66.2869927,291.044547 66.0916228,290.279887 C67.7274204,290.278187 69.3652603,290.292807 71.001058,290.298587 C70.384996,292.498048 69.5259129,294.628149 68.7658763,296.782731 Z M68.0637018,298.804712 C67.7573726,299.711152 67.4364077,300.614193 67.1130603,301.518933 C65.9684104,301.511453 64.8237605,301.537633 63.6787702,301.472353 C63.6712821,297.736091 63.4864635,294.003229 63.4061372,290.270707 C63.7703285,290.266967 64.1362217,290.269007 64.500413,290.272407 C65.6923738,293.113449 66.8594878,295.96741 68.0637018,298.804712 Z M63.3132174,289.123546 C63.3057293,288.562206 63.3057293,288.000526 63.3019853,287.442926 C63.540922,288.011746 63.8060669,288.573426 64.0266239,289.153466 C63.7876872,289.138166 63.5504523,289.131026 63.3132174,289.123546 Z M63.7764551,302.634474 C64.7345846,302.641954 65.6923738,302.653174 66.6505033,302.643654 C65.8996565,305.242275 64.846565,307.749096 64.0211781,310.329018 C63.9200895,307.764396 63.8118532,305.201135 63.7764551,302.634474 Z M64.7362865,393.343121 C64.2676029,394.255342 63.8081091,395.191702 63.190005,396.014503 C62.7996055,395.171302 62.2097517,394.410382 61.9221427,393.531481 C61.8921905,386.552978 61.9071666,379.570734 61.9129528,372.58883 C62.6617574,372.60549 63.4088601,372.62249 64.1576647,372.62793 C64.2366296,374.238511 64.8118477,391.63122 64.7362865,393.343121 Z M62.377552,397.456104 C62.3346659,397.812424 62.0991328,398.112644 61.9367784,398.429864 C61.8976363,397.792024 61.8976363,397.155883 61.9292903,396.523483 C62.0957292,396.822003 62.2859936,397.116783 62.377552,397.456104 Z M61.9292903,401.586426 C62.2655717,400.750705 62.7733973,399.986045 63.2121288,399.200644 L63.3782272,399.200644 C63.5889136,399.540645 65.1157942,402.152526 65.0793751,402.675786 C65.7584047,430.193701 67.0432853,424.578258 61.936438,434.139403 C61.8915098,429.09448 61.9024015,403.623367 61.9292903,401.586426 Z M65.7073499,369.768189 C65.7073499,368.947429 65.6848857,368.128368 65.6586776,367.311348 C69.3461998,366.234227 67.6008044,366.675547 74.8407237,366.792847 C75.3560374,367.831888 75.4829938,368.979049 75.5279221,370.124539 C75.1868756,370.127569 67.1035301,369.892629 65.7073499,369.768189 Z M75.6848307,373.178051 C75.7801331,374.021251 75.0742146,374.657392 74.7753735,375.395872 C71.8101073,375.407092 68.8499466,375.190512 65.8863822,375.136452 C65.8659603,374.332351 65.8472402,373.530291 65.8302219,372.729931 C66.136551,372.736731 75.4642737,372.965891 75.6848307,373.178051 Z M65.9946185,376.317612 C68.6593418,376.530113 71.3427851,376.487272 74.0132946,376.649793 C72.1235841,380.251754 70.0562027,383.762596 68.1178199,387.340418 C67.4922277,387.345858 66.8686777,387.327498 66.2447873,387.297578 C66.1964554,383.637476 65.9517325,379.979414 65.9946185,376.317612 Z M67.4101996,388.593659 C67.1096567,389.138339 66.8033275,389.679279 66.5065286,390.22974 C66.4541123,390.25592 66.34962,390.30794 66.297544,390.33616 C66.290056,389.744899 66.2808661,389.155339 66.2713359,388.571548 C66.6501629,388.571219 67.0293303,388.578699 67.4101996,388.593659 Z M66.4616003,393.400921 C67.2815413,391.789321 68.2168663,390.23348 69.0813953,388.644319 C71.540878,388.789839 74.0058066,388.784059 76.4632471,388.963239 C76.6426198,392.591381 76.7770643,396.223263 77.0272331,399.848005 C73.5500569,399.806865 70.0786669,399.588585 66.6052346,399.441365 C66.6239548,397.424484 66.3908042,395.413722 66.4616003,393.400921 Z M66.8053697,405.494388 C67.9649957,407.553769 69.0892237,409.63559 70.2134517,411.715371 C69.1266639,411.730331 68.049066,411.590251 66.9660223,411.564411 C66.9639801,409.53835 66.7716735,407.518069 66.8053697,405.494388 Z M70.9190298,413.049192 C71.264501,413.548992 71.5071818,414.112372 71.824743,414.634613 C70.3346219,417.591254 68.8462026,420.549936 67.3448494,423.500797 C67.1525427,419.950855 67.1413107,416.395474 66.9939323,412.845532 C68.3029789,412.862532 69.6120254,412.953992 70.9190298,413.049192 Z M68.1402841,424.983878 C71.3390411,425.168498 74.5435844,425.269138 77.7385974,425.504418 C77.9700461,425.965119 78.3567016,426.396239 78.3604456,426.940919 C78.4986341,430.076741 78.7225947,433.208482 78.7937312,436.350084 C75.0963383,436.148804 71.4006473,435.909784 67.7012123,435.749304 C67.4847397,432.747782 67.5854879,429.733341 67.3931813,426.733859 C67.4401518,426.088199 67.8884134,425.558478 68.1402841,424.983878 Z M78.3325356,366.897227 C78.42035,366.917627 78.5959787,366.958767 78.6834527,366.977467 C78.6946848,367.869288 78.7151067,368.762808 78.735869,369.658029 C78.6575849,369.645109 78.5006763,369.620629 78.4220518,369.607709 C78.399928,368.702968 78.357042,367.800268 78.3325356,366.897227 Z M78.7545891,375.575052 C78.7059168,374.614212 78.7471011,373.647931 78.5864485,372.69865 C78.6538409,372.719051 78.7899872,372.760191 78.8573796,372.780591 C78.8648676,373.709471 78.8873318,374.638352 78.9023078,375.571312 C78.8648676,375.571312 78.7920294,375.575052 78.7545891,375.575052 Z M94.0897668,357.760743 C89.6285932,346.913377 85.0554394,336.109191 80.5976695,325.261826 C80.6000521,323.512865 81.6020888,306.845036 81.7705698,304.734995 C89.7630377,339.169533 93.7786725,355.978462 94.0897668,357.760743 Z M85.271912,280.488562 C85.3056082,280.309382 85.3410062,280.134282 85.3801483,279.960542 C85.4717067,281.749623 85.8563199,283.514224 85.8862721,285.306704 C85.9087363,285.200284 85.9329022,285.099644 85.9591104,285.000704 C87.2154003,296.916351 89.4145032,314.44234 89.4305004,316.128401 C89.4621544,315.940041 89.4958506,315.753381 89.5295468,315.5708 C89.5482669,317.702602 92.9083573,344.445316 92.9226527,346.569977 C92.4954937,343.782655 81.9155656,300.227612 82.0748568,298.797232 C82.6875151,288.393906 83.271923,277.990581 83.8975152,267.590995 C83.9417627,267.932015 85.356663,279.295161 85.271912,280.488562 Z M81.2831661,288.513586 C81.2627441,288.425866 81.2232617,288.252466 81.2028398,288.164746 C81.2140718,290.285667 80.9935148,292.397408 80.8910648,294.514589 C77.4353316,280.706162 77.838665,281.563642 77.7838661,275.646279 C79.3859675,270.837317 81.1786738,266.082414 82.8073238,261.277192 C82.6037851,266.650895 81.5146148,282.916843 81.2831661,288.513586 Z M77.6586115,271.711797 C77.4605186,266.518635 77.3580686,261.319692 77.1899279,256.124489 C79.0050983,256.161889 80.8277567,255.898729 82.6354391,256.111569 C82.6841114,258.35625 83.4594645,254.902528 77.6586115,271.711797 Z M82.2746514,253.191988 C80.5418495,253.093048 78.7995174,253.037287 77.0759054,252.830227 C76.9789011,245.800384 76.4057253,231.803596 76.5006873,228.632415 C77.6609941,234.170678 82.0605614,250.071126 82.2746514,253.191988 Z M80.4186371,238.94054 C79.1160575,231.327596 75.3410613,224.300812 75.9891176,211.073445 C78.6674555,227.949694 80.368263,237.562859 80.4186371,238.94054 Z M77.2532359,210.396165 C76.2934046,202.489121 75.5946338,203.429901 75.4622315,194.331497 C75.5949741,195.407597 77.2331543,208.845084 77.2532359,210.396165 Z M75.4121977,251.729647 C74.4319444,251.744607 73.453393,251.748347 72.4748415,251.738827 C72.4020033,250.684826 72.3965574,249.629126 72.3312072,248.576825 C72.297511,248.673725 72.2304589,248.867865 72.1967627,248.964765 C72.3853254,246.084624 71.9353619,243.200742 71.9465939,240.314821 C72.9942396,240.309381 74.0398431,240.298161 75.0874888,240.286941 C75.1623693,241.463341 75.4016464,251.387267 75.4121977,251.729647 Z M75.0459642,239.20914 C73.9853846,239.2258 72.9244647,239.22036 71.8659273,239.24076 C71.7202507,235.407258 71.820999,231.566616 71.800577,227.729374 C72.7903606,227.705234 73.793078,227.600514 74.7753735,227.759294 C74.7920514,231.577836 75.0200964,235.388898 75.0459642,239.20914 Z M74.6783692,226.654974 C73.7127517,226.664154 72.7474745,226.690334 71.7821973,226.679114 C71.8101073,222.856832 71.7522451,219.03115 71.8009174,215.208868 C72.1630665,215.035467 72.6562565,215.158548 73.0687797,215.121148 C74.8097504,222.404631 74.5619642,219.47179 74.6783692,226.654974 Z M71.8342732,210.122125 C72.1368584,211.435206 72.4653113,212.742846 72.8090807,214.047087 C72.4636095,214.052527 72.1198401,214.062047 71.7764111,214.071227 C71.800577,212.754066 71.7277388,211.435206 71.8342732,210.122125 Z M74.3625098,214.125287 C73.99968,213.037966 71.5487064,204.186742 71.8060229,202.474161 C72.5493816,202.479601 73.2924,202.461241 74.0337165,202.447981 C74.1385492,206.338943 74.2505295,210.231945 74.3625098,214.125287 Z M74.041545,201.34706 C73.2964844,201.52794 72.5252157,201.45518 71.7672212,201.47218 C71.7859413,197.577138 71.7430552,193.682436 71.7784533,189.787394 C72.0323661,189.809834 72.2883211,189.837714 72.545978,189.869334 C74.0146561,199.828619 73.0521018,191.329975 74.041545,201.34706 Z M71.8529934,185.397992 C71.9891397,186.535972 72.1572803,187.668173 72.364563,188.794934 C72.1647684,188.804114 71.9666755,188.813634 71.7706249,188.826554 C71.7668808,187.683133 71.7202507,186.535972 71.8529934,185.397992 Z M73.5184028,186.032432 C73.1256208,185.689712 71.9870975,177.468168 71.9459132,177.123407 C72.4016629,177.110487 72.8570722,177.100967 73.3128219,177.093487 C73.3580906,180.072229 73.5670751,183.049611 73.5184028,186.032432 Z M72.0190918,164.395501 C72.1756601,165.501521 73.3043128,174.790326 73.2927404,176.076547 C72.7924028,176.089467 72.2917248,176.104427 71.793089,176.132647 C71.6926811,175.561447 71.4612324,164.547141 72.0190918,164.395501 Z M72.0470018,301.552593 C71.5970383,301.548853 71.1508189,301.545113 70.7025572,301.539673 C70.3404081,300.618273 69.9033785,299.728492 69.5878595,298.791792 C70.2226416,296.887111 70.88193,294.98447 71.6045264,293.111749 C71.7985348,295.92287 71.9108555,298.737732 72.0470018,301.552593 Z M71.4326417,289.173867 C69.4700929,289.170127 67.5072038,289.162647 65.5446551,289.149726 C62.7808854,282.540123 63.2359544,284.814724 63.0460303,277.837921 C65.6491473,277.834181 68.2543066,277.843361 70.8574236,277.839621 C71.0647063,281.617023 71.2382929,285.396465 71.4326417,289.173867 Z M62.9806801,276.71116 C68.1872545,264.007733 66.9986974,265.212354 70.0786669,265.375214 C70.1235951,265.420094 70.2114095,265.507814 70.2542956,265.550654 C70.3979299,269.277736 70.665117,272.999038 70.7716515,276.72816 C68.1739803,276.71864 65.5783513,276.73904 62.9806801,276.71116 Z M68.65764,176.190447 C68.4932433,172.317845 68.2301406,168.447283 68.101142,164.574681 L68.4187032,164.567201 C69.0555275,168.422803 69.6532097,172.286225 70.3141999,176.138427 C69.761446,176.170047 69.2086921,176.185007 68.65764,176.190447 Z M69.8846584,164.499881 C69.9854066,164.511101 70.1889453,164.535241 70.290034,164.546461 C70.290034,165.333561 70.301266,166.121002 70.2546359,166.908102 C70.136529,166.104342 69.9724727,165.307721 69.8846584,164.499881 Z M70.2355754,153.415875 C70.3458539,156.752977 70.2542956,160.097559 70.2896936,163.43874 C70.129041,163.435 69.8114798,163.42752 69.6528693,163.42582 C69.3802364,160.163519 68.4227876,161.016239 70.2355754,153.415875 Z M73.3410723,109.407272 C66.5865145,99.0015663 67.4830378,100.570327 67.2737129,97.4576255 C69.915972,101.095287 72.6239217,104.686029 75.2457589,108.336611 C74.605531,108.683751 73.9724507,109.043812 73.3410723,109.407272 Z M76.0377899,77.8841552 C74.6317391,77.8579752 73.229092,77.7124551 71.8322311,77.5818951 C69.2852744,76.3303544 66.8649337,74.8156536 64.3047027,73.586213 C64.9302949,73.668153 64.7584102,73.0768927 64.7771304,72.6739925 C64.6668519,72.6087124 64.4483371,72.4781524 64.3401008,72.4128723 L64.3401008,72.0228921 C67.3053669,72.1384922 70.2726753,72.2262122 73.2345378,72.4220523 C73.1412776,72.4557124 72.9544168,72.5264324 72.8611566,72.5617924 C72.9622453,75.2399738 72.2631341,74.8588336 72.0674238,76.2905744 C73.5912411,76.3371544 75.1150585,76.2681344 76.6405776,76.2905744 C76.4727773,76.8338947 76.2637928,77.363615 76.0377899,77.8841552 Z M63.9966717,70.1165111 C63.9874819,69.834991 63.9799938,69.5568708 63.9742076,69.2770507 C68.2199296,66.5573893 68.1624078,66.5444693 68.7903826,66.3911292 C76.8260769,64.3779881 77.0548027,64.155288 77.8546622,64.150868 C78.263101,64.7587883 77.6980939,64.7037083 73.3111201,67.2625496 C73.9162904,68.3464702 73.7052636,69.5830509 73.6582932,70.7601315 C75.1429684,70.3626713 76.5806733,69.812551 78.0524146,69.3702107 C77.9999983,70.0213111 78.0840687,70.7319115 77.8189238,71.3364318 C76.8985748,71.9079721 75.0976998,71.2249117 63.9966717,70.1165111 Z M77.8883584,77.0168148 C77.9816186,76.7444746 78.0827072,76.4758745 78.1851573,76.2072743 C78.707959,76.2089743 79.232803,76.2089743 79.7576469,76.2164543 C79.1449886,76.5074945 78.5364147,76.8114547 77.8883584,77.0168148 Z M79.3056412,70.9988116 C79.4325976,70.3086112 79.4700379,69.6071909 79.4812699,68.9078105 C81.7375543,68.1373701 94.0836402,67.5192498 94.7827514,67.5685498 C89.6006832,68.6038503 84.4839653,69.9580711 79.3056412,70.9988116 Z M97.1486335,79.5498161 C91.7807257,79.5725961 91.8460759,79.0326758 87.0421541,76.1661343 C87.7034847,76.1443743 97.6571399,76.0151742 97.9590443,76.0114342 C97.6921976,77.1902149 97.3821244,78.3615155 97.1486335,79.5498161 Z M98.8422934,62.6548672 C98.8589713,63.7275678 98.9113876,64.7999283 98.9392976,65.8746689 C94.6517106,66.1599291 90.3699098,66.4846292 86.0840246,66.7702294 C86.9883763,66.4625292 97.8851849,62.8432273 98.8422934,62.6548672 Z M95.9890075,49.9218605 C96.3848528,51.2091012 96.8984647,52.4589418 97.2718459,53.7533225 C95.6282198,54.692743 80.8665584,63.0264874 79.1899169,63.9047079 C79.1153768,63.1529675 78.924772,62.4199271 78.7474414,61.6885867 C89.4291389,54.3904829 95.2783239,50.2571007 95.9890075,49.9218605 Z M89.7705257,38.9643347 C91.6772545,41.5588761 92.4321857,42.2415965 91.8562869,42.6278367 C83.1402015,51.1536811 89.7170883,45.7592383 76.2130783,55.2248433 C77.6780123,53.3582423 88.4655636,40.4545555 89.7705257,38.9643347 Z M80.8406906,30.7268104 C81.9404123,31.4860308 83.1878527,32.1371311 84.0469357,33.1778717 C83.5336642,34.2230322 74.9139023,49.2758602 73.4530526,51.7871015 C72.9898149,51.2329012 72.4765434,50.7201809 71.9013253,50.2815807 C72.0286221,49.7505004 71.4129005,51.1322611 80.8406906,30.7268104 Z M70.0582449,25.8824878 C71.3244054,26.111988 72.5456376,26.5465082 73.7481497,26.9980284 C73.7263663,27.7684688 69.7931,42.4092165 69.7015416,42.7495567 C69.012301,44.2438575 68.1835105,45.6708383 67.4438958,47.140659 C67.1375666,47.010099 66.8312375,46.8812389 66.5252487,46.7564588 C66.5892375,45.6381982 68.6583207,34.3488323 70.0582449,25.8824878 Z M60.7621763,55.1823433 C60.7386911,53.0668622 60.930317,46.7425188 60.9565251,46.4018386 C61.4589049,46.4633787 61.9575407,46.5527987 62.4486884,46.6758788 C62.3139036,51.0731011 63.0773439,48.3585397 60.7621763,55.1823433 Z M62.1311272,24.5150071 C62.3149247,24.6765072 62.2849725,37.2289738 62.4316702,45.267598 C61.8190119,45.239718 61.2158838,45.134998 60.6202438,44.9952579 C60.366331,41.5442561 59.9892057,38.1044743 59.7986009,34.6517725 C59.7669469,34.8326526 59.7349525,35.0172726 59.7053407,35.2001927 C59.7485672,33.6395919 59.1209328,27.6056087 58.9041198,24.4629871 C59.9779737,24.4255871 61.0593156,24.3919271 62.1311272,24.5150071 Z M52.3459531,197.694778 C52.3319981,198.036819 51.7050444,212.014906 51.6362905,212.662606 C51.7006196,195.747597 51.2516773,203.319741 52.3459531,197.694778 Z M51.5542624,194.484497 C51.1713509,174.613866 51.3405127,177.760568 53.6308337,164.086101 C54.0756917,165.354641 53.8952978,164.145941 52.7346507,189.845534 C52.6764482,190.454135 51.8486787,193.947976 51.5542624,194.484497 Z M38.2452819,77.9960153 C38.568289,77.2592349 39.3620218,76.8933947 39.7578672,76.2201944 C39.4981681,75.4497539 38.7643396,74.9611737 38.4692425,74.2073933 C54.8752107,70.1494912 51.7840093,70.4174113 53.8285861,70.7880115 C48.7305884,74.4555934 47.4623857,75.567054 38.2452819,77.9960153 Z M45.5672293,76.4850545 C43.9464078,77.5519751 42.3797043,78.7011757 40.7473103,79.7551762 C40.2336984,79.339016 39.6509923,79.0051358 39.2122609,78.5032956 C41.3395467,77.8562752 43.4385821,77.1191548 45.5672293,76.4850545 Z M38.5179148,61.2931665 C37.8943648,61.2894265 37.2725167,61.2856865 36.6506685,61.2669865 C36.7289526,61.1214664 36.8896052,60.8341662 36.9682297,60.6906862 C40.6690262,60.5329261 39.7721625,60.8270262 53.1978885,67.97315 C53.1904004,68.2679302 53.1812105,68.5644103 53.1699785,68.8612305 C47.4409426,68.0853501 41.6778702,67.5498498 35.9488344,66.7719294 C37.1326263,66.4679692 38.3409247,66.2663491 39.5138249,65.9195489 C39.6084466,64.3076081 38.9733242,62.8024273 38.5179148,61.2931665 Z M41.3449925,61.0320464 C41.7204159,59.9930058 41.8340981,58.8699852 41.6063934,57.7826646 C42.3494118,58.0029848 41.864731,57.9190047 53.8210981,67.1432096 C53.5273625,67.87693 54.4031235,68.1883701 41.3449925,61.0320464 Z M53.6213034,69.887011 C52.3326788,69.879871 46.6873729,68.7129904 42.7156453,68.1128901 C46.2656598,68.3852302 49.7911679,68.9207305 53.3336944,69.2787507 C53.431039,69.4803708 53.526001,69.6836909 53.6213034,69.887011 Z M44.075066,51.4178613 C44.2095105,50.9962611 44.6802363,50.845301 44.9974571,50.5879209 C46.1254291,51.5579414 47.2513589,52.5279619 48.398051,53.4755424 C48.9378711,53.0128021 49.4102987,52.4813818 49.7557699,51.8602015 C49.7932101,51.8714215 49.8640062,51.8938615 49.8994042,51.9050815 C50.0209148,52.2484817 54.9317115,66.154489 55.1189126,66.923336 C53.9582655,66.9327495 54.211838,66.3275491 45.0685935,55.7028835 C45.3020844,54.669283 45.5318313,53.6248024 45.5335331,52.5616219 C45.1247539,52.0951416 44.5029057,51.8710815 44.075066,51.4178613 Z M44.4542334,56.6746041 C44.5512376,56.493724 44.6560703,56.3145439 44.7660084,56.1391038 C45.0716568,56.1860238 51.7584818,64.3300481 52.0879558,64.8580684 C51.4875507,64.4075681 40.2976872,55.7518436 40.0972118,55.4210234 C40.1533721,55.3258233 40.2633103,55.1354232 40.3194706,55.0405632 C41.7016958,55.5740235 43.0315047,56.2567438 44.4542334,56.6746041 Z M37.5768036,67.94323 C50.7908221,70.2657712 50.5923889,70.1549312 51.4535141,70.4150313 C46.9998287,71.6050319 42.5216368,72.7093525 38.0662495,73.9013931 C37.6479401,73.4274329 37.2316728,72.9500726 36.8113211,72.4781524 C36.0849807,72.7916325 35.5060186,73.3808529 34.7459819,73.612393 C36.1054026,72.7355325 37.5471918,71.9912721 38.9569866,71.1983917 C38.7381315,70.0233511 38.1312594,68.9843105 37.5768036,67.94323 Z M54.7176214,70.8216715 C54.4283106,71.775032 53.6325355,72.4781524 53.0722935,73.2839528 C51.8622934,73.584173 50.7230893,74.1682933 49.4814351,74.3229934 C51.2349993,73.1703927 52.902451,71.8756721 54.7176214,70.8216715 Z M55.4327298,70.9634516 C55.3449154,71.5230919 55.1937931,72.0752522 54.9528141,72.5883124 C54.7063893,72.8569126 54.2860377,72.8048926 53.9613288,72.8943126 C54.4187803,72.2262122 54.8932501,71.5679719 55.4327298,70.9634516 Z M55.182561,73.3437928 C55.4793599,73.2635528 55.7764992,73.1853528 56.0732981,73.1105527 C56.0491321,73.653533 56.1611124,74.2223533 56.0096497,74.7483336 C55.4514499,75.4273139 54.7751432,76.0019142 54.1590813,76.6268346 C54.3871263,75.500074 54.8445778,74.4385934 55.182561,73.3437928 Z M58.5120185,76.7910547 C59.4895488,77.8338352 58.6454419,84.1251985 58.8445558,84.4651987 C59.1192309,84.5342187 59.4010538,84.5807988 59.6811748,84.6294188 C59.7036389,85.7038193 59.6998949,86.7782199 59.6828766,87.8529605 C59.4868259,87.5955803 59.2870312,87.3382002 59.0834925,87.0883001 C58.3534081,87.7132204 57.4381646,88.0637606 56.4916076,88.1851407 C56.5892925,85.3757192 55.8632924,87.6717404 58.5120185,76.7910547 Z M58.3401338,66.9844295 C58.5549046,66.6954293 58.7676332,66.4023492 58.9711719,66.104169 C58.9487077,66.5332492 58.9357738,66.9623295 58.9262436,67.3914097 C58.7431268,67.4063697 58.5620523,67.4213297 58.3826795,67.4379897 C58.3721282,67.3240897 58.349664,67.0983295 58.3401338,66.9844295 Z M59.3898217,65.4119287 C59.5988062,65.0797485 59.9350876,65.4697287 59.6607528,65.6880088 C59.4364518,65.975309 59.0760045,65.6285088 59.3898217,65.4119287 Z M58.689349,124.68314 C59.0552422,124.65152 59.4214757,124.6199 59.7873689,124.58794 C59.7914532,127.199481 59.8598668,137.207046 59.7557148,138.089687 C59.4830819,138.091387 59.210449,138.097167 58.9395178,138.104647 C58.8796135,137.099266 58.9807021,136.080626 58.7846514,135.086465 C58.629785,135.088165 58.3214137,135.090205 58.1665473,135.091905 C58.1825445,134.552325 58.6263814,125.20606 58.689349,124.68314 Z M59.817321,252.596987 C57.3990226,252.630647 54.9790223,252.632347 52.5607238,252.647307 C52.769368,248.026365 51.6995986,253.414348 59.4235179,212.186946 C59.9143253,225.766893 59.809833,221.589991 59.817321,252.596987 Z M59.7894111,155.913516 C59.3598695,154.721476 59.3319595,153.440015 59.3619117,152.188474 C59.4759342,152.201394 59.7019371,152.227574 59.8156192,152.240834 C59.7986009,153.464495 59.8343393,154.689856 59.7894111,155.913516 Z M59.806089,151.110334 C59.6845784,151.115774 59.4439398,151.129034 59.3224293,151.134474 C59.3132394,149.093793 59.1617767,147.058552 59.1430565,145.017871 C59.3391072,144.999171 59.5351579,144.982511 59.7312085,144.967551 C59.9034336,147.008232 59.7727331,149.063873 59.806089,151.110334 Z M58.2972477,173.970586 C58.3646401,174.769246 58.5252928,180.359529 58.5436725,182.24721 C57.1274107,174.797466 57.5603559,177.746968 58.2972477,173.970586 Z M59.0423083,198.049059 C59.0566036,198.389059 59.2744377,205.272362 59.1879848,205.710283 C58.9003758,207.273263 53.5321276,236.386799 53.3336944,237.99466 C53.2278406,235.009118 55.7383782,189.568774 55.5971264,186.674013 C55.6532868,187.159193 56.3796272,181.45093 56.7550506,180.279289 C59.470148,196.982138 57.6158355,180.687629 59.0423083,198.049059 Z M55.5875962,92.4004629 C55.5858944,91.9771626 55.5913402,91.5555624 55.6155062,91.1356622 C55.8003248,91.5443424 55.9460013,91.9693426 56.0392615,92.4096429 C55.9259197,92.4079429 55.6999169,92.4025029 55.5875962,92.4004629 Z M55.7877312,125.14384 C55.6066567,129.522022 55.3564879,133.898165 55.1808592,138.278047 C54.2397479,138.309667 53.3023807,138.421527 52.3592273,138.436487 C52.8541191,134.084485 53.3731768,129.738263 53.8959786,125.39 C54.5215708,125.26692 55.1526088,125.19246 55.7877312,125.14384 Z M54.1498914,144.37629 C54.1386593,144.47897 54.1161952,144.68229 54.1070053,144.78463 C53.2666423,144.80333 52.4283216,144.84073 51.5879586,144.85195 C51.6383327,144.42287 51.7486112,144.00501 51.8885015,143.59837 C52.642752,143.85371 53.3878125,144.13557 54.1498914,144.37629 Z M52.9361472,145.390851 C53.5671853,145.366711 54.2002655,145.344271 54.8333458,145.323871 C54.7043472,149.910133 54.4848113,151.421774 53.6121135,155.915556 C52.9490811,152.647475 52.342209,149.367833 51.7615451,146.084791 C52.1611345,146.069831 52.562766,146.026991 52.9586114,145.954231 C52.9528251,145.812451 52.9415931,145.530931 52.9361472,145.390851 Z M52.4167491,256.204729 C54.8816777,256.230909 57.3486485,256.176849 59.8152788,256.193509 C59.8003028,262.522612 59.8527191,268.852056 59.7911129,275.179459 C59.1668821,273.951718 59.4956754,274.560319 52.4783553,257.76975 C52.2639249,257.27165 52.3684172,256.721529 52.4167491,256.204729 Z M59.6849188,64.4252481 C59.1750509,65.1715485 58.6430593,65.9137689 58.034145,66.5815293 C57.6154952,65.5441887 57.4371435,66.4873492 59.8380833,59.4184055 C59.8639511,61.0881464 59.8210651,62.7612873 59.6849188,64.4252481 Z M57.9725388,75.3062739 C57.6645078,77.1715149 57.122986,78.9847358 56.5290478,80.7755167 C56.4636976,78.9755558 56.4674416,77.1677748 56.5140717,75.3678139 C56.842865,74.9013337 57.3020183,74.5487535 57.7278159,74.1757733 C57.8285641,74.5433135 58.0171267,74.9105137 57.9725388,75.3062739 Z M56.5215597,67.5552898 C56.4562095,66.6916893 56.4786737,65.8260489 56.5178157,64.9641484 C56.7046765,65.3745286 56.9248931,65.7736888 57.0593376,66.2065091 C56.9882012,66.6842093 56.8370788,67.1768696 56.5215597,67.5552898 Z M57.3394586,66.8858294 C57.7016077,67.2384096 57.3619227,67.6804099 57.0218974,67.88747 C57.1097117,67.5478098 57.2199902,67.2139296 57.3394586,66.8858294 Z M56.5028396,71.4428518 C56.5811237,71.4727718 56.7417764,71.5322719 56.8204009,71.5642319 C56.8483108,71.713492 56.8765612,71.8664921 56.906173,72.0194921 C56.7996385,72.0398921 56.58691,72.0847722 56.4803755,72.1051722 C56.4858213,71.8831521 56.4933094,71.6628319 56.5028396,71.4428518 Z M56.5698917,72.8773126 C56.7938523,72.8028526 57.0273432,72.7579725 57.2591323,72.7076525 C57.2890845,72.9521126 57.3078046,73.1962328 57.3169944,73.4444329 C57.0967778,73.7708331 56.7846624,74.0190332 56.5007974,74.2876333 C56.5215597,73.8231931 56.3925611,73.3138728 56.5698917,72.8773126 Z M57.3523925,152.331954 C57.9412252,154.081255 58.1696106,168.414983 58.0807751,168.779123 C57.7128398,170.342444 57.2570901,171.886725 56.9453151,173.462966 C56.3394641,171.016664 56.2482461,173.229045 57.3523925,152.331954 Z M55.5038662,72.5043324 C55.6328648,72.0453322 55.6737087,71.5026919 56.0641082,71.1762917 C56.1032503,71.696492 56.2244205,72.4370124 55.5038662,72.5043324 Z M56.0787439,67.0667095 C55.389163,66.9847695 50.1955224,51.3668613 50.1029429,50.9925211 C58.1525923,68.4828103 55.6066567,62.5144471 56.0787439,67.0667095 Z M56.0603642,62.1139269 C54.720004,59.4024255 49.7523663,48.4720997 49.5338515,47.9481595 C49.8531145,47.8121594 50.1723776,47.6775193 50.4936828,47.5452592 C51.3320036,48.8287599 52.1519446,50.1214406 52.9456775,51.4328213 C54.275146,51.1326011 55.0763669,49.9480405 55.7468874,48.8624199 C55.4163922,48.0715795 55.1512473,47.2562591 54.807478,46.4708587 C55.2220434,46.3589986 55.6478409,46.3028986 56.0773825,46.2862386 C56.0453881,51.5650814 56.0675119,56.8350841 56.0603642,62.1139269 Z M50.7642735,25.5615277 C56.1573684,44.6685177 55.9637003,43.7899573 55.802367,44.9466379 C55.3095174,44.9932179 54.8183697,45.0397979 54.3289238,45.088418 C51.9705297,38.8691347 49.6155392,32.6461114 47.3150073,26.4064281 C48.4412775,26.0558879 49.5859274,25.6716877 50.7642735,25.5615277 Z M39.4178418,29.94345 C49.3490329,45.7789583 49.3303128,45.5525182 49.7128838,46.3719186 C49.214248,46.5847587 48.7156123,46.7989589 48.2094884,46.987659 C36.2194251,31.1191706 36.8300412,32.0715111 36.607442,31.5105108 C37.5693156,31.0328106 38.4280583,30.3667502 39.4178418,29.94345 Z M29.3879447,37.4200539 C30.13743,37.8800742 29.6415172,37.595834 43.8585934,49.6270803 C42.3443063,50.5518808 45.4307427,52.691502 27.444116,39.518535 C28.0996604,38.8262947 28.7494186,38.1286143 29.3879447,37.4200539 Z M21.6681097,47.3660792 C27.432884,49.6641404 33.1340098,52.1189417 38.8929979,54.4340029 C38.7827194,54.7882831 38.5662468,55.0888432 38.3347981,55.3703634 C37.9944324,55.2659833 22.3073166,50.4033008 20.7028325,49.3710602 C20.9342812,48.6628398 21.3359128,48.0304395 21.6681097,47.3660792 Z M16.7402948,59.0175453 C22.9717105,59.5846656 29.2164004,60.0491058 35.4553041,60.5285061 C35.3657879,60.7767062 35.2759313,61.0228663 35.1864151,61.2727665 C28.8746732,61.2129264 22.560889,61.2336665 16.2508489,61.0918864 C16.3461513,60.386726 16.4693637,59.6778256 16.7402948,59.0175453 Z M14.8427559,71.836572 C14.8519458,71.761772 14.8706659,71.6108119 14.8801961,71.5363519 C21.1190998,70.1467712 27.3450696,68.6936104 33.5860155,67.3149097 C33.5822715,67.4305097 33.5747834,67.6600098 33.5710394,67.7756099 C16.563645,72.9038326 23.0714376,70.9124516 14.8427559,71.836572 Z M16.6112962,85.2842591 C16.4918278,84.8140389 16.3835915,84.3441586 16.3107533,83.8647584 C24.2889258,79.446456 32.8923502,74.5266535 33.6401337,74.2056933 C33.5002434,74.6004335 34.7493856,73.8211531 16.6112962,85.2842591 Z M21.5020113,96.1986049 C21.2984726,95.8385447 21.1078678,95.4767845 20.9325794,95.1055043 C22.0139213,94.0906038 22.1939748,93.4639834 26.2191398,91.0278821 C24.6207824,92.726863 23.1081971,94.506764 21.5020113,96.1986049 Z M27.4853003,88.5914409 C27.9880205,88.0749806 34.788868,81.182497 35.4648343,80.6894967 C29.2630305,88.0743006 29.3076184,87.2909402 27.4853003,88.5914409 Z M29.2630305,105.12259 C28.9230051,104.971629 28.6878124,104.667329 28.4134776,104.432389 C31.8607017,98.366106 35.3433237,92.3185228 38.852154,86.2896397 C37.5938219,88.9555811 30.0135369,103.713289 29.2630305,105.12259 Z M39.3170936,111.437073 C38.9549444,111.267413 38.5924549,111.101153 38.2282636,110.938973 C41.7663653,97.4681655 40.8650769,100.896727 42.1479153,98.2338459 C41.2367562,102.641608 40.2936028,107.043931 39.3170936,111.437073 Z M42.6411052,94.7508841 C42.8371559,93.3480434 43.3303458,92.0104827 43.6662868,90.6413019 C43.6979408,90.652522 43.763291,90.674962 43.7969872,90.686182 C43.42735,92.0461827 43.3374935,93.4956034 42.6411052,94.7508841 Z M41.0948237,82.5197177 C41.2854285,81.8743973 41.699994,81.331417 41.9967929,80.7364167 C41.7054398,80.5031766 41.4178308,80.2661965 41.136008,80.0258164 C48.8143183,74.9458737 45.0944613,76.6084746 52.303067,74.2842333 C50.026701,77.492815 47.5971705,80.5949767 45.2758763,83.7736383 C44.7602222,84.4240587 45.2714515,84.2880586 41.0948237,82.5197177 Z M52.362631,74.9982337 C53.1675959,73.9323331 52.9606536,73.9823132 54.5736467,73.615793 C54.2281755,74.9179937 53.798634,76.2069343 53.3037422,77.458475 C50.5866026,80.2491965 47.7762029,82.9559379 45.0365992,85.7296594 C45.2683882,84.1602185 44.5154992,85.5528593 52.362631,74.9982337 Z M45.7295838,86.1291596 C46.1832913,85.4760192 52.0351992,79.7521162 52.8163385,79.0296158 C49.7904872,88.2113207 49.8919162,87.8148805 49.6621693,88.2035007 C49.5369147,87.6941804 49.546445,87.1665001 49.5481468,86.6459598 C48.2489709,86.7112399 46.9920002,86.3736197 45.7295838,86.1291596 Z M49.6138374,114.027874 C49.6138374,107.090511 49.5709513,100.153147 49.5801412,93.2174833 C49.6604675,93.2511433 49.8211201,93.3201634 49.9014464,93.3538234 C49.9926645,96.412805 50.9906168,113.283954 51.0610725,114.199574 C50.5774128,114.150954 50.0957953,114.089414 49.6138374,114.027874 Z M50.2972918,88.0430206 C54.1543161,75.8910742 52.9208308,79.1421559 55.9759535,75.8152541 C56.0773825,76.4224945 56.2400773,81.8869773 55.8078128,82.9950379 C55.2829689,84.5117787 54.8646594,86.0693195 54.2952276,87.5670203 C53.0423413,88.1157806 51.6362905,88.0450606 50.2972918,88.0430206 Z M51.3769318,152.123194 C51.9613398,154.734736 52.4133455,157.377897 52.8895171,160.011878 C52.4916296,162.8417 51.8905437,165.645341 51.4872103,168.476863 C51.424583,167.092722 51.2768643,153.860935 51.3769318,152.123194 Z M59.6549666,318.546142 C59.3554448,317.350701 54.6015567,303.731314 53.6100714,300.877013 C53.2115031,299.498992 52.5644679,301.728713 58.4037822,287.685006 C58.870764,286.610605 59.2683111,285.506285 59.7968991,284.459764 C59.7986009,284.801124 59.9408738,317.661462 59.6549666,318.546142 Z M36.4638077,400.614365 C36.631608,400.955045 42.2718084,412.591892 42.1370236,413.506152 C41.0199433,436.586044 41.1748097,434.939083 40.9903314,436.002944 C39.3133495,439.086405 37.5842917,442.147427 35.8681677,445.210489 C35.3154138,441.681287 34.7514278,438.151745 34.200716,434.622543 L34.193228,434.622543 C30.9328647,413.813172 30.4468225,422.458697 36.4638077,400.614365 Z M31.0278267,414.474133 C30.9726875,414.131072 24.9512775,376.557313 24.9138373,375.388392 C35.4457738,398.835484 35.7902239,398.256124 35.475726,399.058524 C33.972671,404.192187 32.5775119,409.35577 31.0278267,414.474133 Z M42.4487986,464.129119 C43.9943993,431.850522 43.8511053,434.297163 43.9651279,433.751123 C45.3378228,431.240221 46.7401296,428.74258 48.1386924,426.248339 C48.1853225,426.248339 48.2785827,426.250039 48.3235109,426.250039 C48.6053338,426.855919 56.495692,443.884488 56.7080802,444.478808 C54.0215735,449.880051 42.5410377,472.599883 41.9910067,473.584524 C42.1758253,470.450742 42.2598956,467.31118 42.4579884,464.179099 L42.5308267,464.158699 L42.4487986,464.129119 Z M44.1182924,430.419801 C44.1836427,426.381279 44.4841856,422.353637 44.6336061,418.320895 C45.5039213,420.011035 46.2414938,421.764416 47.0573505,423.478697 C47.5331817,424.785658 48.0951255,423.274357 44.1182924,430.419801 Z M43.8643796,374.448631 C43.9709141,374.437411 44.0771082,374.437411 44.1856849,374.448631 L43.9542362,374.556751 C43.767035,379.151854 42.4062529,408.228669 42.2922303,409.60771 C40.5556844,405.878588 38.8487503,402.134846 37.1139062,398.404024 C44.34872,373.053611 43.741848,375.248652 43.8643796,374.448631 Z M34.1949298,368.762808 C37.5822495,367.940008 40.9586774,367.063488 44.3609732,366.309707 C44.3609732,367.225668 44.3180871,368.145368 44.1012742,369.042629 C40.7980248,369.072549 37.4964773,368.859708 34.1949298,368.762808 Z M57.5001112,446.113189 C58.2339397,447.87779 59.2145333,449.560451 59.8193632,451.366192 C59.8435292,460.851857 59.8210651,470.339222 59.8343393,479.826587 C53.8102064,479.408727 47.7819891,479.013306 41.7616002,478.537646 C41.9630967,475.743185 57.3067835,446.453869 57.5001112,446.113189 Z M59.806089,447.41913 C59.2608231,446.415449 58.717259,445.368929 58.3813181,444.290788 C58.8220917,443.384008 59.225425,442.445947 59.7986009,441.613967 C59.8530594,443.546528 59.8380833,445.484529 59.806089,447.41913 Z M59.8006431,438.347585 C59.1246768,439.847326 58.3534081,441.311707 57.5709073,442.761127 C48.9892663,423.857797 48.9596545,424.632318 49.3095504,424.127758 C55.2053655,413.585032 59.1770931,406.352548 59.8043871,405.391708 C59.8360412,410.732431 59.8445503,437.031104 59.8006431,438.347585 Z M59.806089,402.158986 C58.5838357,404.544427 52.11042,416.003453 48.618608,422.363157 C48.5886558,422.544037 48.2356966,422.745657 48.2040426,422.447137 C47.0968329,419.958675 45.8939804,417.513054 44.8092349,415.019153 C45.447761,400.724525 46.1873757,386.426498 46.8296458,372.12983 C47.4327739,372.12609 48.0342001,372.13731 48.6373281,372.15771 C61.8459007,396.398363 60.0157543,390.1631 59.806089,402.158986 Z M42.1404272,310.728518 C42.2428773,309.513357 41.4372316,300.240532 41.4045565,299.899852 C41.332399,299.146072 45.472948,282.654363 45.5594009,282.310963 C48.8095532,289.615527 48.0454322,289.069146 46.9804278,311.108978 C46.9290326,311.683578 46.8769566,311.467678 43.0886861,320.700723 C42.9511784,319.616803 42.23607,311.043358 42.2782753,309.786377 C42.2319856,310.097818 42.1836537,310.411298 42.1404272,310.728518 Z M41.0611275,294.738309 C40.7357379,291.631728 38.6343199,264.411653 38.4301005,261.459772 C45.3984079,281.565343 44.7673699,279.464481 44.607398,280.219962 C43.419862,285.058844 42.2244976,289.895687 41.0611275,294.738309 Z M46.2581717,279.570561 C47.0781128,275.759499 48.0975081,271.980397 48.9919892,268.180555 C48.7847065,273.853118 48.4542114,279.523981 48.2169765,285.196544 C47.5205882,283.337083 46.8800199,281.454842 46.2581717,279.570561 Z M59.8118752,389.742859 C58.7067077,387.821178 51.095109,373.849551 50.2247939,372.21007 C53.4255931,372.31275 56.6280942,372.39673 59.8268513,372.54225 C59.813577,378.274313 59.8435292,384.008756 59.8118752,389.742859 Z M54.7530195,366.123047 C54.1526143,366.044167 53.5477844,366.139027 52.94806,366.108087 C53.5940742,366.118967 54.2771882,365.799367 54.8612558,366.158747 C56.3571631,366.238987 57.8564741,366.253947 59.3561255,366.280127 C59.3598695,366.647667 59.3615713,367.020648 59.3598695,367.397368 C48.7697304,369.902829 53.8707915,369.310549 48.5495138,369.214329 C46.9732801,365.976167 47.3075193,367.430348 47.1152126,365.961207 C47.4579609,365.972427 54.1546565,366.190707 54.7530195,366.123047 Z M59.7390369,369.266349 C59.746525,369.350329 59.7632029,369.519989 59.7706909,369.603969 C58.9041198,369.589009 58.0358468,369.574049 57.1713179,369.514549 C57.8751942,369.331629 58.5719229,369.120829 59.2853294,368.975309 C59.3990116,369.048069 59.6250144,369.193589 59.7390369,369.266349 Z M59.8231073,363.601266 C55.6495428,363.504366 51.4776801,363.328926 47.3041156,363.229986 C47.3953336,360.717384 59.4527894,327.182147 59.7931551,326.850986 C59.8602071,339.099153 59.8043871,351.351059 59.8231073,363.601266 Z M46.7493195,315.752021 C46.2602139,326.569466 45.7466021,337.390652 45.2088242,348.208098 C44.5665541,340.140233 43.9222418,332.072369 43.3191137,324.002805 C44.4113473,321.234183 45.5730155,318.486642 46.7493195,315.752021 Z M59.477636,323.144304 C55.5130561,334.35921 51.5542624,345.575816 47.5917246,356.790382 C49.5437221,313.702839 49.3105715,305.929755 52.4936718,302.113933 C60.034134,323.958605 59.7077233,322.575484 59.477636,323.144304 Z M50.1574015,303.720094 C50.1427657,302.543014 50.3394971,297.357331 50.5665211,296.32747 C51.6645409,301.480853 52.5580009,297.740511 50.1574015,303.720094 Z M46.4916626,142.99385 C47.3020734,142.926529 48.1182704,142.911909 48.9324252,142.887429 C48.9082593,143.15807 48.8837529,143.43211 48.859587,143.70649 C48.019224,143.67861 47.2479553,143.32025 46.4916626,142.99385 Z M49.8885125,159.073478 C51.0290781,182.04321 48.092743,184.341611 43.2238113,216.154748 C43.6744555,211.423986 49.5798008,162.28546 49.8885125,159.073478 Z M49.9817727,185.054932 C50.2152636,190.134534 50.082521,195.221277 50.1349373,200.30462 C49.8187376,202.118861 41.5424047,234.572558 41.171406,236.489479 C41.7272232,232.468637 46.8054798,203.929022 49.9817727,185.054932 Z M50.1294915,206.430403 C50.7710809,241.274301 49.9586279,247.233484 49.7635983,252.656827 C46.1370015,252.662267 42.516191,252.787387 38.8895942,252.772427 C38.9399683,250.023186 39.4355408,249.923566 50.1294915,206.430403 Z M38.5662468,255.609729 C42.2357296,255.867109 45.9127005,255.986449 49.5876292,256.186029 C49.5968191,261.097332 49.3507347,260.734212 45.3953446,276.99438 C43.227215,271.054917 41.2422021,265.046434 39.1469107,259.081131 C38.8147137,257.95267 38.0808853,256.810949 38.5662468,255.609729 Z M29.6813399,330.124848 C29.696316,330.206788 29.7262682,330.374748 29.7412443,330.457028 C29.9852865,327.591847 36.9141116,268.950316 37.3490989,265.925674 C40.4331528,307.221756 42.5873274,288.493186 27.9002061,348.495398 C27.6837335,349.275018 27.5155928,350.067899 27.3774044,350.869959 C27.3614072,349.021718 28.8593567,338.205972 29.6813399,330.124848 Z M40.1741344,304.156654 C40.2245086,304.128774 40.3252568,304.072674 40.3759713,304.044794 C40.7142948,309.714297 41.6080952,318.951082 41.6271557,320.991763 C41.6550657,320.797623 41.6850179,320.609263 41.7149701,320.424643 C41.6179658,321.534404 41.9372289,322.657424 41.8007422,323.754265 C30.7977395,350.308619 26.9509261,359.306723 26.592521,360.440964 C26.7412608,358.719543 39.8058587,306.279276 40.1741344,304.156654 Z M42.1033274,326.892126 C42.3409026,329.188148 43.8000505,347.211557 43.8548494,349.491258 C43.8827594,349.377358 43.9110097,349.269238 43.9389197,349.162818 C44.4698902,358.786183 44.6924894,354.078881 44.5233277,363.414606 C38.1142411,364.975886 31.6905188,366.473927 25.2667965,367.973668 C25.3791172,366.626927 41.9590123,327.235527 42.1033274,326.892126 Z M43.0856228,371.94691 C43.1747987,372.35967 43.6145512,370.474369 36.2435911,396.365043 C35.6942408,395.439562 25.3028753,372.836691 24.7310609,371.43589 C26.1303044,371.38183 42.7922276,371.90509 43.0856228,371.94691 Z M23.92984,379.009394 C25.1674097,386.334698 29.8038716,415.656653 30.0996494,417.783354 C24.0697303,439.088105 17.9203428,460.362937 11.8832759,481.665648 C12.3175826,477.063745 23.2082646,385.661837 23.92984,379.009394 Z M30.6261952,421.277196 C30.8062487,421.938496 34.764702,446.165889 34.6898216,447.30319 C26.2184591,462.641618 12.3373238,487.382411 11.2631296,489.487352 C11.3369889,488.565272 30.5271488,421.617196 30.6261952,421.277196 Z M38.7381315,486.821751 C38.6932032,486.55859 38.6486153,486.30325 38.6053888,486.05131 C38.6561033,487.552071 38.1710822,497.191756 38.1516813,497.532776 C37.9954535,497.746296 39.5696449,497.772476 13.8454843,495.796055 C22.1534713,491.227813 30.5084287,486.741511 38.8256055,482.187888 C38.84841,483.732509 38.6710794,485.27543 38.7381315,486.821751 Z M38.9883003,479.205407 C24.9437894,486.671471 11.459861,494.021254 10.297512,494.490455 C10.4162997,493.724094 34.4280803,450.804852 35.1768849,449.636951 C39.594832,476.320165 39.3793805,475.320225 38.9883003,479.205407 Z M39.4889782,468.220001 C38.2190737,459.771676 36.3385531,448.52957 36.295667,447.62789 C36.4821875,447.05907 38.9896617,442.717607 40.855887,439.285986 C40.8327421,441.497347 39.7544635,464.315099 39.4889782,468.220001 Z M59.8231073,499.200477 C59.6713041,499.432017 60.9020666,499.419777 40.8409109,497.889096 C41.0835917,492.356274 41.391963,486.825491 41.6138815,481.292668 C43.234703,481.395008 58.9548343,482.480968 59.837743,482.616968 C59.817321,488.144351 59.8493154,493.673434 59.8231073,499.200477 Z M52.8575227,297.224731 C52.7734524,297.405611 52.6594299,297.567791 52.5120515,297.709571 C49.8190779,289.465247 50.6924564,297.581391 51.7258067,269.295756 C51.7649488,269.547696 51.8040908,269.803036 51.8415311,270.062456 C51.7254663,268.325736 52.0780852,261.678392 52.2281865,260.685252 C54.642741,266.716175 57.2121618,272.687258 59.6808344,278.695741 C60.1934252,280.337942 60.1907022,279.558321 52.8575227,297.224731 Z M57.3990226,65.1994285 C56.5937173,62.7157272 56.1250337,66.6947493 56.5287074,46.3141186 C57.0739733,47.7914194 57.4102546,49.3414802 57.8489861,50.854481 C58.653951,50.856181 59.4177317,50.5763608 60.1011861,50.1659806 C59.9449582,57.1546843 60.5099653,56.9537442 57.3990226,65.1994285 Z M60.4711636,62.216607 C61.3118669,54.1603027 59.312899,61.7681467 62.3795942,51.7313415 C63.4684241,51.9999416 64.5906099,51.8302815 65.6399575,51.4889213 C65.8547282,50.3043607 66.0432908,49.1181001 66.2655497,47.9352395 C66.8986299,48.2225396 67.5146919,48.5526798 68.1031842,48.92566 C67.6324584,50.6287209 67.1845371,52.3375618 66.7512515,54.0498027 C66.8669759,54.1093027 67.0946806,54.2289828 67.2107453,54.2905228 C67.0647284,54.635283 61.7220076,61.7174867 61.4963452,62.0149869 C61.1396419,62.0058069 60.7996165,62.0952269 60.4711636,62.216607 Z M61.4047868,65.6040288 C61.0705476,64.7982283 61.2853184,63.9009679 61.2386883,63.0540274 C61.3581567,63.1247475 61.5970934,63.2665275 61.7148599,63.3375876 C61.8772144,63.9679479 61.8513466,64.6265282 61.8622383,65.2718486 C61.7482158,65.3541286 61.5205111,65.5203887 61.4047868,65.6040288 Z M62.1498473,151.968154 C62.1610794,152.488695 62.0640752,153.001755 61.9442664,153.506995 C61.9929387,153.010935 61.6474675,152.291154 62.1498473,151.968154 Z M62.3292201,368.158288 C62.8894621,368.018548 63.4476618,367.869288 64.002458,367.708808 C64.034112,368.387788 64.0882301,369.066769 64.1294144,369.749489 C63.4085198,369.730789 62.6859234,369.751189 61.9670709,369.691689 C61.9446068,369.587309 61.8979767,369.380249 61.8738107,369.275529 C62.5344606,369.286749 62.2601258,368.568668 62.3292201,368.158288 Z M65.8380503,429.52798 C65.9483288,432.272122 66.0545229,435.017963 66.0790292,437.767545 C66.1127254,437.649905 66.1464217,437.538045 66.1797775,437.431625 C66.115108,442.194007 66.8574457,460.044017 66.7886918,462.730018 C65.2145003,459.172596 63.4908883,455.677054 61.942905,452.113852 C61.6576785,435.203263 61.4418866,438.166705 65.8380503,429.52798 Z M61.9405224,455.792654 C67.5858283,467.735161 67.2141489,464.911119 67.3560814,480.376707 C65.5429532,480.240367 63.7294847,480.106067 61.9143143,479.990467 C61.9275885,471.924643 61.8772144,463.856779 61.9405224,455.792654 Z M61.9405224,499.549317 C61.8789162,493.951214 61.9313325,488.351411 61.9126124,482.753308 C63.7689671,482.863469 65.6324694,482.941669 67.4755498,483.174909 C67.5671082,488.778452 67.796855,494.376555 67.9292573,499.980098 C65.9313105,499.853277 63.9405114,499.624117 61.9405224,499.549317 Z M67.7090407,437.047424 C71.4438738,437.192944 75.1729206,437.439105 78.9023078,437.655685 C79.0796384,441.257647 79.2532249,444.859949 79.4513178,448.46361 C75.6531767,448.18379 71.8492493,448.02909 68.0507679,447.75675 C67.8771814,444.188108 67.8455273,440.616066 67.7090407,437.047424 Z M68.073232,449.056911 C71.8771593,449.335031 75.6885747,449.489731 79.492502,449.769551 C79.7089746,453.339893 79.8583952,456.913975 80.0415119,460.488057 C76.1684904,460.333357 72.3087431,459.971256 68.4357215,459.809076 C68.3237412,459.094056 68.0745935,449.473071 68.073232,449.056911 Z M68.4278931,461.114677 C72.2393085,461.299297 76.0411936,461.623997 79.8526089,461.802837 C80.0673797,461.793657 80.1776582,462.030298 80.1606399,462.224438 C80.2651322,465.671699 80.5173432,469.113521 80.6425978,472.560783 C77.4625608,472.383643 74.2879697,472.090563 71.1058906,471.950823 C67.8737777,465.95492 68.5579128,466.19224 68.4278931,461.114677 Z M68.6988242,470.417422 C68.909851,470.870642 69.1171337,471.331342 69.2965064,471.803263 C69.0984136,471.782863 68.9006611,471.767903 68.7046104,471.758383 C68.696782,471.309242 68.693038,470.859422 68.6988242,470.417422 Z M69.9312885,473.152043 C71.1375446,475.675865 72.3308668,478.210906 73.4384169,480.779607 C71.9574856,480.745947 70.4877864,480.537187 69.0071956,480.512707 C68.9044051,478.040906 68.822377,475.567405 68.7886808,473.093903 C69.1675078,473.109203 69.5504192,473.131643 69.9312885,473.152043 Z M68.9227849,483.428549 C69.4343545,483.069509 69.9428609,483.428889 74.3512778,483.603989 C74.6984508,483.562849 74.9281977,483.818529 75.0663862,484.113309 C74.7249993,484.103109 69.267235,483.914749 68.9227849,483.428549 Z M69.1583179,485.05171 C70.4486444,485.14487 71.7352268,485.30739 73.0313395,485.27169 C72.8444787,485.30535 72.6617023,485.34615 72.4765434,485.39103 C73.5354211,485.37811 74.6164227,485.36689 75.6565803,485.57939 C77.3931262,489.179652 79.0326679,492.833974 80.6984178,496.471296 C78.203537,496.391056 75.7256746,496.023515 73.2287516,495.999375 C73.4098262,495.961975 73.5929429,495.928655 73.7760597,495.904175 C72.3213366,495.939535 70.8778456,495.721255 69.4268665,495.648495 C69.3945317,493.711854 69.1382364,486.953331 69.1583179,485.05171 Z M69.5242111,496.978916 C73.4830048,497.363116 77.4567746,497.568476 81.4196527,497.937716 C82.1691381,499.787317 81.9751296,498.827837 82.0826852,501.081018 C77.9128647,500.752578 73.7447461,500.416998 69.5728834,500.120518 C69.5783292,499.071957 69.4530747,498.023397 69.5242111,496.978916 Z M69.7873138,507.566862 C69.7519158,506.117441 69.6641014,504.66632 69.7685937,503.220639 C69.6865655,503.9632 69.6566134,503.91458 69.6378932,503.142439 C73.8414099,503.450139 78.0411826,503.8102 82.2446992,504.11416 C82.2726092,505.59724 82.4220298,507.076581 82.4611718,508.561362 C78.2355314,508.240402 74.0132946,507.869122 69.7873138,507.566862 Z M84.1310061,481.555828 C84.1116052,481.214128 83.0751916,462.554238 83.212359,461.247277 C83.1524546,461.622297 83.0908484,462.000718 83.0350285,462.385258 C83.0350285,462.385258 82.2664827,440.685426 82.2225755,433.753163 C82.9141986,434.982263 88.1047759,444.413528 88.2991247,444.914009 C88.4059996,446.191049 86.5714283,462.561038 84.8015266,481.544608 C84.5772255,481.542568 84.3532649,481.546308 84.1310061,481.555828 Z M85.0683733,499.922638 C84.8559851,496.474016 84.5370624,496.645716 85.9907644,484.452969 C92.6387877,484.91571 99.2810248,485.42299 105.929048,485.86873 C105.534905,486.33555 85.8798052,499.489137 85.0683733,499.922638 Z M87.0458981,481.822388 C87.2290149,481.779548 87.4117913,481.744188 87.5966099,481.715968 C87.1354143,481.730928 86.6759206,481.721408 86.2184691,481.704748 C87.3876253,470.277342 88.459437,458.838716 89.619063,447.41131 C89.8430236,447.75199 108.498809,481.151908 108.692818,483.251069 C101.345343,482.845109 88.9822387,481.810488 87.0458981,481.822388 Z" fill="#211B25" fill-rule="nonzero" mask="url(#mask-2)"></path>
        </g>
    </g>
</svg>